<svg width="54" height="46" viewBox="0 0 54 46" fill="none" xmlns="http://www.w3.org/2000/svg">
<g clip-path="url(#clip0_807_11943)">
<path d="M11.1405 24.5206L6.97303 45.9985L10.1686 45.9985L23.8104 17.8707C23.9528 17.5973 24.0927 17.3215 24.2152 17.0358C24.8373 15.5784 25.1846 13.9819 25.1846 12.3023C25.1846 5.50594 19.5455 -0.00146534 12.5922 -0.00146594C5.63634 -0.00146655 -0.000269211 5.50838 -0.000269805 12.3023C-0.000270357 18.6178 4.8693 23.8151 11.1405 24.5206Z" fill="#FF5956"/>
<path d="M39.956 24.5206L35.7885 45.9985L38.9865 45.9985L52.6283 17.8707C52.7707 17.5973 52.9107 17.3215 53.0331 17.0358C53.6527 15.5784 54 13.9819 54 12.3047C54 5.50838 48.3609 0.00097607 41.4076 0.000975462C34.4518 0.000974854 28.8152 5.51082 28.8152 12.3047C28.8152 18.6178 33.6847 23.8151 39.956 24.5206Z" fill="#FF5956"/>
</g>
<defs>
<clipPath id="clip0_807_11943">
<rect width="54" height="46" fill="white" transform="translate(54 45.9985) rotate(-180)"/>
</clipPath>
</defs>
</svg>
