<svg xmlns="http://www.w3.org/2000/svg" width="74" height="74" viewBox="0 0 74 74" fill="none">
<g clip-path="url(#clip0_73_208)">
<path d="M73.9347 38.4115C73.888 38.373 73.8201 38.3607 73.7672 38.3785C73.7027 38.3984 73.6435 38.4156 73.5877 38.4319L73.5604 38.4399C73.4228 38.4802 73.3039 38.5147 73.1861 38.562C71.3254 39.3013 69.8604 40.5679 68.7075 42.4341C68.4228 42.8952 68.2023 43.3744 68.0266 43.8524C68.3147 42.2447 68.3814 41.6183 68.4324 39.8193C68.4348 39.7438 68.4348 39.6671 68.4348 39.5908C68.4348 39.3827 68.4348 39.1861 68.4803 39.0067C68.5348 38.7942 68.6444 38.5822 68.7505 38.377C68.7804 38.319 68.8103 38.2609 68.8349 38.2099C68.8435 38.1999 68.8711 38.183 68.8819 38.1814C69.414 38.1001 69.8846 37.8742 70.3208 37.4908C70.7604 37.1026 71.1219 36.6274 71.3955 36.078C72.3774 34.1089 72.8688 31.9325 72.8563 29.6099C72.8552 29.3858 72.8289 29.1677 72.8 28.9305C72.7868 28.8242 72.7734 28.7155 72.7623 28.6029C72.756 28.5412 72.718 28.4863 72.6629 28.4596C72.6085 28.4332 72.5429 28.4351 72.488 28.4683C72.4548 28.489 72.4264 28.5059 72.4006 28.5209C72.3507 28.5506 72.3127 28.5738 72.2767 28.5998C71.4391 29.2002 70.7003 29.9477 70.0806 30.8209C69.0694 32.2482 68.4812 33.8621 68.3228 35.6375C68.3071 35.4396 68.2911 35.2417 68.2751 35.0438L68.2696 34.972C68.2074 34.1961 68.1433 33.3937 68.091 32.6047C68.0778 32.4049 68.0394 32.2105 68.0023 32.0225C67.9307 31.661 67.863 31.3195 67.9713 30.9617C67.996 30.8808 68.0168 30.7994 68.0375 30.7182C68.0887 30.5169 68.336 30.207 68.7157 29.8681L68.7299 29.8553C68.87 29.7366 69.5893 29.0785 69.9973 27.7768C70.4115 26.4543 70.3802 25.0725 70.3574 24.0635L70.3568 24.0366C70.3264 22.6495 70.1765 21.6044 69.8708 20.6471C69.8313 20.5247 69.7844 20.4039 69.7347 20.2771C69.7089 20.211 69.6826 20.1428 69.6555 20.0714C69.6332 20.0109 69.5798 19.9669 69.5173 19.9566L69.4867 19.9538C69.4325 19.9538 69.3819 19.9781 69.3476 20.02L69.0506 20.3819C67.6269 22.1183 66.9274 24.1549 66.9712 26.4352C66.9788 26.8368 67.0089 27.2487 67.0621 27.674C66.7002 26.4252 66.2759 25.2096 65.7932 24.0401C65.7832 24.0145 65.7767 23.9828 65.776 23.9559L65.7726 23.796C65.7676 23.5653 65.7624 23.3266 65.7723 23.0917C65.7738 23.0528 65.799 22.9829 65.8515 22.914C65.926 22.8156 66.0088 22.7193 66.0944 22.6191C66.2404 22.4492 66.3912 22.2738 66.5107 22.0734C66.8954 21.4291 67.076 20.6679 67.079 19.6776C67.0842 18.5118 66.9044 17.2851 66.5127 15.8166C66.2987 15.0155 65.9756 13.9748 65.3739 13.0312C65.333 12.9678 65.2874 12.9081 65.2388 12.8448C65.2169 12.8168 65.1939 12.787 65.1706 12.7549C65.1364 12.7091 65.0893 12.6824 65.0133 12.6824C64.9526 12.6868 64.8985 12.7213 64.8682 12.7749C64.113 14.138 63.7368 15.5942 63.719 17.2268C63.7038 18.5881 63.9163 19.7594 64.1829 20.6851C63.5046 19.4459 62.7508 18.2486 61.9337 17.1129L61.915 17.0872C61.8965 17.0625 61.8887 17.0504 61.89 17.059C61.8386 16.6915 61.803 16.3975 61.7783 16.1416C61.7789 16.1377 61.7837 16.1162 61.8219 16.0524C61.8759 15.9604 61.935 15.8702 61.9979 15.7749C62.124 15.5831 62.2543 15.3846 62.3377 15.1624C62.5896 14.4917 62.6462 13.7311 62.5102 12.8378C62.2118 10.8608 61.3402 9.08051 59.8463 7.39504C59.6926 7.22199 59.5227 7.06896 59.3429 6.90722L59.2932 6.86215C59.2229 6.79853 59.1508 6.73343 59.0779 6.66462C59.0315 6.62047 58.9651 6.60396 58.9008 6.62288C58.8399 6.64217 58.793 6.69262 58.7785 6.75532L58.7459 6.89851C58.7236 6.99347 58.7064 7.06841 58.6936 7.14371C58.4925 8.34377 58.5072 9.62916 58.7387 11.0737C58.9683 12.5063 59.4259 13.742 60.1279 14.8154C59.0751 13.5749 58.0511 12.5332 56.9808 11.6101C56.976 11.6038 56.969 11.5847 56.9684 11.5799C57.0521 10.8593 56.8744 10.1804 56.4248 9.50451C55.8344 8.61625 55.014 7.93924 53.9865 7.4926C53.3716 7.22588 52.7345 6.98976 52.1107 6.75847C51.8119 6.64755 51.5131 6.53701 51.2053 6.41848C50.8962 6.29551 50.7639 6.27362 50.6921 6.34002C50.5998 6.42609 50.622 6.49954 50.6623 6.63308L50.6752 6.67667C51.0523 7.94685 51.5528 8.95141 52.2055 9.74768C53.4037 11.2109 54.805 11.9543 56.4873 12.02C56.5463 12.0235 56.593 12.0399 56.6121 12.0547C56.849 12.232 57.0233 12.3739 57.1775 12.5145C57.6649 12.96 58.1449 13.4347 58.6146 13.9345C57.916 13.5005 57.0623 13.3046 56.1007 13.3532C55.5745 13.3798 55.0522 13.4569 54.5472 13.5315L54.5279 13.5345C54.3786 13.5563 54.23 13.578 54.0818 13.599C53.7572 13.643 53.43 13.7005 53.141 13.7509C53.024 13.7719 52.7445 13.8355 52.6801 13.9711C52.6579 14.0175 52.6597 14.0683 52.6849 14.1145C52.7072 14.1547 52.7317 14.1925 52.7584 14.227C53.5925 15.3093 54.544 16.0221 55.6673 16.4059C57.0369 16.8763 58.2948 16.8375 59.4251 16.2842C59.598 16.1891 59.8065 16.1408 60.0446 16.1408C60.2244 16.1408 60.3592 16.1692 60.4039 16.1794C60.4709 16.1905 60.5617 16.228 60.5803 16.2521C61.2833 17.1764 61.9504 18.1635 62.5735 19.2005C62.0471 18.6886 61.3606 18.3434 60.4254 18.1186C59.6058 17.9233 58.7678 17.8814 57.9576 17.8406L57.6862 17.8269C57.4321 17.8139 57.178 17.7977 56.9163 17.7812L56.4775 17.7542C56.4207 17.7542 56.3667 17.7816 56.3337 17.8272C56.2972 17.8764 56.2884 17.9402 56.31 17.9975C56.3276 18.0454 56.3597 18.1298 56.3762 18.1579C57.2307 19.5873 58.2341 20.5759 59.4435 21.1805C60.6257 21.7711 61.6939 21.9273 62.7714 21.6697C62.896 21.6396 63.0405 21.6237 63.1898 21.6237C63.6481 21.6237 63.9677 21.7635 64.0349 21.893C64.6277 23.1158 65.1567 24.3866 65.6129 25.6827C65.1344 25.023 64.4652 24.4871 63.6179 24.0863C62.7762 23.689 61.8998 23.3258 61.0375 22.9684C60.6669 22.8152 60.2948 22.6614 59.9244 22.5041C59.8693 22.48 59.8042 22.485 59.7529 22.519C59.7024 22.5525 59.6724 22.6086 59.6724 22.6688C59.6724 22.7846 60.9021 26.1976 62.6881 27.5425C63.4167 28.0912 64.314 28.6556 65.4456 28.6821C65.7843 28.689 66.1345 28.7368 66.399 29.0375C66.4394 29.0854 66.493 29.1226 66.5515 29.1425C66.6418 29.1722 66.6667 29.2274 66.7112 29.4159C67.0777 30.9546 67.3446 32.5407 67.5089 34.1512C67.4592 33.9878 67.4015 33.8227 67.3353 33.6556C66.9356 32.642 66.2629 31.755 65.2182 30.8641C64.6798 30.403 64.1159 29.9566 63.5706 29.5246L63.5446 29.5042C63.2963 29.3074 63.0485 29.1113 62.8014 28.9129C62.7504 28.8719 62.7007 28.8296 62.643 28.7802L62.4889 28.6482C62.4349 28.6026 62.3546 28.5931 62.2915 28.6246C62.2268 28.6575 62.188 28.7253 62.193 28.7979C62.2007 28.9067 62.2068 29.0097 62.2125 29.1086L62.2155 29.1547C62.2277 29.3582 62.2392 29.5502 62.2598 29.7397C62.4531 31.5855 63.0019 33.1264 63.9377 34.4506C64.5169 35.2691 65.3479 36.2696 66.6437 36.7428C66.959 36.8585 67.1877 37.0338 67.4327 37.3484C67.6638 37.6429 67.7068 37.912 67.7016 38.2507C67.6796 39.6695 67.5785 41.0769 67.4002 42.4552C67.3585 42.0716 67.2702 41.6767 67.1346 41.2665C66.854 40.417 66.4166 39.591 65.7973 38.7415C65.2628 38.0059 64.7065 37.2677 64.1686 36.5534L64.1328 36.5057C63.9195 36.2229 63.7064 35.9396 63.4988 35.6625C63.4599 35.6056 63.4037 35.5852 63.3712 35.5739C63.3252 35.5514 63.2703 35.5492 63.2215 35.57C63.1737 35.5904 63.137 35.6306 63.1208 35.68L63.1145 35.6992C63.1056 35.7252 63.0986 35.7482 63.0949 35.7712C62.7239 37.9833 62.9515 39.9651 63.7904 41.8307C64.2001 42.7429 64.7497 43.7756 65.7187 44.5187C66.161 44.8579 66.5103 45.3339 66.7021 45.8586C66.7427 45.9715 66.7412 46.0205 66.7366 46.0394C66.3265 47.7381 65.7908 49.3764 65.1396 50.927C65.3073 50.1098 65.2958 49.2514 65.1044 48.362C64.8326 47.1015 64.3656 45.8799 63.949 44.8338L63.8242 44.5205C63.6289 44.0303 63.4322 43.5362 63.2291 43.0241C63.2034 42.9586 63.1412 42.9139 63.0583 42.9098C62.993 42.9098 62.9329 42.9471 62.9018 43.0076L62.8363 43.1307C62.8075 43.1847 62.7807 43.235 62.7577 43.2869C61.9197 45.1777 61.6366 47.116 61.9169 49.0479C62.1172 50.4294 62.4566 51.4186 63.0175 52.2555C63.3078 52.688 63.5836 53.1699 63.6337 53.7625C63.6455 53.9027 63.64 53.9994 63.5775 54.1093C62.8701 55.3482 62.0769 56.5173 61.2083 57.6034C61.2117 57.5975 61.2148 57.5916 61.2182 57.5856C61.843 56.4436 61.862 55.2089 61.7982 54.1514C61.7431 53.245 61.6392 52.3399 61.5392 51.4648L61.5335 51.4141C61.4932 51.0636 61.4532 50.7132 61.4166 50.3621C61.3955 50.163 61.3719 49.964 61.3476 49.762L61.3155 49.4886C61.3085 49.4282 61.2716 49.3759 61.2185 49.3495C61.1199 49.298 60.9602 49.3775 60.7877 49.5816C59.6023 50.9836 58.8666 52.568 58.601 54.2909C58.3256 56.0773 58.4749 57.606 59.0581 58.9645C59.0736 59.0007 59.0733 59.0745 59.0731 59.0992L59.0417 59.8808C59.0371 59.937 59.0074 60.0004 58.9829 60.024C57.7992 61.1639 56.496 62.155 55.0975 62.9798C55.7595 62.3814 56.2354 61.6007 56.5439 60.6114C56.8857 59.5148 57.0612 58.3735 57.2312 57.267L57.2461 57.1685C57.3064 56.7797 57.3692 56.3917 57.4334 55.9951L57.5059 55.5468C57.5163 55.4815 57.4906 55.4162 57.4399 55.3771C57.3897 55.337 57.3169 55.3274 57.2591 55.3522L57.1958 55.3784C57.1283 55.406 57.0695 55.4307 57.0141 55.4591C54.3702 56.7795 52.6298 59.8593 52.8758 62.7817C52.9144 63.2395 52.8724 63.6694 52.7474 64.0953C52.7358 64.134 52.6983 64.1761 52.6831 64.1832C51.4274 64.7127 50.2334 65.0991 49.0321 65.3643C48.9703 65.3786 48.9213 65.4228 48.9013 65.4823C48.8811 65.5422 48.8933 65.6073 48.9345 65.6563C49.0651 65.811 49.1788 65.9773 49.2723 66.1515C49.3107 66.2227 49.4021 66.2593 49.4705 66.2415C50.4493 66.0181 51.4025 65.729 52.3045 65.3814C52.3774 65.3521 52.433 65.3382 52.4852 65.3467C52.6859 65.3734 52.8979 65.4146 53.1332 65.473C53.1818 65.4849 53.2221 65.5073 53.2228 65.5053C53.737 66.5303 54.6206 67.1832 55.9251 67.5009C56.2089 67.569 56.5016 67.6192 56.795 67.65C57.1022 67.6825 57.4447 67.699 57.8129 67.699C58.323 67.699 58.6867 67.6674 58.6912 67.6671C59.8219 67.5406 60.7875 67.2861 61.6427 66.889C61.9937 66.7263 62.3936 66.5073 62.7009 66.1161C62.7597 66.0411 62.7499 65.933 62.6785 65.8701C61.8097 65.1035 60.9251 64.5465 59.9738 64.1674C58.5643 63.6073 57.2804 63.4555 56.0219 63.6976C55.8338 63.7341 55.6502 63.7801 55.4718 63.833C56.649 63.1293 57.7762 62.3022 58.8407 61.36C58.8611 61.3414 58.8946 61.3251 58.9208 61.3205C59.095 61.2915 59.3263 61.2559 59.5629 61.2389C59.5848 61.2389 59.6126 61.2494 59.6158 61.2505C60.2572 61.9684 61.0835 62.3172 62.142 62.3172C62.196 62.3172 62.2502 62.3161 62.3042 62.3143C63.4551 62.2772 64.6121 61.9609 65.7437 61.3739C66.5661 60.9449 67.4234 60.4454 68.1186 59.7005C68.2727 59.5348 68.4104 59.3475 68.5319 59.1822L68.5437 59.1661C68.5975 59.0932 68.6519 59.0198 68.7077 58.9472C68.7381 58.9081 68.7509 58.8577 68.7429 58.8068C68.7344 58.7579 68.706 58.7143 68.6576 58.6828C68.6454 58.6761 68.351 58.5182 68.0823 58.4142C66.2827 57.7188 64.4659 57.6476 62.7328 58.2061C62.1654 58.3884 61.6314 58.6622 61.1115 59.0405C62.073 57.9228 62.9633 56.6975 63.7717 55.3791C63.7804 55.3652 63.8034 55.3276 63.8108 55.3207C63.8815 55.2757 63.9538 55.233 64.026 55.1909C64.1552 55.115 64.2892 55.0366 64.4149 54.9431C64.521 54.8639 64.5509 54.8618 64.6581 54.9308C64.8098 55.0293 64.9862 55.0805 65.14 55.1208C66.0395 55.3511 66.9464 55.2363 67.9494 54.7654C68.8657 54.3358 69.5702 53.6568 70.1952 52.9872C71.1045 52.0104 71.6986 51.1292 72.0651 50.2137C72.1421 50.0215 72.197 49.8229 72.2541 49.6151C72.2776 49.528 72.3018 49.4408 72.3273 49.3551C72.3554 49.2631 72.3064 49.1657 72.2155 49.1336L72.1402 49.1279C71.7694 49.1279 68.4619 49.1822 66.5274 51.0593C66.1065 51.4677 65.7292 51.9017 65.3848 52.3769C66.1501 50.7562 66.7991 49.0481 67.3221 47.2751L67.3298 47.2491C67.3361 47.2274 67.3455 47.1946 67.3518 47.1857L67.8578 46.4909C67.8767 46.4631 67.879 46.4631 67.9086 46.4631C67.9218 46.4631 67.9363 46.464 67.9528 46.4649L68.0609 46.4714C68.4374 46.4948 68.6591 46.4915 68.8414 46.4629C69.5618 46.3492 70.2121 45.9864 70.8292 45.3535C72.2724 43.8734 73.2659 42.0267 73.8661 39.7086C73.9305 39.4602 73.9484 39.2095 73.9677 38.9435C73.9763 38.8229 73.9857 38.6987 73.9995 38.5703C74.0052 38.5087 73.9811 38.4499 73.9347 38.4115Z" fill="#CB4845"/>
<path d="M24.9672 65.363C23.767 65.0979 22.5732 64.7115 21.3171 64.182C21.3021 64.175 21.2648 64.1329 21.2532 64.095C21.128 63.6682 21.086 63.2383 21.1246 62.7805C21.3706 59.8579 19.6302 56.7783 16.9869 55.4581C16.9307 55.4295 16.8721 55.4049 16.8046 55.3772L16.7419 55.3513C16.6824 55.3258 16.6098 55.3364 16.5618 55.375C16.5099 55.4151 16.4841 55.4804 16.4946 55.5458L16.567 55.9939C16.6312 56.3905 16.694 56.7785 16.7543 57.1669L16.7695 57.2686C16.9392 58.3724 17.1147 59.5138 17.4565 60.6104C17.765 61.5997 18.2409 62.3804 18.9029 62.9786C17.5044 62.154 16.2012 61.1629 15.0177 60.0231C14.9928 59.9992 14.9633 59.9358 14.959 59.8835L14.9273 59.1013C14.9271 59.0735 14.9268 58.9997 14.9425 58.9631C15.5255 57.605 15.6748 56.0763 15.3994 54.2899C15.1338 52.567 14.3982 50.9826 13.2127 49.5806C13.074 49.4164 12.9516 49.3333 12.8488 49.3333C12.8238 49.3333 12.8012 49.3383 12.7834 49.3476C12.7288 49.3747 12.6919 49.4272 12.6847 49.4878L12.653 49.7607C12.6285 49.9632 12.6049 50.1621 12.5838 50.3613C12.5472 50.7122 12.5072 51.0626 12.4669 51.4131L12.4612 51.4638C12.361 52.339 12.2571 53.2442 12.2022 54.1505C12.1384 55.2077 12.1574 56.4424 12.7822 57.5846C12.7856 57.5904 12.7886 57.5965 12.7919 57.6023C11.9233 56.5161 11.1304 55.3472 10.4229 54.1085C10.3604 53.9984 10.355 53.9017 10.3667 53.7615C10.417 53.1685 10.6926 52.6866 10.9829 52.2545C11.5436 51.4176 11.883 50.4284 12.0835 49.0469C12.3638 47.115 12.0808 45.1769 11.2428 43.2861C11.2198 43.234 11.1929 43.1837 11.1641 43.1297L11.0986 43.0062C11.0673 42.9459 11.0003 42.9062 10.9297 42.9094C10.8592 42.9131 10.797 42.9578 10.7714 43.0227C10.5682 43.5354 10.3715 44.0293 10.1762 44.5195L10.0514 44.8328C9.63482 45.8791 9.16759 47.1007 8.89605 48.361C8.70463 49.2504 8.69295 50.1088 8.86081 50.9261C8.2094 49.3756 7.67392 47.7373 7.26382 46.0384C7.25918 46.0195 7.2577 45.9706 7.29832 45.8576C7.4901 45.3327 7.83937 44.8567 8.28192 44.5175C9.25069 43.7745 9.80027 42.7417 10.21 41.8295C11.0489 39.9639 11.2765 37.9821 10.9056 35.7702C10.9017 35.747 10.8946 35.724 10.8863 35.699L10.8796 35.679C10.8634 35.6294 10.8267 35.5894 10.7781 35.5684C10.7306 35.5486 10.6709 35.5523 10.634 35.5705C10.5969 35.584 10.5407 35.6046 10.5042 35.6582C10.2942 35.9386 10.0811 36.2217 9.86778 36.5045L9.83199 36.5522C9.29409 37.2665 8.73783 38.0047 8.20328 38.7401C7.58396 39.5898 7.14659 40.4158 6.86596 41.2653C6.73056 41.6756 6.64209 42.0704 6.60035 42.454C6.4221 41.0757 6.32102 39.6685 6.29895 38.2495C6.29375 37.9109 6.33678 37.6417 6.56808 37.347C6.81291 37.0328 7.04161 36.8573 7.35693 36.7416C8.65251 36.2682 9.48365 35.2679 10.0629 34.4494C10.9987 33.1253 11.5475 31.5845 11.7408 29.7389C11.7614 29.549 11.773 29.3568 11.7851 29.1536L11.7881 29.1074C11.7938 29.0085 11.7999 28.9056 11.8077 28.7965C11.8126 28.7242 11.7738 28.6563 11.7091 28.6235C11.6464 28.5919 11.566 28.6012 11.5115 28.6474L11.3578 28.7791C11.2999 28.8284 11.2504 28.8707 11.199 28.9119C10.9521 29.1102 10.7043 29.3064 10.4559 29.5032L10.43 29.5236C9.88485 29.9554 9.32099 30.4018 8.78253 30.863C7.73772 31.754 7.06498 32.641 6.66527 33.6546C6.59924 33.8217 6.54137 33.987 6.49166 34.1506C6.656 32.5399 6.9229 30.9537 7.28941 29.4147C7.33393 29.2265 7.35878 29.1712 7.45023 29.1411C7.50772 29.1217 7.56133 29.0842 7.60047 29.0378C7.86626 28.7357 8.21626 28.6878 8.55532 28.681C9.68675 28.6544 10.5841 28.09 11.3125 27.5414C13.0985 26.1963 14.3282 22.7834 14.3282 22.6677C14.3282 22.6074 14.2982 22.5512 14.2472 22.5172C14.1969 22.484 14.129 22.4794 14.0778 22.5022C13.7058 22.6601 13.3337 22.8138 12.9484 22.9732C12.1008 23.3246 11.2244 23.6878 10.3827 24.0849C9.53559 24.4857 8.86619 25.0218 8.38765 25.6814C8.84374 24.3854 9.37255 23.1149 9.9646 21.8938C10.0327 21.7621 10.3524 21.6223 10.811 21.6223C10.9601 21.6223 11.1046 21.6382 11.2294 21.6683C12.3067 21.9265 13.3749 21.7699 14.5571 21.1792C15.7666 20.5745 16.7701 19.5859 17.6248 18.156C17.6411 18.1284 17.6732 18.044 17.6904 17.9967C17.7121 17.9388 17.7034 17.875 17.6674 17.8266C17.6341 17.7806 17.5806 17.7532 17.5126 17.7532C17.512 17.7532 17.5116 17.7532 17.5111 17.7532L17.0841 17.7801C16.8224 17.7966 16.5683 17.8127 16.3142 17.8257L16.0428 17.8394C15.2326 17.8802 14.3946 17.9221 13.5748 18.1174C12.6398 18.3422 11.9533 18.6874 11.4269 19.1994C12.05 18.1623 12.7171 17.1756 13.4199 16.2513C13.4388 16.2268 13.5295 16.1894 13.6039 16.1769C13.641 16.1682 13.7761 16.1398 13.9556 16.1398C14.1938 16.1398 14.4022 16.1883 14.579 16.2855C15.7021 16.8347 16.9634 16.8755 18.3328 16.4051C19.456 16.0213 20.4074 15.3085 21.2413 14.2266C21.2684 14.1917 21.2929 14.1537 21.3151 14.1137C21.3405 14.0675 21.3422 14.0166 21.3199 13.9703C21.2554 13.8349 20.976 13.7713 20.8585 13.7501C20.5698 13.6997 20.2428 13.6422 19.9186 13.5982C19.7701 13.5774 19.6213 13.5557 19.4722 13.5337L19.4531 13.5307C18.9478 13.4561 18.4255 13.379 17.8993 13.3524C16.9378 13.3033 16.084 13.4995 15.3853 13.9339C15.8551 13.4339 16.3351 12.9594 16.8226 12.5137C16.9767 12.3731 17.1511 12.2314 17.3887 12.0535C17.407 12.0394 17.4538 12.0229 17.5111 12.0196C19.1951 11.9537 20.5964 11.2103 21.7946 9.74725C22.4473 8.95079 22.9477 7.94623 23.3248 6.67605L23.3378 6.63247C23.378 6.49892 23.4003 6.42547 23.3077 6.33941C23.2363 6.273 23.1106 6.29267 22.7837 6.42213C22.487 6.5362 22.1884 6.64693 21.8818 6.76063C21.2658 6.98896 20.6286 7.22508 20.0138 7.4918C18.9862 7.93844 18.1656 8.61544 17.5753 9.50371C17.1257 10.1796 16.948 10.8586 17.0316 11.5761C17.0311 11.5841 17.024 11.6032 17.0229 11.6054C15.9503 12.5315 14.9249 13.5741 13.8721 14.815C14.5742 13.7416 15.0318 12.5057 15.2614 11.0731C15.4929 9.62873 15.5075 8.34316 15.3065 7.14309C15.2937 7.06798 15.2764 6.99286 15.2543 6.89882L15.2215 6.75396C15.2067 6.69182 15.1599 6.64155 15.0985 6.62226C15.0371 6.60409 14.9683 6.62022 14.9225 6.66381C14.8491 6.733 14.7771 6.79829 14.7068 6.86172L14.6573 6.90642C14.4774 7.06853 14.3075 7.22155 14.1537 7.39461C12.6596 9.08007 11.7883 10.8603 11.4898 12.8372C11.3539 13.7306 11.4102 14.4913 11.6623 15.162C11.7458 15.3842 11.876 15.5827 12.0056 15.7796C12.065 15.8696 12.1243 15.9599 12.1787 16.0527C12.2188 16.1193 12.2221 16.1365 12.2219 16.1334C12.1972 16.3977 12.1618 16.6922 12.114 17.0457C12.1119 17.0502 12.1052 17.0606 12.0839 17.0888L12.0667 17.1127C11.2496 18.2484 10.4958 19.4457 9.81752 20.6849C10.0842 19.7593 10.2966 18.5878 10.2816 17.2266C10.2634 15.5938 9.88745 14.1376 9.1318 12.7741C9.10193 12.7211 9.04777 12.6866 8.97191 12.6814C8.91682 12.6814 8.86378 12.7086 8.82909 12.7552C8.80646 12.7867 8.78346 12.8164 8.76158 12.8446C8.71279 12.9077 8.66717 12.9674 8.62636 13.0312C8.02466 13.9747 7.70192 15.0151 7.48769 15.8162C7.09614 17.2854 6.91623 18.5121 6.92142 19.6772C6.92439 20.6674 7.10486 21.4286 7.48955 22.0728C7.60918 22.2733 7.75979 22.4488 7.91115 22.6254C7.99146 22.719 8.074 22.8153 8.14875 22.914C8.20105 22.9826 8.22628 23.0525 8.22776 23.0915C8.23759 23.3263 8.2324 23.565 8.22739 23.7958L8.22387 23.9553C8.22331 23.9827 8.217 24.0143 8.20754 24.0384C7.72455 25.2086 7.29999 26.4248 6.93793 27.6738C6.99116 27.2485 7.02121 26.8367 7.02881 26.435C7.07259 24.1547 6.37314 22.1183 4.94939 20.3816L4.65262 20.0201C4.6183 19.9776 4.56748 19.9535 4.51332 19.9535L4.48364 19.9561C4.42021 19.9667 4.36679 20.0106 4.34472 20.0706C4.31764 20.1427 4.29111 20.2108 4.26533 20.2766C4.21562 20.4039 4.1687 20.5244 4.129 20.647C3.82352 21.6039 3.67365 22.6493 3.64323 24.036L3.64267 24.063C3.61986 25.0719 3.58851 26.4539 4.00288 27.7764C4.41075 29.0783 5.13004 29.7362 5.26953 29.8543L5.28437 29.8677C5.66404 30.2065 5.91129 30.5165 5.96248 30.7177C5.98307 30.799 6.00403 30.8804 6.02851 30.9609C6.13684 31.319 6.06914 31.6603 5.99606 32.0289C5.9597 32.2149 5.92186 32.4071 5.90869 32.6042C5.85639 33.3933 5.79221 34.1957 5.73008 34.9715L5.72451 35.0433C5.70856 35.2412 5.69261 35.4391 5.67684 35.637C5.51844 33.8616 4.93047 32.2478 3.91885 30.8205C3.29935 29.9472 2.56076 29.2001 1.72313 28.5993C1.68696 28.5734 1.64894 28.5502 1.59812 28.52C1.57345 28.5057 1.54488 28.4886 1.5102 28.4669C1.45789 28.4356 1.39075 28.4328 1.33678 28.4591C1.2815 28.486 1.24348 28.5407 1.23717 28.6027C1.22586 28.7149 1.21269 28.8236 1.19878 28.9364C1.17077 29.1673 1.14425 29.3854 1.14313 29.6095C1.13071 31.9321 1.62204 34.1085 2.60398 36.0776C2.87757 36.627 3.23907 37.1022 3.67884 37.4906C4.11491 37.8736 4.58547 38.0995 5.1165 38.1807C5.12819 38.1828 5.15601 38.1996 5.16028 38.203C5.18903 38.2607 5.21889 38.3185 5.24875 38.3766C5.35485 38.5816 5.46447 38.7936 5.519 39.0061C5.56444 39.1859 5.56444 39.3823 5.56444 39.5904C5.56444 39.6666 5.56444 39.7434 5.56685 39.8187C5.61786 41.6179 5.68482 42.2444 5.97268 43.852C5.79703 43.374 5.5765 42.8947 5.29178 42.4336C4.13883 40.5675 2.67409 39.3008 0.813905 38.5617C0.695568 38.514 0.57686 38.4797 0.439233 38.4397L0.411782 38.4315C0.355952 38.4152 0.296784 38.3977 0.233535 38.3785C0.176407 38.3597 0.111303 38.3725 0.0647473 38.4111C0.0183771 38.4495 -0.00592088 38.5083 0.000199988 38.5695C0.0139256 38.6971 0.0233851 38.8212 0.0321027 38.9423C0.0512072 39.2079 0.0691989 39.4587 0.133561 39.7069C0.733777 42.0252 1.72721 43.8717 3.17044 45.352C3.78753 45.9848 4.43783 46.3476 5.15842 46.4613C5.34019 46.4897 5.5624 46.4932 5.93856 46.4699L6.04688 46.4634C6.06339 46.4625 6.07785 46.4615 6.09102 46.4615C6.1207 46.4615 6.12311 46.4615 6.1437 46.4919L6.64765 47.184C6.65414 47.1931 6.6636 47.2259 6.67009 47.2485L6.67751 47.2734C7.20057 49.0466 7.84957 50.7545 8.61486 52.3754C8.27042 51.9 7.89297 51.466 7.4723 51.0577C5.53773 49.1807 2.23024 49.1263 1.85946 49.1263L1.81328 49.1267L1.78416 49.1321C1.69327 49.1644 1.64412 49.2615 1.67212 49.353C1.69791 49.4392 1.72202 49.5264 1.74966 49.6288C1.80252 49.8211 1.85742 50.0198 1.93439 50.212C2.3009 51.1279 2.895 52.0089 3.80441 52.9856C4.4293 53.6552 5.13376 54.3343 6.04985 54.7637C7.05311 55.2348 7.959 55.3498 8.85988 55.119C9.01309 55.0788 9.18929 55.0278 9.34083 54.9295C9.44878 54.8603 9.47827 54.8625 9.58437 54.9415C9.71012 55.035 9.84386 55.1135 9.97369 55.1895C10.0455 55.2316 10.1178 55.2741 10.1853 55.3168C10.1961 55.3258 10.2191 55.3635 10.2276 55.3774C11.0359 56.6958 11.9264 57.9211 12.888 59.0388C12.3679 58.6604 11.8339 58.3867 11.2667 58.2043C9.53336 57.6458 7.71658 57.7169 5.91723 58.4126C5.64865 58.5167 5.35429 58.6743 5.33463 58.6855C5.29345 58.7125 5.26507 58.7563 5.25617 58.8066C5.24838 58.8559 5.26118 58.9064 5.29123 58.945C5.34743 59.018 5.40177 59.0915 5.45556 59.1644L5.46743 59.1803C5.58892 59.3458 5.72655 59.5329 5.88087 59.6987C6.57587 60.4438 7.43298 60.9433 8.25577 61.3722C9.3872 61.9592 10.5442 62.2754 11.695 62.3125C11.7491 62.3144 11.8033 62.3155 11.8573 62.3155C12.9158 62.3155 13.7421 61.9666 14.3791 61.2531C14.3868 61.2475 14.4145 61.2369 14.4297 61.2368C14.673 61.2542 14.9043 61.2896 15.0772 61.3184C15.1045 61.3232 15.138 61.3395 15.159 61.3584C16.2231 62.3005 17.3501 63.1274 18.5273 63.8311C18.3489 63.7782 18.1651 63.7322 17.977 63.6953C16.7189 63.4534 15.435 63.6052 14.0252 64.1653C13.074 64.5444 12.1894 65.1014 11.3208 65.868C11.2492 65.9309 11.2392 66.039 11.2982 66.114C11.6056 66.5052 12.0055 66.7242 12.3562 66.8867C13.2116 67.2842 14.1772 67.5387 15.3092 67.6652C15.3126 67.6653 15.6763 67.6969 16.1864 67.6969C16.5546 67.6969 16.8971 67.6804 17.2041 67.6479C17.4975 67.6171 17.7902 67.5668 18.0742 67.4986C19.3785 67.181 20.2623 66.5282 20.7687 65.5145C20.7778 65.5058 20.8167 65.4832 20.8661 65.4711C21.1014 65.4127 21.3133 65.3715 21.5147 65.3446C21.5622 65.337 21.6213 65.3498 21.6959 65.3798C22.5966 65.7269 23.5498 66.016 24.5271 66.239C24.5408 66.2423 24.5551 66.244 24.5694 66.244C24.635 66.244 24.6955 66.2078 24.7274 66.1488C24.8207 65.9752 24.9344 65.8087 25.0652 65.6538C25.1062 65.605 25.1184 65.5401 25.0982 65.48C25.0789 65.4218 25.0299 65.3776 24.9672 65.363Z" fill="#CB4845"/>
<path d="M45.798 41.4259L53.2507 34.1614C53.5033 33.9151 53.5945 33.5463 53.4853 33.2108C53.3762 32.8749 53.0861 32.6301 52.7367 32.5794L42.4382 31.0839L37.8318 21.7518C37.6756 21.4352 37.3533 21.2349 37.0003 21.2349C36.6473 21.2349 36.3248 21.4356 36.1688 21.7518L31.564 31.0839L21.2639 32.5794C20.9147 32.6301 20.6244 32.8751 20.5153 33.2108C20.4061 33.5463 20.4971 33.9151 20.75 34.1614L28.2026 41.4259L26.4442 51.6828C26.3845 52.0306 26.5275 52.3823 26.8131 52.5896C27.0984 52.7972 27.4768 52.8246 27.7897 52.6603L37.0007 47.8183L46.2117 52.6603C46.3472 52.7317 46.4954 52.7668 46.6429 52.7668C46.8352 52.7668 47.0265 52.7071 47.188 52.5896C47.4737 52.3825 47.6169 52.0306 47.5569 51.6828L45.798 41.4259Z" fill="#CB4845"/>
</g>
<defs>
<clipPath id="clip0_73_208">
<rect width="74" height="74" fill="white"/>
</clipPath>
</defs>
</svg>