<svg xmlns="http://www.w3.org/2000/svg" width="1920" height="158" viewBox="0 0 1920 158" fill="none">
<path d="M1846.56 140.314L1835.42 107.019H1805.66V70.9475H1809.34V67.6832H1794.89V53.6317H1793.12V67.6832H1783.14V56.1716H1781.38V67.6832H1721.19V70.9475H1725.3V140.314H1656.57V111.353H1617.43V30.7934H1621.02V26.838H1613.2V21.7794H1604.21V19.8789V14.0928V9.07358H1593.35V0.10498H1592.05H1590.74V9.07358H1584.89L1581.35 14.0928H1557.66V21.7794H1495.67V26.838H1487.86V30.7934H1491.43V83.2077H1439.56V134.71L1382.01 123.319V73.3329H1391.3V69.6594H1374.96V59.6906H1305.01V69.6594H1282.16V59.6906H1270.41V69.6594H1258.66V59.6906H1245.74V69.6594H1218.72V73.3329H1222.83V140.314H1197.57V14.8172H1199.98V13.229H1204.12V8.89779H1126.85V4.07856H1129.36V2.68736H1087.29V4.07856H1089.81V8.89779H1070.66V13.229H1074.8V14.8172H1077.45V140.314H1056.56V97.2623H950.441V140.314H933.21V1.32646H920.465V4.9636L896.936 7.53386V5.16971H884.19V8.92506L860.668 11.4953V8.78564H847.923V12.8865L824.401 15.4568V13.223H811.655V16.851L788.133 19.4213V17.4936H775.381V140.314H757.451L757.451 99.9995H691.024L691.024 127.763H622.927V88.9696H614.539V76.2335H619.52V74.9514H597.484V70.9475H595.136V74.9514H588.085V54.3924H586.327V74.9514H577.145V76.2335H582.547V88.9696H537.606V118.561H493.853L480.66 140.314H425.153V33.2061H364.453V28.799H367.901V27.2533H321.922V28.799H325.539V33.2061V40.2955V124.562H296.913V92.7219H307.093V89.8395H235.067V70.6081H221.331V66.6527H190.662V70.6081H165.708V139.287H83.8415V88.3483H14.9101V128.581H0V169.081H14.9101H35.012H45.7755H83.8415H165.708H190.662H221.331H235.067H288.796H296.913H325.539H373.54H397.185H425.153H537.606H563.572H607.413H622.927H692.191H710.8H775.381H781.754H788.133H811.655H824.401H847.923H858.578H860.668H884.19H896.936H917.16H920.465H926.837H933.21H950.441H1038.15H1050.69H1056.56H1082.94H1129.36H1171.87H1191.85H1222.83H1299.79H1381.16H1382.01H1439.56H1471.75H1491.43H1503.87H1600.19H1617.43H1638.06H1656.57H1725.3H1776.4H1786.86H1805.66H1920V150.489V140.314H1846.56Z" fill="#FAF5EE"/>
</svg>