<svg width="169" height="85" viewBox="0 0 169 85" fill="none" xmlns="http://www.w3.org/2000/svg">
<path id="Vector" d="M143.447 25.0172C140.853 25.5006 138.376 26.4767 136.149 27.8928C136.601 23.376 135.589 18.8335 133.261 14.9374C130.934 11.0414 127.414 7.99894 123.225 6.26035C119.035 4.52176 114.397 4.17944 109.998 5.28406C105.599 6.38867 101.672 8.88152 98.7981 12.3936C96.3765 9.88097 93.3706 8.00782 90.0491 6.94153C86.7275 5.87525 83.1939 5.64904 79.7637 6.28313C78.4623 6.5231 77.1874 6.88906 75.9568 7.37583C73.2351 4.22548 69.6429 1.95143 65.6326 0.839966C61.6223 -0.271496 57.373 -0.170685 53.4198 1.12971C49.4666 2.4301 45.9862 4.87195 43.4166 8.14784C40.8471 11.4237 39.3033 15.3872 38.9797 19.5393C36.566 20.8759 34.4418 22.6793 32.7306 24.8447C29.7933 23.1099 26.4797 22.1134 23.0734 21.9407C19.6672 21.7679 16.2698 22.424 13.1724 23.8528C10.0749 25.2816 7.36958 27.4404 5.2881 30.1445C3.20662 32.8486 1.811 36.0173 1.22076 39.3793C0.630523 42.7412 0.863251 46.1963 1.89902 49.4486C2.93478 52.7008 4.74271 55.6534 7.168 58.0534C9.59328 60.4534 12.5636 62.2293 15.8247 63.229C19.0858 64.2288 22.5403 64.4226 25.8926 63.7938C28.4813 63.3088 30.9535 62.3327 33.176 60.9183C32.9785 62.8801 33.0608 64.8601 33.4202 66.7988C34.15 70.7876 36.0124 74.4816 38.7848 77.4388C41.5571 80.3961 45.122 82.4915 49.053 83.4743C52.9839 84.4571 57.1145 84.2857 60.9507 82.9807C64.7869 81.6757 68.1663 79.2922 70.6846 76.1155C73.517 77.7849 76.6996 78.7696 79.9792 78.991C82.3356 80.8614 85.0646 82.2057 87.9829 82.9337C90.9012 83.6616 93.9413 83.7564 96.8992 83.2118C99.8571 82.6671 102.664 81.4955 105.133 79.7756C107.601 78.0557 109.673 75.8273 111.21 73.24C115.975 75.5915 121.452 76.0536 126.543 74.5338C131.634 73.014 135.963 69.6245 138.663 65.0447C141.683 66.4052 144.981 67.0355 148.29 66.8847C151.599 66.7338 154.826 65.806 157.711 64.1762C160.595 62.5464 163.056 60.2603 164.895 57.5027C166.734 54.7451 167.898 51.5933 168.295 48.302C168.691 45.0107 168.309 41.6721 167.178 38.5561C166.047 35.4401 164.2 32.634 161.785 30.3646C159.371 28.0952 156.456 26.4261 153.278 25.4921C150.1 24.5582 146.747 24.3857 143.49 24.9885L143.447 25.0172Z" fill="white" fill-opacity="0.05"/>
</svg>
