<svg width="106" height="49" viewBox="0 0 106 49" fill="none" xmlns="http://www.w3.org/2000/svg">
<path id="Vector" d="M89.6995 12.3319C85.8606 12.2332 82.1104 13.4962 79.1121 15.8976C77.6946 13.6085 75.7295 11.7091 73.3943 10.3711C71.0592 9.03307 68.4277 8.29867 65.7377 8.23426C64.7185 8.20674 63.6988 8.27413 62.6921 8.43554C61.1463 5.61757 58.8007 3.32138 55.9515 1.83708C53.1024 0.352793 49.8776 -0.252996 46.6845 0.096268C43.4915 0.445532 40.4736 1.73417 38.012 3.79937C35.5505 5.86457 33.7558 8.61366 32.8547 11.6993C30.8211 12.3226 28.9313 13.344 27.2953 14.7042C24.9954 12.5869 22.1352 11.177 19.0563 10.6428C15.9774 10.1087 12.8099 10.4728 9.93226 11.6918C7.05457 12.9108 4.58834 14.9331 2.8281 17.5171C1.06786 20.1012 0.0880027 23.1377 0.00565452 26.2641C-0.0766936 29.3904 0.741892 32.4744 2.36365 35.1477C3.98542 37.821 6.34177 39.9705 9.15129 41.3396C11.9608 42.7086 15.1047 43.2393 18.2075 42.8682C21.3102 42.4971 24.2407 41.24 26.6488 39.2469C28.5105 40.9646 30.7495 42.2205 33.1851 42.9132C34.6645 44.6922 36.5063 46.1346 38.5874 47.144C40.6685 48.1533 42.9409 48.7064 45.2527 48.7663C47.5645 48.8262 49.8625 48.3915 51.9929 47.4912C54.1234 46.5909 56.0373 45.2458 57.6067 43.5458C60.8235 46.0815 64.8789 47.3067 68.9603 46.9761C73.0416 46.6455 76.8474 44.7834 79.6148 41.763C81.6745 43.2711 84.0596 44.2732 86.5776 44.6887C89.0956 45.1041 91.6759 44.9211 94.1102 44.1545C96.5445 43.3879 98.7646 42.0591 100.591 40.2755C102.418 38.4918 103.8 36.3033 104.626 33.8866C105.451 31.4698 105.698 28.8927 105.345 26.3631C104.992 23.8335 104.05 21.4224 102.594 19.3245C101.139 17.2265 99.2105 15.5006 96.9655 14.2859C94.7206 13.0712 92.2218 12.4019 89.6708 12.3319H89.6995Z" fill="white" fill-opacity="0.05"/>
</svg>
