<svg xmlns="http://www.w3.org/2000/svg" width="15" height="15" viewBox="0 0 15 15" fill="none">
<g clip-path="url(#clip0_807_10616)">
<path d="M8.78123 2.46612C7.91183 1.93224 6.8816 1.63867 5.81738 1.63867C2.92042 1.63867 0.485352 3.78763 0.485352 6.53918C0.485352 7.5039 0.786352 8.42871 1.35811 9.22741L0.559398 11.7241C0.475016 11.9878 0.673422 12.2564 0.950277 12.2564C1.01358 12.2564 1.07729 12.2419 1.13608 12.2121L3.56508 10.9824C3.66343 11.0246 3.76302 11.0638 3.86362 11.1002C3.30124 10.2263 3.00098 9.22303 3.00098 8.17268C3.00098 5.04461 5.64452 2.63979 8.78123 2.46612Z" fill="#FF5956"/>
<path d="M13.6126 10.8612C14.1844 10.0625 14.4854 9.13769 14.4854 8.17297C14.4854 5.42041 12.0492 3.27246 9.15332 3.27246C6.25636 3.27246 3.82129 5.42142 3.82129 8.17297C3.82129 10.9255 6.2574 13.0735 9.15332 13.0735C9.93035 13.0735 10.7046 12.9158 11.4055 12.6162L13.8346 13.8459C13.982 13.9205 14.1601 13.8997 14.2861 13.793C14.4122 13.6864 14.4615 13.5148 14.4113 13.3579L13.6126 10.8612ZM7.48535 8.58135C7.25884 8.58135 7.0752 8.3985 7.0752 8.17297C7.0752 7.94744 7.25884 7.76459 7.48535 7.76459C7.71187 7.76459 7.89551 7.94744 7.89551 8.17297C7.89551 8.3985 7.71187 8.58135 7.48535 8.58135ZM9.12598 8.58135C8.89946 8.58135 8.71582 8.3985 8.71582 8.17297C8.71582 7.94744 8.89946 7.76459 9.12598 7.76459C9.35249 7.76459 9.53613 7.94744 9.53613 8.17297C9.53613 8.3985 9.35249 8.58135 9.12598 8.58135ZM10.7666 8.58135C10.5401 8.58135 10.3564 8.3985 10.3564 8.17297C10.3564 7.94744 10.5401 7.76459 10.7666 7.76459C10.9931 7.76459 11.1768 7.94744 11.1768 8.17297C11.1768 8.3985 10.9931 8.58135 10.7666 8.58135Z" fill="#FF5956"/>
</g>
<defs>
<clipPath id="clip0_807_10616">
<rect width="14" height="13.9392" fill="white" transform="translate(0.485352 0.794922)"/>
</clipPath>
</defs>
</svg>