<svg xmlns="http://www.w3.org/2000/svg" width="60" height="60" viewBox="0 0 60 60" fill="none">
<path d="M59.7125 53.3741C59.2878 52.8857 58.5476 52.8341 58.0592 53.2588C56.8096 54.3452 55.6532 55.4716 54.0137 55.9248C52.1911 56.4285 50.4589 56.031 48.8094 55.2062L54.9124 34.6722C55.0643 34.1614 54.8521 33.6123 54.3964 33.3361L48.75 29.9149V19.9243C48.75 19.2772 48.2253 18.7524 47.5781 18.7524H45.2344V15.2368C45.2344 14.5897 44.7097 14.0649 44.0625 14.0649H40.3711V10.5493C40.3711 9.90219 39.8464 9.37743 39.1992 9.37743H33.5156V1.17431C33.5156 0.527206 32.991 0.00244141 32.3438 0.00244141H27.6563C27.009 0.00244141 26.4844 0.527206 26.4844 1.17431V9.37743H20.8008C20.1536 9.37743 19.6289 9.90219 19.6289 10.5493V14.0649H15.9375C15.2903 14.0649 14.7657 14.5897 14.7657 15.2368V18.7524H12.4219C11.7747 18.7524 11.25 19.2772 11.25 19.9243V29.9149L5.60372 33.336C5.14786 33.6122 4.93587 34.1612 5.08775 34.6721C5.08775 34.6721 11.1757 55.1552 11.1783 55.1641C11.0744 54.8145 9.19915 54.5842 8.86762 54.5413C5.45548 54.0997 2.86084 55.809 0.402952 57.9462C-0.0854849 58.3709 -0.137047 59.1109 0.287522 59.5993C0.692873 60.0655 1.44721 60.1438 1.94068 59.7148C4.47287 57.5135 7.32767 55.8355 10.678 57.5109C13.709 59.0263 16.8463 59.6761 20.0032 58.0148C22.5488 56.6749 25.0052 55.5179 27.8466 56.8707L30.7677 58.2618C33.2668 59.4519 36.1201 59.4245 38.5957 58.1865C40.1212 57.4237 41.6717 56.4087 43.4143 56.2889C45.1224 56.1716 46.7729 56.8076 48.2737 57.5586C50.2564 58.55 52.5775 58.7481 54.7066 58.1412C56.6677 57.5821 58.095 56.3331 59.5969 55.0272C60.0855 54.6026 60.1371 53.8625 59.7125 53.3741ZM46.4062 21.0962V28.4948L34.1955 21.0962H46.4062ZM28.8281 2.34619H31.1719V9.37743H28.8281V2.34619ZM21.9727 11.7212H38.0273V14.0649H21.9727V11.7212ZM13.5938 21.0962H25.8045L13.5938 28.4948V21.0962ZM28.8281 54.7424C28.8284 54.5341 27.1576 54.15 26.9391 54.1027C24.8995 53.6612 22.71 53.9415 20.861 54.9148C19.5195 55.6208 18.2251 56.4445 16.6908 56.6421C16.688 56.6425 16.6852 56.6428 16.6824 56.6432C15.7859 56.7521 14.8683 56.6862 14.0007 56.4332L7.59204 34.8718L28.8281 22.0046C28.8281 22.0046 28.8281 54.7411 28.8281 54.7424ZM17.1094 18.7524V16.4087H42.8906V18.7524H17.1094ZM46.6432 54.2671C46.6562 53.9045 43.3574 53.9078 43.1363 53.9311C41.1022 54.1463 39.3425 55.1929 37.5475 56.0904C35.4268 57.1507 33.2448 56.8459 31.1719 55.8584V22.0046L52.408 34.8718L46.6432 54.2671Z" fill="#CB4845"/>
</svg>