<svg xmlns="http://www.w3.org/2000/svg" width="40" height="40" viewBox="0 0 40 40" fill="none">
<g clip-path="url(#clip0_807_12377)">
<path d="M7.3363 6.85315C6.56231 6.85315 5.93262 7.48284 5.93262 8.25691C5.93262 9.0309 6.56231 9.66059 7.3363 9.66059C8.11037 9.66059 8.74006 9.0309 8.74006 8.25691C8.74006 7.48284 8.11037 6.85315 7.3363 6.85315Z" fill="white"/>
<path d="M28.8098 37.4106C29.4557 35.8523 28.7161 34.0654 27.1578 33.4194C25.5995 32.7735 23.8126 33.5132 23.1667 35.0715C22.5207 36.6299 23.2603 38.4168 24.8186 39.0627C26.377 39.7087 28.1639 38.969 28.8098 37.4106Z" fill="white"/>
<path d="M20.5103 36.2328C20.5103 35.918 20.5385 35.6098 20.5899 35.3093H4.76157C3.47588 35.3093 2.42985 34.2633 2.42985 32.9775C2.42985 31.6918 3.47588 30.6457 4.76157 30.6457H15.6731C18.154 30.6457 20.1725 28.6273 20.1725 26.1464C20.1725 23.6655 18.1541 21.6471 15.6731 21.6471H10.8681L9.42556 24.0588H15.6731C16.8243 24.0588 17.7607 24.9953 17.7607 26.1464C17.7607 27.2976 16.8242 28.234 15.6731 28.234H4.76157C2.14603 28.234 0.0180664 30.362 0.0180664 32.9775C0.0180664 35.5931 2.14603 37.721 4.76157 37.721H20.7179C20.5836 37.2476 20.5103 36.7488 20.5103 36.2328Z" fill="white"/>
<path d="M39.9993 19.5409C39.9803 19.0658 39.6837 18.6463 39.2422 18.4697L26.4243 13.3424C26.0528 13.1939 25.6317 13.2392 25.3004 13.4635C24.969 13.6879 24.7705 14.062 24.7705 14.4621V30.9029C25.1585 30.8152 25.5615 30.7674 25.9757 30.7674C26.3904 30.7674 26.7937 30.8154 27.1822 30.9033V26.6992L39.3304 20.6693C39.7564 20.458 40.0183 20.016 39.9993 19.5409Z" fill="white"/>
<path d="M14.789 8.10798C14.789 4.02414 11.4783 0.713501 7.39448 0.713501C3.31064 0.713501 0 4.02414 0 8.10798V8.13865C0 9.61475 0.394954 11.0639 1.14389 12.336L6.77095 21.8928C7.02567 22.3254 7.6506 22.3276 7.90829 21.8967L13.6159 12.3543C14.3836 11.071 14.789 9.60344 14.789 8.10798ZM7.33634 12.0723C5.2325 12.0723 3.52087 10.3606 3.52087 8.2568C3.52087 6.15296 5.2325 4.44133 7.33634 4.44133C9.44019 4.44133 11.1518 6.15296 11.1518 8.2568C11.1518 10.3607 9.44019 12.0723 7.33634 12.0723Z" fill="white"/>
</g>
<defs>
<clipPath id="clip0_807_12377">
<rect width="40" height="40" fill="white"/>
</clipPath>
</defs>
</svg>