<svg width="575" height="528" viewBox="0 0 575 528" fill="none" xmlns="http://www.w3.org/2000/svg">
<path d="M54.2797 404.385H521.18C554.303 358.087 573.964 301.522 574.46 240.395H1C1.49588 301.522 21.1571 358.087 54.2797 404.385Z" fill="#2D2330" stroke="#FAF5EE" stroke-width="0.687402" stroke-miterlimit="10" stroke-linecap="round" stroke-linejoin="round"/>
<path d="M86.3076 270.685H145.321" stroke="#FAF5EE" stroke-width="0.687402" stroke-miterlimit="10" stroke-linecap="round" stroke-linejoin="round"/>
<path d="M97.478 275.303H112.85" stroke="#FAF5EE" stroke-width="0.687402" stroke-miterlimit="10" stroke-linecap="round" stroke-linejoin="round"/>
<path d="M235.685 275.303H294.698" stroke="#FAF5EE" stroke-width="0.687402" stroke-miterlimit="10" stroke-linecap="round" stroke-linejoin="round"/>
<path d="M247.825 280.026H258.229" stroke="#FAF5EE" stroke-width="0.687402" stroke-miterlimit="10" stroke-linecap="round" stroke-linejoin="round"/>
<path d="M457.819 296.145H481.686" stroke="#FAF5EE" stroke-width="0.687402" stroke-miterlimit="10" stroke-linecap="round" stroke-linejoin="round"/>
<path d="M379.22 305.591H389.841" stroke="#FAF5EE" stroke-width="0.687402" stroke-miterlimit="10" stroke-linecap="round" stroke-linejoin="round"/>
<path d="M466.315 261.06H477.085" stroke="#FAF5EE" stroke-width="0.687402" stroke-miterlimit="10" stroke-linecap="round" stroke-linejoin="round"/>
<path d="M480.004 256.337H503.871" stroke="#FAF5EE" stroke-width="0.687402" stroke-miterlimit="10" stroke-linecap="round" stroke-linejoin="round"/>
<path d="M384.897 300.868H472.994" stroke="#FAF5EE" stroke-width="0.687402" stroke-miterlimit="10" stroke-linecap="round" stroke-linejoin="round"/>
<path d="M495.615 278.7H547.099" stroke="#FAF5EE" stroke-width="0.687402" stroke-miterlimit="10" stroke-linecap="round" stroke-linejoin="round"/>
<path d="M524.171 283.422H555.949" stroke="#FAF5EE" stroke-width="0.687402" stroke-miterlimit="10" stroke-linecap="round" stroke-linejoin="round"/>
<path d="M130.071 296.145H189.085" stroke="#FAF5EE" stroke-width="0.687402" stroke-miterlimit="10" stroke-linecap="round" stroke-linejoin="round"/>
<path d="M120.317 300.868H148.161" stroke="#FAF5EE" stroke-width="0.687402" stroke-miterlimit="10" stroke-linecap="round" stroke-linejoin="round"/>
<path d="M16.0889 250.567H43.4658" stroke="#FAF5EE" stroke-width="0.687402" stroke-miterlimit="10" stroke-linecap="round" stroke-linejoin="round"/>
<path d="M27.6528 255.289H40.7652" stroke="#FAF5EE" stroke-width="0.687402" stroke-miterlimit="10" stroke-linecap="round" stroke-linejoin="round"/>
<path d="M25.3716 296.145H39.8854" stroke="#FAF5EE" stroke-width="0.687402" stroke-miterlimit="10" stroke-linecap="round" stroke-linejoin="round"/>
<path d="M39.8848 300.868H45.7854" stroke="#FAF5EE" stroke-width="0.687402" stroke-miterlimit="10" stroke-linecap="round" stroke-linejoin="round"/>
<path d="M46.4121 337.888C38.9637 342.099 29.8529 342.099 22.4031 337.888C20.9049 337.041 19.3369 336.373 17.7319 335.867C58.4071 447.785 165.707 527.731 291.694 527.731C415.742 527.731 521.675 450.227 563.732 341.012C559.221 341.22 554.665 340.186 550.603 337.89C543.155 333.679 534.042 333.679 526.594 337.89C519.146 342.1 510.035 342.1 502.585 337.89C495.135 333.679 486.024 333.679 478.576 337.89C471.128 342.1 462.015 342.1 454.567 337.89C447.119 333.679 438.006 333.679 430.558 337.89C423.11 342.1 413.997 342.1 406.549 337.89C399.101 333.679 389.99 333.679 382.54 337.89C375.09 342.1 365.979 342.1 358.531 337.89C351.082 333.679 341.97 333.679 334.522 337.89C327.073 342.1 317.961 342.1 310.513 337.89C303.063 333.679 293.952 333.679 286.504 337.89C279.055 342.1 269.945 342.1 262.495 337.89C255.046 333.679 245.934 333.679 238.486 337.89C231.037 342.1 221.925 342.1 214.477 337.89C207.028 333.679 197.916 333.679 190.468 337.89C183.019 342.1 173.907 342.1 166.459 337.89C159.01 333.679 149.899 333.679 142.45 337.89C135.001 342.1 125.889 342.1 118.441 337.89C110.992 333.679 101.88 333.679 94.4316 337.89C86.9832 342.1 77.8709 342.1 70.4225 337.89C62.9728 333.678 53.8619 333.678 46.4121 337.888Z" fill="white"/>
<path d="M493.764 365.791C496.892 365.791 499.428 364.764 499.428 363.496C499.428 362.229 496.892 361.201 493.764 361.201C490.636 361.201 488.101 362.229 488.101 363.496C488.101 364.764 490.636 365.791 493.764 365.791Z" fill="#FAF5EE" stroke="#FAF5EE" stroke-width="0.687402" stroke-miterlimit="10" stroke-linecap="round" stroke-linejoin="round"/>
<path d="M430.304 442.589C433.432 442.589 435.968 441.562 435.968 440.294C435.968 439.027 433.432 437.999 430.304 437.999C427.176 437.999 424.641 439.027 424.641 440.294C424.641 441.562 427.176 442.589 430.304 442.589Z" fill="#FAF5EE" stroke="#FAF5EE" stroke-width="0.687402" stroke-miterlimit="10" stroke-linecap="round" stroke-linejoin="round"/>
<path d="M115.817 363.496C118.945 363.496 121.481 362.469 121.481 361.201C121.481 359.934 118.945 358.906 115.817 358.906C112.689 358.906 110.154 359.934 110.154 361.201C110.154 362.469 112.689 363.496 115.817 363.496Z" fill="#FAF5EE" stroke="#FAF5EE" stroke-width="0.687402" stroke-miterlimit="10" stroke-linecap="round" stroke-linejoin="round"/>
<path d="M201.722 472.576C204.85 472.576 207.386 471.549 207.386 470.281C207.386 469.014 204.85 467.986 201.722 467.986C198.594 467.986 196.059 469.014 196.059 470.281C196.059 471.549 198.594 472.576 201.722 472.576Z" fill="#FAF5EE" stroke="#FAF5EE" stroke-width="0.687402" stroke-miterlimit="10" stroke-linecap="round" stroke-linejoin="round"/>
<path d="M296.822 509.313C299.95 509.313 302.486 508.286 302.486 507.018C302.486 505.751 299.95 504.723 296.822 504.723C293.694 504.723 291.159 505.751 291.159 507.018C291.159 508.286 293.694 509.313 296.822 509.313Z" fill="#FAF5EE" stroke="#FAF5EE" stroke-width="0.687402" stroke-miterlimit="10" stroke-linecap="round" stroke-linejoin="round"/>
<path d="M357.567 465.754C360.695 465.754 363.23 464.727 363.23 463.459C363.23 462.192 360.695 461.164 357.567 461.164C354.439 461.164 351.903 462.192 351.903 463.459C351.903 464.727 354.439 465.754 357.567 465.754Z" fill="#FAF5EE" stroke="#FAF5EE" stroke-width="0.687402" stroke-miterlimit="10" stroke-linecap="round" stroke-linejoin="round"/>
<path d="M483.459 365.791C484.979 365.791 486.212 365.277 486.212 364.643C486.212 364.009 484.979 363.495 483.459 363.495C481.939 363.495 480.706 364.009 480.706 364.643C480.706 365.277 481.939 365.791 483.459 365.791Z" fill="#FAF5EE" stroke="#FAF5EE" stroke-width="0.687402" stroke-miterlimit="10" stroke-linecap="round" stroke-linejoin="round"/>
<path d="M426.778 364.644C428.298 364.644 429.531 364.13 429.531 363.496C429.531 362.862 428.298 362.348 426.778 362.348C425.257 362.348 424.025 362.862 424.025 363.496C424.025 364.13 425.257 364.644 426.778 364.644Z" fill="#FAF5EE" stroke="#FAF5EE" stroke-width="0.687402" stroke-miterlimit="10" stroke-linecap="round" stroke-linejoin="round"/>
<path d="M435.969 368.086C437.49 368.086 438.722 367.572 438.722 366.938C438.722 366.304 437.49 365.79 435.969 365.79C434.449 365.79 433.216 366.304 433.216 366.938C433.216 367.572 434.449 368.086 435.969 368.086Z" fill="#FAF5EE" stroke="#FAF5EE" stroke-width="0.687402" stroke-miterlimit="10" stroke-linecap="round" stroke-linejoin="round"/>
<path d="M442.267 364.644C443.787 364.644 445.02 364.13 445.02 363.496C445.02 362.862 443.787 362.348 442.267 362.348C440.747 362.348 439.514 362.862 439.514 363.496C439.514 364.13 440.747 364.644 442.267 364.644Z" fill="#FAF5EE" stroke="#FAF5EE" stroke-width="0.687402" stroke-miterlimit="10" stroke-linecap="round" stroke-linejoin="round"/>
<path d="M506.626 395.633C508.146 395.633 509.379 395.119 509.379 394.485C509.379 393.85 508.146 393.336 506.626 393.336C505.106 393.336 503.873 393.85 503.873 394.485C503.873 395.119 505.106 395.633 506.626 395.633Z" fill="#FAF5EE" stroke="#FAF5EE" stroke-width="0.687402" stroke-miterlimit="10" stroke-linecap="round" stroke-linejoin="round"/>
<path d="M422.962 436.072C424.482 436.072 425.715 435.558 425.715 434.923C425.715 434.289 424.482 433.775 422.962 433.775C421.441 433.775 420.209 434.289 420.209 434.923C420.209 435.558 421.441 436.072 422.962 436.072Z" fill="#FAF5EE" stroke="#FAF5EE" stroke-width="0.687402" stroke-miterlimit="10" stroke-linecap="round" stroke-linejoin="round"/>
<path d="M363.232 470.282C364.752 470.282 365.985 469.768 365.985 469.134C365.985 468.5 364.752 467.986 363.232 467.986C361.712 467.986 360.479 468.5 360.479 469.134C360.479 469.768 361.712 470.282 363.232 470.282Z" fill="#FAF5EE" stroke="#FAF5EE" stroke-width="0.687402" stroke-miterlimit="10" stroke-linecap="round" stroke-linejoin="round"/>
<path d="M286.785 504.725C288.305 504.725 289.538 504.211 289.538 503.577C289.538 502.943 288.305 502.428 286.785 502.428C285.264 502.428 284.032 502.943 284.032 503.577C284.032 504.211 285.264 504.725 286.785 504.725Z" fill="#FAF5EE" stroke="#FAF5EE" stroke-width="0.687402" stroke-miterlimit="10" stroke-linecap="round" stroke-linejoin="round"/>
<path d="M277.745 461.164C280.873 461.164 283.409 460.137 283.409 458.869C283.409 457.602 280.873 456.574 277.745 456.574C274.617 456.574 272.082 457.602 272.082 458.869C272.082 460.137 274.617 461.164 277.745 461.164Z" fill="#FAF5EE" stroke="#FAF5EE" stroke-width="0.687402" stroke-miterlimit="10" stroke-linecap="round" stroke-linejoin="round"/>
<path d="M286.785 456.574C288.305 456.574 289.538 456.06 289.538 455.426C289.538 454.792 288.305 454.278 286.785 454.278C285.264 454.278 284.032 454.792 284.032 455.426C284.032 456.06 285.264 456.574 286.785 456.574Z" fill="#FAF5EE" stroke="#FAF5EE" stroke-width="0.687402" stroke-miterlimit="10" stroke-linecap="round" stroke-linejoin="round"/>
<path d="M266.917 456.574C268.438 456.574 269.67 456.06 269.67 455.426C269.67 454.792 268.438 454.278 266.917 454.278C265.397 454.278 264.165 454.792 264.165 455.426C264.165 456.06 265.397 456.574 266.917 456.574Z" fill="#FAF5EE" stroke="#FAF5EE" stroke-width="0.687402" stroke-miterlimit="10" stroke-linecap="round" stroke-linejoin="round"/>
<path d="M210.387 466.903C211.908 466.903 213.14 466.388 213.14 465.754C213.14 465.12 211.908 464.606 210.387 464.606C208.867 464.606 207.634 465.12 207.634 465.754C207.634 466.388 208.867 466.903 210.387 466.903Z" fill="#FAF5EE" stroke="#FAF5EE" stroke-width="0.687402" stroke-miterlimit="10" stroke-linecap="round" stroke-linejoin="round"/>
<path d="M66.9126 385.878C68.433 385.878 69.6655 385.364 69.6655 384.73C69.6655 384.096 68.433 383.582 66.9126 383.582C65.3922 383.582 64.1597 384.096 64.1597 384.73C64.1597 385.364 65.3922 385.878 66.9126 385.878Z" fill="#FAF5EE" stroke="#FAF5EE" stroke-width="0.687402" stroke-miterlimit="10" stroke-linecap="round" stroke-linejoin="round"/>
<path d="M76.793 390.492C78.3133 390.492 79.5459 389.978 79.5459 389.344C79.5459 388.71 78.3133 388.196 76.793 388.196C75.2726 388.196 74.04 388.71 74.04 389.344C74.04 389.978 75.2726 390.492 76.793 390.492Z" fill="#FAF5EE" stroke="#FAF5EE" stroke-width="0.687402" stroke-miterlimit="10" stroke-linecap="round" stroke-linejoin="round"/>
<path d="M83.186 384.73C84.7064 384.73 85.9389 384.216 85.9389 383.582C85.9389 382.948 84.7064 382.434 83.186 382.434C81.6656 382.434 80.4331 382.948 80.4331 383.582C80.4331 384.216 81.6656 384.73 83.186 384.73Z" fill="#FAF5EE" stroke="#FAF5EE" stroke-width="0.687402" stroke-miterlimit="10" stroke-linecap="round" stroke-linejoin="round"/>
<path d="M105.166 366.939C106.687 366.939 107.919 366.425 107.919 365.791C107.919 365.157 106.687 364.643 105.166 364.643C103.646 364.643 102.414 365.157 102.414 365.791C102.414 366.425 103.646 366.939 105.166 366.939Z" fill="#FAF5EE" stroke="#FAF5EE" stroke-width="0.687402" stroke-miterlimit="10" stroke-linecap="round" stroke-linejoin="round"/>
<path d="M341.311 393.355L339.549 410.948C339.02 416.068 343.042 420.521 348.195 420.521H352.031C356.105 420.521 360.076 419.241 363.38 416.861L394.527 394.434C397.121 392.567 397.082 388.697 394.45 386.881L393.609 386.301C390.906 384.437 387.591 383.677 384.345 384.179L358.469 388.183L341.311 393.355Z" fill="white" stroke="#2D2330" stroke-width="0.687402" stroke-miterlimit="10" stroke-linecap="round" stroke-linejoin="round"/>
<path d="M343.268 395.947L360.889 391.86L326.706 318.91C322.481 310.113 310.151 304.22 299.195 313.942C292.128 320.215 292.645 331.486 299.493 337.997L343.268 395.947Z" fill="white"/>
<path d="M360.355 390.72L326.706 318.91C322.481 310.113 310.151 304.22 299.195 313.942C292.128 320.215 292.645 331.486 299.493 337.997L341.31 393.354L341.198 394.478" stroke="#2D2330" stroke-width="0.687402" stroke-miterlimit="10" stroke-linecap="round" stroke-linejoin="round"/>
<path d="M316.884 309.926C307.997 306.846 298.171 311.922 294.867 320.719L266.433 396.432C262.612 406.606 267.932 417.925 278.208 421.486C288.484 425.048 299.68 419.454 302.989 409.103L327.614 332.069C330.475 323.119 325.769 313.007 316.884 309.926Z" fill="white"/>
<path d="M325.884 337.479L302.988 409.104C299.68 419.455 288.483 425.049 278.207 421.488C267.931 417.926 262.611 406.606 266.432 396.434L294.866 320.721C298.17 311.923 307.996 306.846 316.883 309.927C321.777 311.623 325.403 315.454 327.195 320.048L328.754 323.281" stroke="#2D2330" stroke-width="0.687402" stroke-miterlimit="10" stroke-linecap="round" stroke-linejoin="round"/>
<path d="M396.318 393.716L394.538 410.948C394.008 416.068 398.03 420.521 403.183 420.521H407.019C411.093 420.521 415.064 419.241 418.368 416.861L449.515 394.433C452.109 392.566 452.07 388.697 449.438 386.881L448.597 386.301C445.894 384.436 442.58 383.677 439.333 384.179L413.458 388.182L396.318 393.716Z" fill="white" stroke="#2D2330" stroke-width="0.687402" stroke-miterlimit="10" stroke-linecap="round" stroke-linejoin="round"/>
<path d="M403.872 405.27L421.275 402.222L368.749 316.048C363.194 308.291 352.297 306.703 344.753 312.55C337.286 318.339 336.058 329.139 342.037 336.453L403.872 405.27Z" fill="white"/>
<path d="M415.03 391.977L368.749 316.048C363.194 308.291 352.297 306.703 344.753 312.55C337.286 318.339 336.058 329.139 342.037 336.453L396.025 396.537L395.85 398.227" stroke="#2D2330" stroke-width="0.687402" stroke-miterlimit="10" stroke-linecap="round" stroke-linejoin="round"/>
<path d="M360.546 309.926C351.659 306.846 341.833 311.922 338.529 320.719L310.095 396.432C306.275 406.606 311.594 417.924 321.87 421.486C332.146 425.048 343.343 419.454 346.651 409.103L371.276 332.069C374.137 323.119 369.433 313.007 360.546 309.926Z" fill="white"/>
<path d="M368.629 340.35L346.65 409.104C343.34 419.455 332.145 425.049 321.869 421.487C311.593 417.926 306.274 406.606 310.094 396.434L338.528 320.721C341.832 311.923 351.658 306.846 360.545 309.927C364.434 311.274 367.521 313.969 369.525 317.323L372.279 321.842" stroke="#2D2330" stroke-width="0.687402" stroke-miterlimit="10" stroke-linecap="round" stroke-linejoin="round"/>
<path d="M313.499 440.921L222.115 440.606C213.972 440.578 207.386 433.976 207.386 425.842V406.852C207.386 397.925 213.665 390.227 222.417 388.423L238.315 385.147C247.657 383.222 257.38 385.224 265.198 390.682L267.887 392.56L285.427 390.265L309.562 388.442L346.6 409.257C346.6 409.257 347.229 420.079 337.986 430.561C327.723 442.197 313.499 440.921 313.499 440.921Z" fill="#2D2330" stroke="#2D2330" stroke-width="0.687402" stroke-miterlimit="10" stroke-linecap="round" stroke-linejoin="round"/>
<path d="M299.214 435.976C298.55 442.095 293.045 446.518 286.918 445.855L230.562 441.07C224.436 440.406 220.009 434.907 220.673 428.787C221.337 422.668 226.842 418.245 232.969 418.908L289.325 423.694C295.45 424.359 299.878 429.857 299.214 435.976Z" fill="white" stroke="#2D2330" stroke-width="0.687402" stroke-miterlimit="10" stroke-linecap="round" stroke-linejoin="round"/>
<path d="M94.6636 413.31C94.5626 419.464 99.4742 424.536 105.636 424.637L162.151 426.88C168.312 426.98 173.389 422.074 173.49 415.919C173.591 409.765 168.68 404.693 162.518 404.592L106.003 402.349C99.842 402.248 94.7647 407.156 94.6636 413.31Z" fill="white" stroke="#2D2330" stroke-width="0.687402" stroke-miterlimit="10" stroke-linecap="round" stroke-linejoin="round"/>
<path d="M252.202 421.246C277.308 395.046 274.455 351.618 245.829 324.247C217.204 296.876 173.646 295.925 148.54 322.125C123.434 348.324 126.288 391.752 154.913 419.124C183.539 446.495 227.096 447.445 252.202 421.246Z" fill="white" stroke="#2D2330" stroke-width="0.687402" stroke-miterlimit="10" stroke-linecap="round" stroke-linejoin="round"/>
<path d="M250.152 423.238C275.258 397.039 272.405 353.611 243.78 326.239C215.154 298.868 171.596 297.918 146.49 324.117C121.385 350.317 124.238 393.744 152.863 421.116C181.489 448.487 225.047 449.438 250.152 423.238Z" fill="white" stroke="#2D2330" stroke-width="0.687402" stroke-miterlimit="10" stroke-linecap="round" stroke-linejoin="round"/>
<path d="M213.846 397.696C224.276 386.811 223.091 368.769 211.199 357.398C199.307 346.026 181.21 345.632 170.779 356.517C160.349 367.402 161.534 385.444 173.426 396.816C185.319 408.187 203.415 408.581 213.846 397.696Z" fill="#2D2330" stroke="#2D2330" stroke-width="0.687402" stroke-miterlimit="10" stroke-linecap="round" stroke-linejoin="round"/>
<path d="M209.768 400.921C220.198 390.036 219.013 371.994 207.121 360.623C195.228 349.251 177.132 348.857 166.701 359.742C156.271 370.627 157.456 388.669 169.348 400.041C181.241 411.412 199.337 411.806 209.768 400.921Z" fill="white" stroke="#2D2330" stroke-width="0.687402" stroke-miterlimit="10" stroke-linecap="round" stroke-linejoin="round"/>
<path d="M226.129 408.065C228.672 402.457 235.283 399.971 240.896 402.511L292.944 424.62C298.557 427.16 301.047 433.763 298.504 439.371C295.961 444.978 289.351 447.464 283.737 444.925L231.689 422.816C226.075 420.276 223.587 413.672 226.129 408.065Z" fill="white"/>
<path d="M270.886 439.466L231.689 422.816C226.077 420.276 223.586 413.672 226.129 408.065C228.672 402.457 235.283 399.971 240.896 402.511L292.944 424.62C298.557 427.16 301.047 433.763 298.504 439.371C296.386 444.043 291.442 446.548 286.606 445.785L284.031 445.61" stroke="#2D2330" stroke-width="0.687402" stroke-miterlimit="10" stroke-linecap="round" stroke-linejoin="round"/>
<path d="M237.782 422.557L241.446 414.028C244.383 407.188 241.215 399.266 234.369 396.331L222.775 391.362L211.312 418.048L220.39 422.354L217.091 425.978L220.067 429.628C226.913 432.563 234.845 429.397 237.782 422.557Z" fill="white"/>
<path d="M242.501 407.658C242.117 402.831 239.133 398.373 234.369 396.331L222.775 391.362" stroke="#2D2330" stroke-width="0.687402" stroke-miterlimit="10" stroke-linecap="round" stroke-linejoin="round"/>
<path d="M220.067 429.627C226.914 432.561 234.845 429.397 237.783 422.557" stroke="#2D2330" stroke-width="0.687402" stroke-miterlimit="10" stroke-linecap="round" stroke-linejoin="round"/>
<path d="M211.312 418.048L220.39 422.354" stroke="#2D2330" stroke-width="0.687402" stroke-miterlimit="10" stroke-linecap="round" stroke-linejoin="round"/>
<path d="M220.39 429.6V422.354H203.608C201.604 422.354 199.98 423.976 199.98 425.978C199.98 427.979 201.604 429.601 203.608 429.601H220.39V429.6Z" fill="white"/>
<path d="M220.39 422.354H203.608C201.604 422.354 199.98 423.976 199.98 425.978C199.98 427.979 201.604 429.601 203.608 429.601H220.045C220.045 429.601 220.899 429.975 221.419 430.125" stroke="#2D2330" stroke-width="0.687402" stroke-miterlimit="10" stroke-linecap="round" stroke-linejoin="round"/>
<path d="M219.914 398.022L222.774 391.363L210.384 386.053C208.544 385.264 206.411 386.115 205.621 387.954C204.831 389.792 205.683 391.923 207.524 392.712L219.914 398.022Z" fill="white"/>
<path d="M222.774 391.362L210.384 386.052C208.544 385.263 206.411 386.114 205.621 387.952C204.831 389.791 205.683 391.922 207.524 392.711L219.914 398.021" stroke="#2D2330" stroke-width="0.687402" stroke-miterlimit="10" stroke-linecap="round" stroke-linejoin="round"/>
<path d="M217.054 404.681L219.915 398.022L201.812 390.262C199.971 389.473 197.838 390.324 197.048 392.163C196.259 394.001 197.11 396.132 198.951 396.921L217.054 404.681Z" fill="white"/>
<path d="M219.914 398.022L201.811 390.262C199.97 389.473 197.837 390.324 197.047 392.163C196.258 394.001 197.109 396.132 198.95 396.921L217.053 404.681" stroke="#2D2330" stroke-width="0.687402" stroke-miterlimit="10" stroke-linecap="round" stroke-linejoin="round"/>
<path d="M214.194 411.34L217.054 404.681L196.401 395.828C194.561 395.039 192.428 395.89 191.638 397.729C190.848 399.567 191.7 401.698 193.541 402.487L214.194 411.34Z" fill="white"/>
<path d="M217.054 404.681L196.401 395.828C194.561 395.039 192.428 395.89 191.638 397.729C190.848 399.567 191.7 401.698 193.541 402.487L214.194 411.34" stroke="#2D2330" stroke-width="0.687402" stroke-miterlimit="10" stroke-linecap="round" stroke-linejoin="round"/>
<path d="M212.022 418.26L214.083 411.312L195.194 405.723C193.274 405.155 191.255 406.249 190.686 408.167C190.118 410.085 191.213 412.102 193.133 412.67L212.022 418.26Z" fill="white"/>
<path d="M214.083 411.312L195.194 405.723C193.274 405.155 191.255 406.249 190.686 408.167C190.118 410.085 191.213 412.102 193.133 412.67L212.022 418.258" stroke="#2D2330" stroke-width="0.687402" stroke-miterlimit="10" stroke-linecap="round" stroke-linejoin="round"/>
<path d="M153.637 399.605C151.875 393.707 145.66 390.351 139.755 392.112L102.632 402.847C96.7273 404.607 93.3694 410.816 95.1306 416.714C96.8931 422.613 103.108 425.968 109.012 424.208L146.136 413.472C152.04 411.711 155.398 405.503 153.637 399.605Z" fill="white"/>
<path d="M116.159 422.142L146.136 413.472C152.04 411.712 155.398 405.503 153.637 399.605C151.875 393.707 145.66 390.351 139.755 392.112L102.632 402.847C96.7273 404.607 93.3694 410.816 95.1306 416.714C96.6721 421.875 101.623 425.089 106.793 424.633L110.225 424.82" stroke="#2D2330" stroke-width="0.687402" stroke-miterlimit="10" stroke-linecap="round" stroke-linejoin="round"/>
<path d="M138.564 411.075L134.9 402.545C131.963 395.706 135.131 387.783 141.977 384.848L153.571 379.879L165.034 406.565L155.956 410.871L159.255 414.495L156.279 418.145C149.433 421.08 141.502 417.914 138.564 411.075Z" fill="white"/>
<path d="M133.845 396.175C134.229 391.348 137.213 386.89 141.977 384.848L153.571 379.879" stroke="#2D2330" stroke-width="0.687402" stroke-miterlimit="10" stroke-linecap="round" stroke-linejoin="round"/>
<path d="M156.279 418.144C149.433 421.078 141.501 417.914 138.564 411.074" stroke="#2D2330" stroke-width="0.687402" stroke-miterlimit="10" stroke-linecap="round" stroke-linejoin="round"/>
<path d="M165.034 406.565L155.956 410.871" stroke="#2D2330" stroke-width="0.687402" stroke-miterlimit="10" stroke-linecap="round" stroke-linejoin="round"/>
<path d="M155.956 418.117V410.871H172.738C174.741 410.871 176.365 412.493 176.365 414.495C176.365 416.496 174.741 418.118 172.738 418.118H155.956V418.117Z" fill="white"/>
<path d="M155.956 410.871H172.737C174.741 410.871 176.365 412.493 176.365 414.495C176.365 416.496 174.741 418.118 172.737 418.118H156.301C156.301 418.118 155.446 418.492 154.926 418.642" stroke="#2D2330" stroke-width="0.687402" stroke-miterlimit="10" stroke-linecap="round" stroke-linejoin="round"/>
<path d="M156.431 386.539L153.57 379.88L165.96 374.57C167.801 373.782 169.934 374.632 170.723 376.471C171.513 378.31 170.661 380.44 168.821 381.229L156.431 386.539Z" fill="white"/>
<path d="M153.57 379.879L165.96 374.569C167.801 373.78 169.934 374.631 170.723 376.469C171.513 378.308 170.661 380.439 168.821 381.228L156.431 386.538" stroke="#2D2330" stroke-width="0.687402" stroke-miterlimit="10" stroke-linecap="round" stroke-linejoin="round"/>
<path d="M159.289 393.198L156.429 386.539L174.532 378.779C176.373 377.99 178.506 378.841 179.296 380.68C180.085 382.518 179.234 384.649 177.393 385.438L159.289 393.198Z" fill="white"/>
<path d="M156.43 386.539L174.534 378.779C176.374 377.99 178.507 378.841 179.297 380.68C180.087 382.518 179.235 384.649 177.394 385.438L159.291 393.198" stroke="#2D2330" stroke-width="0.687402" stroke-miterlimit="10" stroke-linecap="round" stroke-linejoin="round"/>
<path d="M162.152 399.857L159.291 393.198L179.944 384.345C181.785 383.556 183.918 384.407 184.707 386.245C185.497 388.084 184.645 390.215 182.805 391.004L162.152 399.857Z" fill="white"/>
<path d="M159.291 393.198L179.944 384.345C181.785 383.556 183.918 384.407 184.707 386.245C185.497 388.084 184.645 390.215 182.805 391.004L162.152 399.857" stroke="#2D2330" stroke-width="0.687402" stroke-miterlimit="10" stroke-linecap="round" stroke-linejoin="round"/>
<path d="M164.322 406.777L162.262 399.828L181.151 394.24C183.071 393.672 185.09 394.766 185.658 396.684C186.227 398.602 185.131 400.619 183.211 401.187L164.322 406.777Z" fill="white"/>
<path d="M162.262 399.828L181.151 394.24C183.071 393.672 185.09 394.766 185.658 396.684C186.227 398.602 185.131 400.619 183.211 401.187L164.322 406.775" stroke="#2D2330" stroke-width="0.687402" stroke-miterlimit="10" stroke-linecap="round" stroke-linejoin="round"/>
<path d="M341.495 198.97V281.785" stroke="#FAF5EE" stroke-width="0.687402" stroke-miterlimit="10" stroke-linecap="round" stroke-linejoin="round"/>
<path d="M341.495 270.166V277.081" stroke="white" stroke-width="0.687402" stroke-miterlimit="10" stroke-linecap="round" stroke-linejoin="round"/>
<path d="M374.933 198.97V281.785" stroke="#FAF5EE" stroke-width="0.687402" stroke-miterlimit="10" stroke-linecap="round" stroke-linejoin="round"/>
<path d="M374.933 270.088V275.117" stroke="white" stroke-width="0.687402" stroke-miterlimit="10" stroke-linecap="round" stroke-linejoin="round"/>
<path d="M341.495 204.356L312.43 262.604L341.495 270.427V204.356Z" fill="white" stroke="#FAF5EE" stroke-width="0.687402" stroke-miterlimit="10" stroke-linecap="round" stroke-linejoin="round"/>
<path d="M374.933 204.356L345.868 262.604L374.933 270.427V204.356Z" fill="white" stroke="#FAF5EE" stroke-width="0.687402" stroke-miterlimit="10" stroke-linecap="round" stroke-linejoin="round"/>
<path d="M388.451 290.654H312.965L307.313 278.835L401.582 272.917L388.451 290.654Z" fill="white" stroke="#FAF5EE" stroke-width="0.687402" stroke-miterlimit="10" stroke-linecap="round" stroke-linejoin="round"/>
<path d="M301.011 287.503C304.6 285.018 309.356 285.018 312.945 287.503L313.847 288.128C317.435 290.612 322.192 290.612 325.782 288.128L326.683 287.503C330.271 285.018 335.028 285.018 338.618 287.503L339.519 288.128C343.108 290.612 347.864 290.612 351.454 288.128L352.355 287.503C355.944 285.018 360.7 285.018 364.29 287.503L365.192 288.128C368.781 290.612 373.537 290.612 377.126 288.128L378.028 287.503C381.617 285.018 386.373 285.018 389.962 287.503L390.864 288.128C394.454 290.612 399.209 290.612 402.799 288.128V297.239H301.015V287.503H301.011Z" fill="#2D2330"/>
<path d="M402.795 288.128C399.205 290.612 394.45 290.612 390.86 288.128L389.959 287.503C386.37 285.018 381.614 285.018 378.024 287.503L377.122 288.128C373.533 290.612 368.777 290.612 365.188 288.128L364.286 287.503C360.698 285.018 355.941 285.018 352.352 287.503L351.45 288.128C347.86 290.612 343.105 290.612 339.515 288.128L338.614 287.503C335.026 285.018 330.269 285.018 326.679 287.503L325.778 288.128C322.189 290.612 317.433 290.612 313.843 288.128L312.942 287.503C309.352 285.018 304.597 285.018 301.007 287.503" stroke="#FAF5EE" stroke-width="0.687402" stroke-miterlimit="10" stroke-linecap="round" stroke-linejoin="round"/>
<path d="M90.5059 201.26V253.564" stroke="#FAF5EE" stroke-width="0.687402" stroke-miterlimit="10" stroke-linecap="round" stroke-linejoin="round"/>
<path d="M90.5059 250.249V246.163" stroke="white" stroke-width="0.687402" stroke-miterlimit="10" stroke-linecap="round" stroke-linejoin="round"/>
<path d="M90.5062 204.662L72.1494 246.39H90.5062V204.662Z" fill="white" stroke="#FAF5EE" stroke-width="0.687402" stroke-miterlimit="10" stroke-linecap="round" stroke-linejoin="round"/>
<path d="M90.5059 208.234L102.74 246.39H90.5059V208.234Z" fill="white" stroke="#FAF5EE" stroke-width="0.687402" stroke-miterlimit="10" stroke-linecap="round" stroke-linejoin="round"/>
<path d="M112.72 259.165H65.6437L62.0742 251.701L121.613 247.964L112.72 259.165Z" fill="white" stroke="#FAF5EE" stroke-width="0.687402" stroke-miterlimit="10" stroke-linecap="round" stroke-linejoin="round"/>
<path d="M57.8345 256.761C60.1387 255.166 63.1921 255.166 65.4963 256.761L66.0757 257.162C68.3799 258.757 71.4333 258.757 73.7375 257.162L74.3169 256.761C76.6211 255.166 79.6746 255.166 81.9788 256.761L82.5582 257.162C84.8624 258.757 87.9158 258.757 90.22 257.162L90.7994 256.761C93.1036 255.166 96.157 255.166 98.4612 256.761L99.0406 257.162C101.345 258.757 104.398 258.757 106.702 257.162L107.282 256.761C109.586 255.166 112.639 255.166 114.944 256.761L115.523 257.162C117.827 258.757 120.881 258.757 123.185 257.162V263.011H57.8345V256.761Z" fill="#2D2330"/>
<path d="M123.179 257.162C120.875 258.757 117.821 258.757 115.517 257.162L114.938 256.761C112.634 255.166 109.58 255.166 107.276 256.761L106.697 257.162C104.392 258.757 101.339 258.757 99.0348 257.162L98.4554 256.761C96.1512 255.166 93.0977 255.166 90.7935 256.761L90.2141 257.162C87.9099 258.757 84.8565 258.757 82.5523 257.162L81.9729 256.761C79.6687 255.166 76.6153 255.166 74.3111 256.761L73.7317 257.162C71.4275 258.757 68.3741 258.757 66.0698 257.162L65.4904 256.761C63.1862 255.166 60.1328 255.166 57.8286 256.761" stroke="#FAF5EE" stroke-width="0.687402" stroke-miterlimit="10" stroke-linecap="round" stroke-linejoin="round"/>
<path d="M262.391 18.1673C262.391 18.1673 259.222 9.58365 248.985 13.2233C248.985 13.2233 242.245 3.73918 229.571 9.58365C229.571 9.58365 224.422 1 208.852 1C193.653 1 187.56 13.2233 187.56 13.2233C187.56 13.2233 173.18 9.03716 171.716 18.1673H262.391Z" fill="#FAF5EE" stroke="white" stroke-width="0.687402" stroke-miterlimit="10" stroke-linecap="round" stroke-linejoin="round"/>
<path d="M402.904 98.15C402.904 98.15 399.735 89.5663 389.498 93.206C389.498 93.206 382.757 83.7218 370.083 89.5663C370.083 89.5663 364.934 80.9827 349.365 80.9827C334.167 80.9827 328.074 93.206 328.074 93.206C328.074 93.206 313.693 89.0198 312.23 98.15H402.904Z" fill="#FAF5EE" stroke="white" stroke-width="0.687402" stroke-miterlimit="10" stroke-linecap="round" stroke-linejoin="round"/>
<path d="M532.549 145.483C532.549 145.483 530.545 140.053 524.069 142.356C524.069 142.356 519.806 136.357 511.789 140.053C511.789 140.053 508.533 134.623 498.684 134.623C489.071 134.623 485.216 142.355 485.216 142.355C485.216 142.355 476.119 139.707 475.194 145.482H532.549V145.483Z" fill="#FAF5EE" stroke="white" stroke-width="0.687402" stroke-miterlimit="10" stroke-linecap="round" stroke-linejoin="round"/>
<path d="M88.8031 140.055C88.8031 140.055 85.6339 131.471 75.397 135.111C75.397 135.111 68.6569 125.627 55.9824 131.471C55.9824 131.471 50.8336 122.887 35.2648 122.887C30.6941 122.887 26.9521 123.996 23.9459 125.543C21.9044 130.315 19.987 135.152 18.2002 140.055H88.8031Z" fill="#FAF5EE" stroke="white" stroke-width="0.687402" stroke-miterlimit="10" stroke-linecap="round" stroke-linejoin="round"/>
<path d="M50.3071 193.965L53.1786 161.182L137.731 53.809H183.152L173.955 158.806H193.456L190.377 193.965H170.876L168.171 224.845H127.506L130.21 193.963H50.3071V193.965ZM141.428 98.4677L96.1918 158.806H136.143L141.428 98.4677Z" fill="#FF5956"/>
<path d="M236.899 71.3868C248.814 55.7082 266.504 47.8689 289.969 47.8689C313.43 47.8689 329.747 55.7082 338.919 71.3868C348.087 87.0654 351.48 108.527 349.095 135.764C346.682 163.32 339.516 184.937 327.601 200.615C315.683 216.294 297.993 224.133 274.532 224.133C251.067 224.133 234.75 216.294 225.582 200.615C216.41 184.937 213.034 163.32 215.447 135.764C217.831 108.527 224.981 87.0654 236.899 71.3868ZM307.147 98.8243C304.414 90.1949 297.579 85.8782 286.641 85.8782C275.702 85.8782 268.107 90.1949 263.867 98.8243C259.621 107.458 256.8 119.77 255.399 135.764C254.456 146.534 254.308 155.444 254.961 162.488C255.611 169.537 257.687 175.237 261.192 179.592C264.693 183.949 270.251 186.124 277.86 186.124C285.471 186.124 291.405 183.949 295.674 179.592C299.939 175.237 303.013 169.537 304.9 162.488C306.784 155.443 308.2 146.534 309.144 135.764C310.544 119.77 309.875 107.458 307.147 98.8243Z" stroke="#FF5956" stroke-width="4" stroke-miterlimit="10" stroke-linecap="round" stroke-linejoin="round"/>
<path d="M366.35 193.965L369.222 161.182L453.774 53.809H499.195L489.998 158.806H509.499L506.42 193.965H486.919L484.213 224.845H443.548L446.252 193.963H366.35V193.965ZM457.471 98.4677L412.235 158.806H452.186L457.471 98.4677Z" fill="#FF5956"/>
</svg>
