<svg xmlns="http://www.w3.org/2000/svg" width="50" height="50" viewBox="0 0 50 50" fill="none">
<path d="M10.4374 33.5937C12.6329 35.4828 15.2929 36.7518 18.1426 37.2695C20.9924 37.7873 23.9287 37.5351 26.6484 36.539C26.7723 36.4949 26.8832 36.4202 26.9706 36.3219C27.058 36.2236 27.1191 36.1047 27.1484 35.9765C27.1776 35.8474 27.1736 35.713 27.1367 35.5859C27.0998 35.4589 27.0313 35.3432 26.9374 35.2499L21.5468 29.8671C21.4362 29.7497 21.292 29.6694 21.1339 29.6372C20.9759 29.605 20.8117 29.6226 20.664 29.6874C18.6158 30.7168 16.3548 31.2519 14.0624 31.2499C13.3112 31.2416 12.5616 31.1763 11.8203 31.0546C12.1731 28.0114 13.4678 25.1543 15.5234 22.8827L18.4843 25.8358C18.6298 25.9802 18.8262 26.0615 19.0312 26.0624C19.134 26.063 19.2359 26.0433 19.3311 26.0044C19.4263 25.9655 19.5129 25.9082 19.5859 25.8358C20.553 24.8743 21.1222 23.5837 21.1801 22.2212C21.238 20.8587 20.7804 19.5244 19.8984 18.4843C19.8356 18.3972 19.7556 18.324 19.6633 18.2693C19.571 18.2145 19.4684 18.1793 19.3619 18.166C19.2554 18.1526 19.1473 18.1614 19.0443 18.1916C18.9413 18.2219 18.8457 18.2731 18.7634 18.342C18.681 18.4108 18.6138 18.4959 18.5658 18.5919C18.5178 18.6879 18.4902 18.7928 18.4845 18.9C18.4788 19.0072 18.4953 19.1144 18.5329 19.2149C18.5705 19.3154 18.6285 19.4071 18.7031 19.4843C19.2398 20.1265 19.556 20.924 19.6052 21.7595C19.6545 22.595 19.4341 23.4241 18.9765 24.1249L16.6328 21.7812C16.8828 21.5546 17.1328 21.3437 17.414 21.1327C17.5767 20.9991 17.6796 20.8063 17.7001 20.5968C17.7206 20.3873 17.657 20.1782 17.5234 20.0155C17.3897 19.8529 17.197 19.75 16.9874 19.7295C16.7779 19.709 16.5688 19.7725 16.4062 19.9062C15.9061 20.3063 15.4288 20.734 14.9765 21.1874H14.9374C14.9374 21.1874 14.9374 21.1874 14.9374 21.2343C12.2706 23.9035 10.6137 27.4162 10.2499 31.1718C8.40275 29.177 7.13889 26.7132 6.59624 24.0492C6.05358 21.3852 6.25299 18.6233 7.1727 16.0649C8.09241 13.5065 9.69709 11.2498 11.8117 9.54102C13.9263 7.83225 16.4695 6.73705 19.164 6.3749L19.5312 6.33584C19.5409 8.02546 19.9177 9.69279 20.6353 11.2225C21.3529 12.7522 22.3943 14.1077 23.6874 15.1952C23.829 15.3162 24.0091 15.3827 24.1953 15.3827C24.3087 15.3818 24.4206 15.3561 24.5231 15.3075C24.6257 15.259 24.7164 15.1886 24.789 15.1015C24.8552 15.023 24.9054 14.9323 24.9365 14.8344C24.9676 14.7366 24.9792 14.6336 24.9705 14.5312C24.9618 14.4289 24.933 14.3294 24.8858 14.2382C24.8385 14.147 24.7738 14.066 24.6953 13.9999C23.5654 13.0495 22.6575 11.8631 22.0353 10.5242C21.4131 9.18527 21.0917 7.72633 21.0937 6.2499C23.6188 6.25329 26.1013 6.90079 28.3064 8.13116C30.5115 9.36152 32.3663 11.1341 33.6953 13.2812L28.5703 15.9765C27.9463 16.2819 27.2568 16.4295 26.5624 16.4062C25.0324 16.4043 23.5098 16.6173 22.039 17.039C21.8498 17.1041 21.6929 17.2394 21.6005 17.4168C21.5081 17.5943 21.4873 17.8004 21.5424 17.9928C21.5975 18.1851 21.7243 18.349 21.8966 18.4506C22.069 18.5522 22.2737 18.5839 22.4687 18.539C23.8006 18.1617 25.1781 17.9698 26.5624 17.9687C27.5048 17.9793 28.4355 17.7593 29.2734 17.328L35.1562 14.2499C35.2473 14.2015 35.328 14.1355 35.3934 14.0558C35.4589 13.9761 35.508 13.8842 35.5378 13.7854C35.5676 13.6866 35.5775 13.5829 35.567 13.4803C35.5564 13.3776 35.5257 13.2781 35.4765 13.1874C34.0116 10.5023 31.8225 8.28225 29.1584 6.77961C26.4942 5.27697 23.4619 4.55209 20.4062 4.6874C19.9999 4.6874 19.5859 4.73428 19.1718 4.78115L17.3749 2.04678C17.2931 1.91845 17.1756 1.81681 17.0368 1.75436C16.898 1.6919 16.744 1.67135 16.5937 1.69521C13.5925 2.09551 10.7606 3.31852 8.41149 5.22885C6.0624 7.13918 4.28778 9.66231 3.28409 12.5189C2.2804 15.3755 2.08679 18.4541 2.7247 21.414C3.3626 24.3738 4.80714 27.0994 6.89838 29.289C7.82396 30.9152 9.02091 32.3711 10.4374 33.5937ZM20.8515 31.328L24.9374 35.4218C22.6815 36.0251 20.3151 36.0877 18.0304 35.6044C15.7458 35.1212 13.6074 34.1057 11.789 32.6405C14.8732 33.105 18.0258 32.6484 20.8515 31.328ZM4.02338 16.0702C4.44532 12.908 5.86805 9.96382 8.08345 7.66829C10.2989 5.37277 13.1907 3.84637 16.3359 3.3124L17.4843 5.08584C14.2091 5.84248 11.2424 7.5796 8.9798 10.0656C6.71718 12.5515 5.26617 15.6681 4.82026 18.9999C4.65229 20.3384 4.65229 21.6927 4.82026 23.0312C4.00299 20.8077 3.72975 18.4209 4.02338 16.0702Z" fill="#CB4845"/>
<path d="M25.7812 10.1562C26.2127 10.1562 26.5625 9.80647 26.5625 9.375C26.5625 8.94353 26.2127 8.59375 25.7812 8.59375C25.3498 8.59375 25 8.94353 25 9.375C25 9.80647 25.3498 10.1562 25.7812 10.1562Z" fill="#CB4845"/>
<path d="M39.8438 14.7344V26.5625C39.8438 27.8057 39.3499 28.998 38.4708 29.8771C37.5917 30.7561 36.3995 31.25 35.1562 31.25C33.913 31.25 32.7208 30.7561 31.8417 29.8771C30.9626 28.998 30.4688 27.8057 30.4688 26.5625V24.2188L32.3438 25.625C32.5095 25.7493 32.7179 25.8027 32.923 25.7734C33.1281 25.7441 33.3132 25.6345 33.4375 25.4687C33.5618 25.303 33.6152 25.0946 33.5859 24.8895C33.5566 24.6844 33.447 24.4993 33.2812 24.375L30.1562 22.0312C30.0396 21.9443 29.901 21.8917 29.7561 21.8793C29.6112 21.8668 29.4657 21.8951 29.3359 21.9609C29.2071 22.0259 29.0988 22.1252 29.0229 22.2479C28.9471 22.3706 28.9067 22.512 28.9062 22.6562V26.5625C28.9062 28.2201 29.5647 29.8098 30.7368 30.9819C31.9089 32.154 33.4986 32.8125 35.1562 32.8125C36.8139 32.8125 38.4036 32.154 39.5757 30.9819C40.7478 29.8098 41.4062 28.2201 41.4062 26.5625V14.7344C42.0683 14.5545 42.6527 14.1617 43.0693 13.6167C43.486 13.0717 43.7117 12.4048 43.7117 11.7188C43.7117 11.0327 43.486 10.3658 43.0693 9.82078C42.6527 9.27578 42.0683 8.88303 41.4062 8.70313V2.34375C41.4062 2.13655 41.3239 1.93784 41.1774 1.79132C41.0309 1.64481 40.8322 1.5625 40.625 1.5625C40.4178 1.5625 40.2191 1.64481 40.0726 1.79132C39.9261 1.93784 39.8438 2.13655 39.8438 2.34375V8.70313C39.1817 8.88303 38.5973 9.27578 38.1807 9.82078C37.764 10.3658 37.5383 11.0327 37.5383 11.7188C37.5383 12.4048 37.764 13.0717 38.1807 13.6167C38.5973 14.1617 39.1817 14.5545 39.8438 14.7344ZM40.625 10.1562C40.934 10.1562 41.2361 10.2479 41.4931 10.4196C41.75 10.5913 41.9503 10.8353 42.0686 11.1208C42.1868 11.4063 42.2178 11.7205 42.1575 12.0236C42.0972 12.3267 41.9484 12.6051 41.7299 12.8236C41.5113 13.0421 41.2329 13.1909 40.9298 13.2512C40.6267 13.3115 40.3126 13.2806 40.0271 13.1623C39.7415 13.0441 39.4975 12.8438 39.3258 12.5868C39.1541 12.3299 39.0625 12.0278 39.0625 11.7188C39.0625 11.3043 39.2271 10.9069 39.5201 10.6139C39.8132 10.3209 40.2106 10.1562 40.625 10.1562Z" fill="#CB4845"/>
<path d="M15.8048 10.4063C15.6019 10.3722 15.3937 10.4196 15.2255 10.538C15.0573 10.6565 14.9426 10.8366 14.9064 11.0391C14.7269 12.0584 14.9593 13.1073 15.5525 13.9555C16.1458 14.8036 17.0514 15.3816 18.0704 15.5626H18.211C18.4182 15.5802 18.624 15.5147 18.7829 15.3807C18.9419 15.2466 19.0411 15.0549 19.0587 14.8477C19.0763 14.6405 19.0109 14.4348 18.8768 14.2758C18.7428 14.1169 18.5511 14.0177 18.3439 14.0001C17.7307 13.9003 17.1822 13.5613 16.8189 13.0573C16.4556 12.5534 16.3072 11.9258 16.4064 11.3126C16.4435 11.1129 16.4015 10.9067 16.2892 10.7375C16.1769 10.5684 16.0032 10.4496 15.8048 10.4063Z" fill="#CB4845"/>
<path d="M14.4531 17.1875C14.4531 16.9803 14.3708 16.7816 14.2243 16.6351C14.0778 16.4886 13.8791 16.4062 13.6719 16.4062C13.1539 16.4062 12.6571 16.2005 12.2908 15.8342C11.9245 15.4679 11.7188 14.9711 11.7188 14.4531C11.7188 14.2459 11.6364 14.0472 11.4899 13.9007C11.3434 13.7542 11.1447 13.6719 10.9375 13.6719C10.7303 13.6719 10.5316 13.7542 10.3851 13.9007C10.2386 14.0472 10.1562 14.2459 10.1562 14.4531C10.1583 15.3849 10.5294 16.2779 11.1882 16.9368C11.8471 17.5956 12.7401 17.9667 13.6719 17.9688C13.8791 17.9688 14.0778 17.8864 14.2243 17.7399C14.3708 17.5934 14.4531 17.3947 14.4531 17.1875Z" fill="#CB4845"/>
<path d="M9.375 19.9219C9.375 19.7147 9.29269 19.516 9.14618 19.3694C8.99966 19.2229 8.80095 19.1406 8.59375 19.1406C8.38655 19.1406 8.18784 19.2229 8.04132 19.3694C7.89481 19.516 7.8125 19.7147 7.8125 19.9219C7.81456 20.8536 8.18562 21.7467 8.84448 22.4055C9.50334 23.0644 10.3964 23.4354 11.3281 23.4375C11.5353 23.4375 11.734 23.3552 11.8806 23.2087C12.0271 23.0622 12.1094 22.8635 12.1094 22.6562C12.1094 22.449 12.0271 22.2503 11.8806 22.1038C11.734 21.9573 11.5353 21.875 11.3281 21.875C10.8101 21.875 10.3133 21.6692 9.94706 21.3029C9.58078 20.9367 9.375 20.4399 9.375 19.9219Z" fill="#CB4845"/>
<path d="M4.2969 41.8282C5.23738 41.8272 6.13914 41.4536 6.80471 40.7891C6.98828 40.6054 7.20627 40.4596 7.44623 40.3601C7.68618 40.2606 7.94339 40.2094 8.20315 40.2094C8.4629 40.2094 8.72011 40.2606 8.96007 40.3601C9.20002 40.4596 9.41802 40.6054 9.60159 40.7891C10.2667 41.4542 11.1688 41.8278 12.1094 41.8278C13.05 41.8278 13.9521 41.4542 14.6172 40.7891C14.8008 40.6054 15.0188 40.4596 15.2587 40.3601C15.4987 40.2606 15.7559 40.2094 16.0156 40.2094C16.2754 40.2094 16.5326 40.2606 16.7726 40.3601C17.0125 40.4596 17.2305 40.6054 17.4141 40.7891C18.0792 41.4542 18.9813 41.8278 19.9219 41.8278C20.8625 41.8278 21.7646 41.4542 22.4297 40.7891C22.6133 40.6054 22.8313 40.4596 23.0712 40.3601C23.3112 40.2606 23.5684 40.2094 23.8281 40.2094C24.0879 40.2094 24.3451 40.2606 24.5851 40.3601C24.825 40.4596 25.043 40.6054 25.2266 40.7891C25.8917 41.4542 26.7938 41.8278 27.7344 41.8278C28.675 41.8278 29.5771 41.4542 30.2422 40.7891C30.4258 40.6054 30.6438 40.4596 30.8837 40.3601C31.1237 40.2606 31.3809 40.2094 31.6406 40.2094C31.9004 40.2094 32.1576 40.2606 32.3976 40.3601C32.6375 40.4596 32.8555 40.6054 33.0391 40.7891C33.7042 41.4542 34.6063 41.8278 35.5469 41.8278C36.4875 41.8278 37.3896 41.4542 38.0547 40.7891C38.2383 40.6054 38.4563 40.4596 38.6962 40.3601C38.9362 40.2606 39.1934 40.2094 39.4531 40.2094C39.7129 40.2094 39.9701 40.2606 40.2101 40.3601C40.45 40.4596 40.668 40.6054 40.8516 40.7891C41.5167 41.4542 42.4188 41.8278 43.3594 41.8278C44.3 41.8278 45.2021 41.4542 45.8672 40.7891C46.0838 40.571 46.3488 40.4071 46.6407 40.3107C46.9325 40.2144 47.243 40.1882 47.5469 40.2345C47.6495 40.2488 47.7539 40.2428 47.8542 40.2168C47.9545 40.1908 48.0487 40.1454 48.1314 40.083C48.2141 40.0206 48.2837 39.9425 48.3362 39.8532C48.3887 39.7639 48.4232 39.6652 48.4375 39.5626C48.4519 39.46 48.4459 39.3556 48.4199 39.2553C48.3939 39.155 48.3484 39.0608 48.286 38.9781C48.2237 38.8954 48.1456 38.8258 48.0563 38.7733C47.967 38.7207 47.8682 38.6863 47.7656 38.672C47.2217 38.5917 46.6665 38.6397 46.1443 38.8119C45.6221 38.9842 45.1473 39.276 44.7578 39.6641C44.5743 39.8479 44.3563 39.9937 44.1163 40.0932C43.8764 40.1927 43.6192 40.2439 43.3594 40.2439C43.0996 40.2439 42.8424 40.1927 42.6025 40.0932C42.3625 39.9937 42.1445 39.8479 41.961 39.6641C41.2958 38.9991 40.3937 38.6255 39.4531 38.6255C38.5126 38.6255 37.6105 38.9991 36.9453 39.6641C36.7618 39.8479 36.5438 39.9937 36.3038 40.0932C36.0639 40.1927 35.8067 40.2439 35.5469 40.2439C35.2871 40.2439 35.0299 40.1927 34.79 40.0932C34.55 39.9937 34.332 39.8479 34.1485 39.6641C33.4833 38.9991 32.5812 38.6255 31.6406 38.6255C30.7001 38.6255 29.798 38.9991 29.1328 39.6641C28.9493 39.8479 28.7313 39.9937 28.4913 40.0932C28.2514 40.1927 27.9942 40.2439 27.7344 40.2439C27.4746 40.2439 27.2174 40.1927 26.9775 40.0932C26.7375 39.9937 26.5195 39.8479 26.336 39.6641C25.6708 38.9991 24.7687 38.6255 23.8281 38.6255C22.8876 38.6255 21.9855 38.9991 21.3203 39.6641C21.1368 39.8479 20.9188 39.9937 20.6788 40.0932C20.4389 40.1927 20.1817 40.2439 19.9219 40.2439C19.6621 40.2439 19.4049 40.1927 19.165 40.0932C18.925 39.9937 18.707 39.8479 18.5235 39.6641C17.8583 38.9991 16.9562 38.6255 16.0156 38.6255C15.0751 38.6255 14.173 38.9991 13.5078 39.6641C13.3243 39.8479 13.1063 39.9937 12.8663 40.0932C12.6264 40.1927 12.3692 40.2439 12.1094 40.2439C11.8496 40.2439 11.5924 40.1927 11.3525 40.0932C11.1125 39.9937 10.8945 39.8479 10.711 39.6641C10.0458 38.9991 9.14374 38.6255 8.20315 38.6255C7.26256 38.6255 6.36049 38.9991 5.69534 39.6641C5.51177 39.8479 5.29377 39.9937 5.05382 40.0932C4.81386 40.1927 4.55665 40.2439 4.2969 40.2439C4.03714 40.2439 3.77993 40.1927 3.53998 40.0932C3.30003 39.9937 3.08203 39.8479 2.89846 39.6641C2.75135 39.517 2.55182 39.4344 2.34377 39.4344C2.13572 39.4344 1.9362 39.517 1.78909 39.6641C1.64197 39.8113 1.55933 40.0108 1.55933 40.2188C1.55933 40.4269 1.64197 40.6264 1.78909 40.7735C2.45209 41.4437 3.35418 41.8231 4.2969 41.8282Z" fill="#CB4845"/>
<path d="M48.211 43.586C47.5458 42.921 46.6438 42.5474 45.7032 42.5474C44.7626 42.5474 43.8605 42.921 43.1954 43.586C43.0118 43.7698 42.7938 43.9156 42.5538 44.0151C42.3139 44.1145 42.0567 44.1657 41.7969 44.1657C41.5372 44.1657 41.28 44.1145 41.04 44.0151C40.8001 43.9156 40.5821 43.7698 40.3985 43.586C39.7333 42.921 38.8313 42.5474 37.8907 42.5474C36.9501 42.5474 36.048 42.921 35.3829 43.586C35.1993 43.7698 34.9813 43.9156 34.7413 44.0151C34.5014 44.1145 34.2442 44.1657 33.9844 44.1657C33.7247 44.1657 33.4675 44.1145 33.2275 44.0151C32.9876 43.9156 32.7696 43.7698 32.586 43.586C31.9208 42.921 31.0188 42.5474 30.0782 42.5474C29.1376 42.5474 28.2355 42.921 27.5704 43.586C27.3868 43.7698 27.1688 43.9156 26.9289 44.0151C26.6889 44.1145 26.4317 44.1657 26.1719 44.1657C25.9122 44.1657 25.655 44.1145 25.415 44.0151C25.1751 43.9156 24.9571 43.7698 24.7735 43.586C24.1083 42.921 23.2063 42.5474 22.2657 42.5474C21.3251 42.5474 20.423 42.921 19.7579 43.586C19.5743 43.7698 19.3563 43.9156 19.1163 44.0151C18.8764 44.1145 18.6192 44.1657 18.3594 44.1657C18.0997 44.1657 17.8425 44.1145 17.6025 44.0151C17.3626 43.9156 17.1446 43.7698 16.961 43.586C16.2958 42.921 15.3938 42.5474 14.4532 42.5474C13.5126 42.5474 12.6105 42.921 11.9454 43.586C11.7618 43.7698 11.5438 43.9156 11.3038 44.0151C11.0639 44.1145 10.8067 44.1657 10.5469 44.1657C10.2872 44.1657 10.03 44.1145 9.79001 44.0151C9.55006 43.9156 9.33206 43.7698 9.14849 43.586C8.48334 42.921 7.58127 42.5474 6.64068 42.5474C5.70009 42.5474 4.79802 42.921 4.13287 43.586C3.91521 43.8026 3.65009 43.9655 3.35854 44.0617C3.06698 44.158 2.757 44.1851 2.45318 44.1407C2.24598 44.1117 2.03574 44.1662 1.86872 44.2922C1.70169 44.4182 1.59156 44.6054 1.56255 44.8126C1.53355 45.0198 1.58804 45.23 1.71404 45.397C1.84004 45.5641 2.02723 45.6742 2.23443 45.7032C2.77848 45.7859 3.33438 45.7392 3.85699 45.5668C4.3796 45.3944 4.85419 45.1012 5.24224 44.711C5.42581 44.5272 5.64381 44.3814 5.88376 44.282C6.12372 44.1825 6.38092 44.1313 6.64068 44.1313C6.90043 44.1313 7.15764 44.1825 7.3976 44.282C7.63755 44.3814 7.85555 44.5272 8.03912 44.711C8.70427 45.3761 9.60634 45.7497 10.5469 45.7497C11.4875 45.7497 12.3896 45.3761 13.0547 44.711C13.2383 44.5272 13.4563 44.3814 13.6963 44.282C13.9362 44.1825 14.1934 44.1313 14.4532 44.1313C14.7129 44.1313 14.9701 44.1825 15.2101 44.282C15.4501 44.3814 15.668 44.5272 15.8516 44.711C16.5168 45.3761 17.4188 45.7497 18.3594 45.7497C19.3 45.7497 20.2021 45.3761 20.8672 44.711C21.0508 44.5272 21.2688 44.3814 21.5088 44.282C21.7487 44.1825 22.0059 44.1313 22.2657 44.1313C22.5254 44.1313 22.7826 44.1825 23.0226 44.282C23.2626 44.3814 23.4805 44.5272 23.6641 44.711C24.3293 45.3761 25.2313 45.7497 26.1719 45.7497C27.1125 45.7497 28.0146 45.3761 28.6797 44.711C28.8633 44.5272 29.0813 44.3814 29.3213 44.282C29.5612 44.1825 29.8184 44.1313 30.0782 44.1313C30.3379 44.1313 30.5951 44.1825 30.8351 44.282C31.0751 44.3814 31.293 44.5272 31.4766 44.711C32.1418 45.3761 33.0438 45.7497 33.9844 45.7497C34.925 45.7497 35.8271 45.3761 36.4922 44.711C36.6758 44.5272 36.8938 44.3814 37.1338 44.282C37.3737 44.1825 37.6309 44.1313 37.8907 44.1313C38.1504 44.1313 38.4076 44.1825 38.6476 44.282C38.8876 44.3814 39.1055 44.5272 39.2891 44.711C39.9543 45.3761 40.8563 45.7497 41.7969 45.7497C42.7375 45.7497 43.6396 45.3761 44.3047 44.711C44.4883 44.5272 44.7063 44.3814 44.9463 44.282C45.1862 44.1825 45.4434 44.1313 45.7032 44.1313C45.9629 44.1313 46.2201 44.1825 46.4601 44.282C46.7001 44.3814 46.918 44.5272 47.1016 44.711C47.2487 44.8581 47.4483 44.9408 47.6563 44.9408C47.8644 44.9408 48.0639 44.8581 48.211 44.711C48.3581 44.5639 48.4408 44.3644 48.4408 44.1563C48.4408 43.9483 48.3581 43.7488 48.211 43.6016V43.586Z" fill="#CB4845"/>
</svg>