<svg width="145" height="77" viewBox="0 0 145 77" fill="none" xmlns="http://www.w3.org/2000/svg">
<g clip-path="url(#clip0_807_12441)">
<path d="M139.878 50.2369L5.77363 49.0844L0 3.86671L145 0L139.878 50.2369Z" fill="white"/>
<path d="M140.734 63.6339L36.5737 61.5337L32.4746 41.2904L144.697 39.4329L140.734 63.6339Z" fill="#FF5956"/>
<path d="M111.957 63.0502L95.8862 76.8793L140.734 63.634L111.957 63.0502Z" fill="#FF5956"/>
<path d="M19.36 30V16H21.92V28H28.12V30H19.36ZM34.6864 30.24C33.6864 30.24 32.7997 30.0267 32.0264 29.6C31.2531 29.1733 30.6464 28.5733 30.2064 27.8C29.7664 27.0267 29.5464 26.1333 29.5464 25.12C29.5464 24.0933 29.7597 23.18 30.1864 22.38C30.6264 21.58 31.2264 20.96 31.9864 20.52C32.7597 20.0667 33.6664 19.84 34.7064 19.84C35.6797 19.84 36.5397 20.0533 37.2864 20.48C38.0331 20.9067 38.6131 21.4933 39.0264 22.24C39.4531 22.9733 39.6664 23.7933 39.6664 24.7C39.6664 24.8467 39.6597 25 39.6464 25.16C39.6464 25.32 39.6397 25.4867 39.6264 25.66H32.0864C32.1397 26.4333 32.4064 27.04 32.8864 27.48C33.3797 27.92 33.9731 28.14 34.6664 28.14C35.1864 28.14 35.6197 28.0267 35.9664 27.8C36.3264 27.56 36.5931 27.2533 36.7664 26.88H39.3664C39.1797 27.5067 38.8664 28.08 38.4264 28.6C37.9997 29.1067 37.4664 29.5067 36.8264 29.8C36.1997 30.0933 35.4864 30.24 34.6864 30.24ZM34.7064 21.92C34.0797 21.92 33.5264 22.1 33.0464 22.46C32.5664 22.8067 32.2597 23.34 32.1264 24.06H37.0664C37.0264 23.4067 36.7864 22.8867 36.3464 22.5C35.9064 22.1133 35.3597 21.92 34.7064 21.92ZM46.0638 30C45.0238 30 44.1904 29.7467 43.5638 29.24C42.9371 28.7333 42.6238 27.8333 42.6238 26.54V22.22H40.9238V20.08H42.6238L42.9238 17.42H45.1838V20.08H47.8638V22.22H45.1838V26.56C45.1838 27.04 45.2838 27.3733 45.4837 27.56C45.6971 27.7333 46.0571 27.82 46.5638 27.82H47.8038V30H46.0638ZM49.5817 20.92L50.6817 16H53.3817L51.3417 20.92H49.5817ZM58.4195 30.24C57.5395 30.24 56.7662 30.1 56.0995 29.82C55.4329 29.5267 54.8995 29.1267 54.4995 28.62C54.0995 28.1133 53.8595 27.5267 53.7795 26.86H56.3595C56.4395 27.2467 56.6529 27.58 56.9995 27.86C57.3595 28.1267 57.8195 28.26 58.3795 28.26C58.9395 28.26 59.3462 28.1467 59.5995 27.92C59.8662 27.6933 59.9995 27.4333 59.9995 27.14C59.9995 26.7133 59.8129 26.4267 59.4395 26.28C59.0662 26.12 58.5462 25.9667 57.8795 25.82C57.4529 25.7267 57.0195 25.6133 56.5795 25.48C56.1395 25.3467 55.7329 25.18 55.3595 24.98C54.9995 24.7667 54.7062 24.5 54.4795 24.18C54.2529 23.8467 54.1395 23.44 54.1395 22.96C54.1395 22.08 54.4862 21.34 55.1795 20.74C55.8862 20.14 56.8729 19.84 58.1395 19.84C59.3129 19.84 60.2462 20.1133 60.9395 20.66C61.6462 21.2067 62.0662 21.96 62.1995 22.92H59.7795C59.6329 22.1867 59.0795 21.82 58.1195 21.82C57.6395 21.82 57.2662 21.9133 56.9995 22.1C56.7462 22.2867 56.6195 22.52 56.6195 22.8C56.6195 23.0933 56.8129 23.3267 57.1995 23.5C57.5862 23.6733 58.0995 23.8333 58.7395 23.98C59.4329 24.14 60.0662 24.32 60.6395 24.52C61.2262 24.7067 61.6929 24.9933 62.0395 25.38C62.3862 25.7533 62.5595 26.2933 62.5595 27C62.5729 27.6133 62.4129 28.1667 62.0795 28.66C61.7462 29.1533 61.2662 29.54 60.6395 29.82C60.0129 30.1 59.2729 30.24 58.4195 30.24ZM72.913 30V18.06H68.833V16H79.573V18.06H75.473V30H72.913ZM80.4328 30V20.08H82.7128L82.9528 21.94C83.3128 21.3 83.7995 20.7933 84.4128 20.42C85.0395 20.0333 85.7728 19.84 86.6128 19.84V22.54H85.8928C85.3328 22.54 84.8328 22.6267 84.3928 22.8C83.9528 22.9733 83.6061 23.2733 83.3528 23.7C83.1128 24.1267 82.9928 24.72 82.9928 25.48V30H80.4328ZM91.7825 30.24C90.9292 30.24 90.2292 30.1067 89.6825 29.84C89.1358 29.56 88.7292 29.1933 88.4625 28.74C88.1958 28.2867 88.0625 27.7867 88.0625 27.24C88.0625 26.32 88.4225 25.5733 89.1425 25C89.8625 24.4267 90.9425 24.14 92.3825 24.14H94.9025V23.9C94.9025 23.22 94.7092 22.72 94.3225 22.4C93.9358 22.08 93.4558 21.92 92.8825 21.92C92.3625 21.92 91.9092 22.0467 91.5225 22.3C91.1358 22.54 90.8958 22.9 90.8025 23.38H88.3025C88.3692 22.66 88.6092 22.0333 89.0225 21.5C89.4492 20.9667 89.9958 20.56 90.6625 20.28C91.3292 19.9867 92.0758 19.84 92.9025 19.84C94.3158 19.84 95.4292 20.1933 96.2425 20.9C97.0558 21.6067 97.4625 22.6067 97.4625 23.9V30H95.2825L95.0425 28.4C94.7492 28.9333 94.3358 29.3733 93.8025 29.72C93.2825 30.0667 92.6092 30.24 91.7825 30.24ZM92.3625 28.24C93.0958 28.24 93.6625 28 94.0625 27.52C94.4758 27.04 94.7358 26.4467 94.8425 25.74H92.6625C91.9825 25.74 91.4958 25.8667 91.2025 26.12C90.9092 26.36 90.7625 26.66 90.7625 27.02C90.7625 27.4067 90.9092 27.7067 91.2025 27.92C91.4958 28.1333 91.8825 28.24 92.3625 28.24ZM102.293 30L98.6525 20.08H101.333L103.853 27.58L106.373 20.08H109.053L105.393 30H102.293ZM114.999 30.24C113.999 30.24 113.112 30.0267 112.339 29.6C111.566 29.1733 110.959 28.5733 110.519 27.8C110.079 27.0267 109.859 26.1333 109.859 25.12C109.859 24.0933 110.072 23.18 110.499 22.38C110.939 21.58 111.539 20.96 112.299 20.52C113.072 20.0667 113.979 19.84 115.019 19.84C115.992 19.84 116.852 20.0533 117.599 20.48C118.346 20.9067 118.926 21.4933 119.339 22.24C119.766 22.9733 119.979 23.7933 119.979 24.7C119.979 24.8467 119.972 25 119.959 25.16C119.959 25.32 119.952 25.4867 119.939 25.66H112.399C112.452 26.4333 112.719 27.04 113.199 27.48C113.692 27.92 114.286 28.14 114.979 28.14C115.499 28.14 115.932 28.0267 116.279 27.8C116.639 27.56 116.906 27.2533 117.079 26.88H119.679C119.492 27.5067 119.179 28.08 118.739 28.6C118.312 29.1067 117.779 29.5067 117.139 29.8C116.512 30.0933 115.799 30.24 114.999 30.24ZM115.019 21.92C114.392 21.92 113.839 22.1 113.359 22.46C112.879 22.8067 112.572 23.34 112.439 24.06H117.379C117.339 23.4067 117.099 22.8867 116.659 22.5C116.219 22.1133 115.672 21.92 115.019 21.92ZM122.132 30V15.6H124.692V30H122.132Z" fill="#2D2330"/>
<path d="M44.4062 52.0322C44.4062 51.3805 44.4147 50.7331 44.4316 50.0898C44.457 49.4466 44.4697 48.7949 44.4697 48.1348C44.4697 47.7539 44.4486 47.373 44.4062 46.9922C44.3724 46.6113 44.3555 46.2305 44.3555 45.8496C44.3555 45.7311 44.3893 45.6296 44.457 45.5449C44.5332 45.4603 44.6305 45.418 44.749 45.418C44.9521 45.418 45.1045 45.4603 45.2061 45.5449C45.3076 45.6296 45.3796 45.7354 45.4219 45.8623C45.4642 45.9893 45.4854 46.1331 45.4854 46.2939C45.4854 46.4548 45.4854 46.6113 45.4854 46.7637C45.4854 46.7975 45.4854 46.8822 45.4854 47.0176C45.4938 47.153 45.5023 47.3011 45.5107 47.4619C45.5192 47.6143 45.5234 47.7581 45.5234 47.8936C45.5319 48.029 45.5361 48.1136 45.5361 48.1475V48.5664C45.5361 49.1165 45.5277 49.6624 45.5107 50.2041C45.4938 50.7458 45.4854 51.2959 45.4854 51.8545V52.3877C45.4854 52.43 45.4896 52.4893 45.498 52.5654C45.515 52.6331 45.5277 52.667 45.5361 52.667H45.6377L48.6465 51.4736C48.7142 51.4144 48.7734 51.3848 48.8242 51.3848C48.875 51.3763 48.9342 51.3721 49.002 51.3721C49.0443 51.3721 49.0993 51.3763 49.167 51.3848C49.2347 51.3848 49.2982 51.3975 49.3574 51.4229C49.4251 51.4398 49.4801 51.4694 49.5225 51.5117C49.5732 51.5456 49.5986 51.6006 49.5986 51.6768C49.5986 51.8714 49.4928 52.0407 49.2812 52.1846C49.0104 52.3285 48.7311 52.4639 48.4434 52.5908C48.1556 52.7093 47.8636 52.8066 47.5674 52.8828L47.5039 52.9336C47.0977 53.0436 46.7168 53.2044 46.3613 53.416C46.0143 53.6276 45.6504 53.8223 45.2695 54H45.1553C44.9268 54 44.7575 53.9238 44.6475 53.7715C44.5374 53.6191 44.4655 53.4414 44.4316 53.2383C44.3978 53.0267 44.3851 52.8109 44.3936 52.5908C44.402 52.3623 44.4062 52.1761 44.4062 52.0322ZM52.9248 50.458C52.8486 50.5934 52.7598 50.7585 52.6582 50.9531C52.5651 51.1393 52.4635 51.3424 52.3535 51.5625C52.2435 51.7741 52.1208 51.9899 51.9854 52.21C51.8584 52.4215 51.723 52.6162 51.5791 52.7939C51.4437 52.9717 51.2998 53.124 51.1475 53.251C50.9951 53.3695 50.8385 53.4414 50.6777 53.4668C50.61 53.4668 50.5339 53.4626 50.4492 53.4541C50.3646 53.4372 50.2799 53.416 50.1953 53.3906C50.1107 53.3568 50.0387 53.3145 49.9795 53.2637C49.9287 53.2044 49.9033 53.1283 49.9033 53.0352C49.9118 52.1719 49.9753 51.389 50.0938 50.6865C50.2122 49.9756 50.3984 49.3535 50.6523 48.8203C50.9062 48.2786 51.2321 47.8301 51.6299 47.4746C52.0277 47.1191 52.5101 46.8652 53.0771 46.7129C53.0941 46.7129 53.1237 46.7129 53.166 46.7129C53.2168 46.7044 53.2507 46.7002 53.2676 46.7002C53.5215 46.6917 53.7035 46.8102 53.8135 47.0557C53.932 47.2926 54.0166 47.6735 54.0674 48.1982C54.1266 48.7145 54.1647 49.3831 54.1816 50.2041C54.207 51.0166 54.2536 51.9941 54.3213 53.1367C54.3467 53.2298 54.3594 53.3102 54.3594 53.3779C54.3678 53.4456 54.3721 53.526 54.3721 53.6191C54.3721 53.7461 54.334 53.8434 54.2578 53.9111C54.1816 53.9704 54.0843 54 53.9658 54C53.7204 54 53.5469 53.9323 53.4453 53.7969C53.3438 53.6615 53.276 53.4795 53.2422 53.251C53.2422 53.2425 53.2337 53.1748 53.2168 53.0479C53.2083 52.9209 53.1914 52.777 53.166 52.6162C53.1491 52.4469 53.1322 52.2777 53.1152 52.1084C53.0983 51.9391 53.0856 51.7995 53.0771 51.6895V51.6387C53.0602 51.554 53.0475 51.4482 53.0391 51.3213C53.0391 51.1943 53.0306 51.0716 53.0137 50.9531C52.9967 50.8092 52.984 50.6654 52.9756 50.5215L52.9248 50.458ZM52.6455 47.9443C52.417 48.1136 52.1927 48.3421 51.9727 48.6299C51.7526 48.9176 51.596 49.1969 51.5029 49.4678C51.4606 49.5947 51.4141 49.7682 51.3633 49.9883C51.3125 50.2083 51.266 50.4284 51.2236 50.6484C51.1898 50.86 51.1602 51.0589 51.1348 51.2451C51.1094 51.4229 51.0967 51.5371 51.0967 51.5879C51.1051 51.5879 51.1136 51.5794 51.1221 51.5625C51.139 51.5456 51.1517 51.5329 51.1602 51.5244C51.6849 51.0166 52.0531 50.4707 52.2646 49.8867C52.4847 49.2943 52.6117 48.6468 52.6455 47.9443ZM56.9492 53.5176C56.9492 53.4753 56.9492 53.4372 56.9492 53.4033C56.9577 53.3695 56.9788 53.3356 57.0127 53.3018C57.1143 53.1748 57.2285 53.0436 57.3555 52.9082C57.4824 52.7643 57.6051 52.6247 57.7236 52.4893C57.8421 52.3454 57.9521 52.1973 58.0537 52.0449C58.1553 51.8926 58.2399 51.7402 58.3076 51.5879V51.5117L56.6445 51.8545H56.4541C56.3356 51.8545 56.1875 51.846 56.0098 51.8291C55.8405 51.8122 55.6712 51.7783 55.502 51.7275C55.3411 51.6683 55.2015 51.5879 55.083 51.4863C54.973 51.3848 54.918 51.2493 54.918 51.0801C54.9264 50.8854 55.028 50.6696 55.2227 50.4326C55.4173 50.1956 55.6458 49.9629 55.9082 49.7344C56.1706 49.5059 56.4329 49.2943 56.6953 49.0996C56.9661 48.9049 57.182 48.7526 57.3428 48.6426C57.5205 48.541 57.7321 48.4606 57.9775 48.4014C58.223 48.3337 58.4473 48.2998 58.6504 48.2998C58.8197 48.2998 58.9678 48.3337 59.0947 48.4014C59.2217 48.4606 59.2852 48.5833 59.2852 48.7695C59.2852 48.8457 59.2767 48.9176 59.2598 48.9854C59.2513 49.0531 59.2005 49.0996 59.1074 49.125C58.8366 49.0996 58.5827 49.1208 58.3457 49.1885C58.1087 49.2477 57.8844 49.3408 57.6729 49.4678C57.4613 49.5947 57.2624 49.7471 57.0762 49.9248C56.89 50.0941 56.708 50.2718 56.5303 50.458C56.4795 50.5173 56.416 50.6019 56.3398 50.7119C56.2637 50.8135 56.2256 50.8727 56.2256 50.8896V50.9023C56.4456 50.9023 56.6615 50.8812 56.873 50.8389C57.0931 50.7965 57.3089 50.7542 57.5205 50.7119C57.7406 50.6611 57.9564 50.6146 58.168 50.5723C58.388 50.5299 58.6123 50.5088 58.8408 50.5088C58.9255 50.5088 59.0186 50.5173 59.1201 50.5342C59.2217 50.5426 59.3148 50.568 59.3994 50.6104C59.4925 50.6527 59.5645 50.7119 59.6152 50.7881C59.6745 50.8558 59.7041 50.9447 59.7041 51.0547C59.7041 51.2155 59.6618 51.3721 59.5771 51.5244C59.501 51.6683 59.3825 51.846 59.2217 52.0576C59.0693 52.2607 58.8704 52.5104 58.625 52.8066C58.388 53.1029 58.1045 53.4837 57.7744 53.9492C57.7575 53.9746 57.7152 53.9915 57.6475 54C57.5882 54.0085 57.5374 54.0127 57.4951 54.0127C57.3766 54.0127 57.2539 53.9619 57.127 53.8604C57.0085 53.7588 56.9492 53.6445 56.9492 53.5176ZM61.4814 50.293C61.363 50.293 61.2572 50.3226 61.1641 50.3818C61.071 50.4411 60.9609 50.4707 60.834 50.4707C60.8171 50.4707 60.7705 50.4707 60.6943 50.4707C60.6266 50.4622 60.5843 50.458 60.5674 50.458C60.5335 50.4157 60.4954 50.3818 60.4531 50.3564C60.4108 50.3311 60.3685 50.3057 60.3262 50.2803C60.2839 50.2464 60.2458 50.2083 60.2119 50.166C60.1865 50.1237 60.1738 50.0645 60.1738 49.9883C60.1738 49.8613 60.2246 49.7598 60.3262 49.6836C60.4277 49.599 60.5462 49.527 60.6816 49.4678C60.8171 49.4085 60.9525 49.3535 61.0879 49.3027C61.2318 49.252 61.346 49.1927 61.4307 49.125V48.5664C61.4307 47.9401 61.401 47.3138 61.3418 46.6875C61.2826 46.0527 61.2529 45.4264 61.2529 44.8086C61.2529 44.6393 61.2952 44.5293 61.3799 44.4785C61.4645 44.4277 61.5788 44.4023 61.7227 44.4023C61.8919 44.4023 62.0146 44.4531 62.0908 44.5547C62.1755 44.6478 62.2347 44.7663 62.2686 44.9102C62.3024 45.0456 62.3193 45.1937 62.3193 45.3545C62.3193 45.5068 62.3236 45.638 62.332 45.748C62.332 45.8581 62.3405 46.0527 62.3574 46.332C62.3743 46.6113 62.3913 46.9076 62.4082 47.2207C62.4251 47.5339 62.4421 47.8301 62.459 48.1094C62.4759 48.3887 62.4886 48.5833 62.4971 48.6934C62.5309 48.6849 62.5944 48.6637 62.6875 48.6299C62.7891 48.5876 62.8949 48.5495 63.0049 48.5156C63.1149 48.4733 63.2165 48.4352 63.3096 48.4014C63.4111 48.3675 63.4831 48.3421 63.5254 48.3252C63.7454 48.2321 63.974 48.1305 64.2109 48.0205C64.4479 47.902 64.6891 47.8428 64.9346 47.8428C65.1038 47.8428 65.2308 47.902 65.3154 48.0205C65.4085 48.1305 65.4551 48.2617 65.4551 48.4141C65.4551 48.5241 65.4128 48.6045 65.3281 48.6553C65.2435 48.7061 65.1546 48.7526 65.0615 48.7949L62.751 49.6582C62.7256 49.6751 62.7002 49.6921 62.6748 49.709C62.6494 49.7174 62.624 49.7344 62.5986 49.7598V50.166C62.5986 50.4622 62.6029 50.7712 62.6113 51.0928C62.6283 51.4059 62.6579 51.7106 62.7002 52.0068C62.7425 52.2607 62.7891 52.5104 62.8398 52.7559C62.8906 53.0013 62.916 53.251 62.916 53.5049C62.916 53.5811 62.8906 53.6826 62.8398 53.8096C62.7891 53.9365 62.7087 54 62.5986 54C62.3701 54 62.1839 53.9323 62.04 53.7969C61.8962 53.6615 61.8158 53.4795 61.7988 53.251C61.7565 52.8109 61.71 52.3285 61.6592 51.8037C61.6169 51.279 61.5745 50.7754 61.5322 50.293H61.4814ZM71.2061 53.6191C71.1891 52.6797 71.1637 51.7445 71.1299 50.8135C71.1045 49.874 71.0918 48.9346 71.0918 47.9951C71.0918 47.9274 71.0918 47.8089 71.0918 47.6396C71.0918 47.4619 71.0918 47.2757 71.0918 47.0811C71.1003 46.8864 71.1045 46.7044 71.1045 46.5352C71.1045 46.3659 71.1045 46.2474 71.1045 46.1797C71.1383 46.0443 71.1891 45.9385 71.2568 45.8623C71.3245 45.7777 71.4303 45.7354 71.5742 45.7354C71.7181 45.7354 71.8451 45.7819 71.9551 45.875C72.0651 45.9596 72.154 46.0612 72.2217 46.1797L74.0498 49.709C74.0583 49.7259 74.0879 49.7767 74.1387 49.8613C74.1895 49.946 74.2275 50.0052 74.2529 50.0391C74.2614 50.0475 74.2741 50.056 74.291 50.0645C74.3079 50.0729 74.3164 50.0814 74.3164 50.0898L74.3672 49.9756L75.4463 46.1797C75.5225 46.0612 75.5775 45.93 75.6113 45.7861C75.6536 45.6338 75.696 45.4857 75.7383 45.3418C75.7891 45.1979 75.8483 45.0625 75.916 44.9355C75.9922 44.8086 76.1022 44.7028 76.2461 44.6182H76.3477C76.5762 44.6182 76.7454 44.6859 76.8555 44.8213C76.9655 44.9482 77.0417 45.109 77.084 45.3037C77.1263 45.4899 77.1432 45.6888 77.1348 45.9004C77.1348 46.1035 77.139 46.2812 77.1475 46.4336C77.1475 46.4928 77.1517 46.6071 77.1602 46.7764C77.1771 46.9456 77.194 47.1445 77.2109 47.373C77.2279 47.6016 77.2448 47.847 77.2617 48.1094C77.2786 48.3633 77.2913 48.6045 77.2998 48.833C77.3167 49.0615 77.3294 49.2604 77.3379 49.4297C77.3548 49.599 77.3633 49.709 77.3633 49.7598V49.8105C77.3717 49.8867 77.3887 50.0137 77.4141 50.1914C77.4395 50.3691 77.4648 50.5596 77.4902 50.7627C77.5241 50.9574 77.5537 51.1436 77.5791 51.3213C77.6045 51.499 77.6257 51.6217 77.6426 51.6895C77.651 51.7318 77.6637 51.7952 77.6807 51.8799C77.7061 51.9645 77.7314 52.0576 77.7568 52.1592C77.7907 52.2523 77.8203 52.3411 77.8457 52.4258C77.8711 52.5104 77.8923 52.5697 77.9092 52.6035C77.8753 52.7982 77.8245 52.9505 77.7568 53.0605C77.6976 53.1621 77.5622 53.2129 77.3506 53.2129C77.3252 53.2129 77.2871 53.2129 77.2363 53.2129C77.1855 53.2044 77.1559 53.2002 77.1475 53.2002C77.1221 53.1833 77.0713 53.141 76.9951 53.0732C76.9274 53.0055 76.8893 52.959 76.8809 52.9336L76.6777 52.2354L76.2969 49.3408V49.2266C76.2884 49.0742 76.2842 48.9134 76.2842 48.7441C76.2842 48.5664 76.2799 48.3887 76.2715 48.2109C76.2715 48.0332 76.263 47.8555 76.2461 47.6777C76.2292 47.5 76.1953 47.335 76.1445 47.1826L76.0811 47.2588L75.167 50.9404C75.1585 51.0335 75.1501 51.1351 75.1416 51.2451C75.1331 51.3467 75.112 51.4482 75.0781 51.5498C75.0443 51.6429 74.9935 51.7233 74.9258 51.791C74.8581 51.8587 74.7607 51.8968 74.6338 51.9053C74.583 51.9137 74.528 51.9053 74.4688 51.8799C74.4095 51.8545 74.3503 51.8206 74.291 51.7783C74.2318 51.736 74.1768 51.6895 74.126 51.6387C74.0837 51.5794 74.0583 51.5244 74.0498 51.4736L72.4375 48.9092L72.1709 48.376V49.4678C72.1709 49.984 72.1794 50.4919 72.1963 50.9912C72.2217 51.4821 72.2344 51.9857 72.2344 52.502C72.2344 52.5443 72.2344 52.6204 72.2344 52.7305C72.2344 52.832 72.2301 52.9421 72.2217 53.0605C72.2217 53.179 72.2217 53.2933 72.2217 53.4033C72.2217 53.5049 72.2217 53.5768 72.2217 53.6191C72.1878 53.7207 72.137 53.8096 72.0693 53.8857C72.0101 53.9619 71.9212 54 71.8027 54C71.6419 54 71.515 53.9746 71.4219 53.9238C71.3372 53.8646 71.2653 53.763 71.2061 53.6191ZM79.0898 53.5176C79.0052 52.6712 78.9333 51.9476 78.874 51.3467C78.8148 50.7458 78.764 50.2422 78.7217 49.8359C78.6794 49.4297 78.6413 49.1081 78.6074 48.8711C78.582 48.6257 78.5609 48.4437 78.5439 48.3252C78.527 48.1982 78.5143 48.1136 78.5059 48.0713C78.4974 48.029 78.4932 48.0036 78.4932 47.9951V47.9443C78.4932 47.8512 78.5312 47.7751 78.6074 47.7158C78.6921 47.6481 78.7767 47.6143 78.8613 47.6143C78.9883 47.6143 79.1237 47.6354 79.2676 47.6777C79.4199 47.7201 79.5215 47.8089 79.5723 47.9443C79.6484 48.359 79.6992 48.778 79.7246 49.2012C79.7585 49.6243 79.7839 50.0475 79.8008 50.4707C79.8262 50.8854 79.8558 51.3044 79.8896 51.7275C79.932 52.1507 80.0039 52.5697 80.1055 52.9844C80.1055 53.0013 80.1097 53.0352 80.1182 53.0859C80.1351 53.1367 80.1478 53.1917 80.1562 53.251C80.1732 53.3102 80.1859 53.3652 80.1943 53.416C80.2028 53.4668 80.207 53.5007 80.207 53.5176V53.543C80.207 53.5514 80.2113 53.5599 80.2197 53.5684C80.2197 53.6699 80.1732 53.7715 80.0801 53.873C79.987 53.9746 79.8896 54.0169 79.7881 54C79.7627 53.9915 79.6992 53.9788 79.5977 53.9619C79.5046 53.9365 79.4411 53.9154 79.4072 53.8984C79.3818 53.89 79.348 53.873 79.3057 53.8477C79.2633 53.8138 79.221 53.7799 79.1787 53.7461C79.1449 53.7122 79.1152 53.6742 79.0898 53.6318C79.0645 53.5895 79.0645 53.5514 79.0898 53.5176ZM78.3789 44.2627C78.3789 44.2035 78.4255 44.1527 78.5186 44.1104C78.6201 44.0596 78.6963 44.0342 78.7471 44.0342C78.874 44.0342 79.0137 44.0723 79.166 44.1484C79.3268 44.2161 79.4072 44.3219 79.4072 44.4658C79.4072 44.6097 79.3861 44.707 79.3438 44.7578C79.3099 44.8086 79.221 44.834 79.0771 44.834C78.9248 44.834 78.7682 44.7832 78.6074 44.6816C78.4551 44.5801 78.3789 44.4404 78.3789 44.2627ZM84.3076 53.5684C84.1891 53.3991 84.0876 53.1663 84.0029 52.8701C83.9268 52.5654 83.8506 52.248 83.7744 51.918C83.7067 51.5794 83.6432 51.2536 83.584 50.9404C83.5247 50.6188 83.4613 50.3649 83.3936 50.1787C83.3343 49.984 83.2666 49.874 83.1904 49.8486C83.1143 49.8232 83.0254 49.9375 82.9238 50.1914L81.8193 53.5938C81.777 53.7122 81.7262 53.7969 81.667 53.8477C81.6077 53.89 81.5104 53.9111 81.375 53.9111C81.3073 53.9111 81.2354 53.9027 81.1592 53.8857C81.083 53.8604 81.0111 53.8265 80.9434 53.7842C80.8757 53.7419 80.8164 53.6911 80.7656 53.6318C80.7233 53.5726 80.6979 53.5049 80.6895 53.4287C80.7148 53.3271 80.736 53.141 80.7529 52.8701C80.7783 52.5993 80.7952 52.2861 80.8037 51.9307C80.8122 51.5752 80.8164 51.2028 80.8164 50.8135C80.8249 50.4157 80.8249 50.0475 80.8164 49.709C80.8164 49.362 80.8122 49.0658 80.8037 48.8203C80.7952 48.5664 80.7868 48.4014 80.7783 48.3252C80.7783 48.2406 80.7783 48.1559 80.7783 48.0713C80.7868 47.9782 80.7995 47.8936 80.8164 47.8174C80.8418 47.7412 80.8799 47.682 80.9307 47.6396C80.9899 47.5889 81.0788 47.5635 81.1973 47.5635C81.3581 47.5635 81.5062 47.6312 81.6416 47.7666C81.7855 47.902 81.8574 48.0459 81.8574 48.1982C81.8574 48.4183 81.8447 48.6383 81.8193 48.8584C81.8024 49.07 81.7939 49.2858 81.7939 49.5059C81.7939 49.6413 81.7939 49.7555 81.7939 49.8486C81.7939 49.9417 81.8109 50.056 81.8447 50.1914C81.8701 50.1237 81.9124 50.0052 81.9717 49.8359C82.0309 49.6667 82.0944 49.4889 82.1621 49.3027C82.2383 49.1165 82.306 48.943 82.3652 48.7822C82.4245 48.613 82.4668 48.4945 82.4922 48.4268C82.5514 48.2575 82.6403 48.0967 82.7588 47.9443C82.8773 47.7835 83.0339 47.6947 83.2285 47.6777C83.3555 47.6693 83.4697 47.7031 83.5713 47.7793C83.6813 47.8555 83.7744 47.957 83.8506 48.084C83.9268 48.2025 83.9902 48.3294 84.041 48.4648C84.0918 48.5918 84.1299 48.7018 84.1553 48.7949L84.8408 51.9561L85.374 53.4033C85.3825 53.4118 85.3867 53.4372 85.3867 53.4795C85.3867 53.5133 85.3867 53.5387 85.3867 53.5557C85.3867 53.6572 85.3613 53.7588 85.3105 53.8604C85.2682 53.9535 85.1878 54 85.0693 54C84.9255 54 84.7773 53.9619 84.625 53.8857C84.4727 53.8011 84.3669 53.6953 84.3076 53.5684ZM88.459 52.7939C88.3997 52.9209 88.3405 53.0605 88.2812 53.2129C88.222 53.3568 88.1543 53.488 88.0781 53.6064C88.002 53.7249 87.9089 53.8265 87.7988 53.9111C87.6888 53.9873 87.5492 54.0254 87.3799 54.0254C87.0837 54.0254 86.8382 53.9535 86.6436 53.8096C86.4489 53.6572 86.2881 53.471 86.1611 53.251C86.0426 53.0225 85.958 52.777 85.9072 52.5146C85.8564 52.2523 85.8311 52.0068 85.8311 51.7783L85.9326 48.7061C85.9242 48.6468 85.9368 48.5876 85.9707 48.5283C86.013 48.4606 86.0638 48.4014 86.123 48.3506C86.1908 48.2913 86.2627 48.2448 86.3389 48.2109C86.4235 48.1771 86.4997 48.1602 86.5674 48.1602C86.762 48.1602 86.9271 48.2236 87.0625 48.3506C87.1979 48.4691 87.2656 48.6257 87.2656 48.8203V48.9473C87.1725 49.0996 87.0921 49.2985 87.0244 49.5439C86.9567 49.7894 86.9017 50.056 86.8594 50.3438C86.8255 50.623 86.8044 50.9108 86.7959 51.207C86.7874 51.5033 86.7959 51.7741 86.8213 52.0195C86.8551 52.265 86.9059 52.4766 86.9736 52.6543C87.0413 52.8236 87.1302 52.9251 87.2402 52.959C87.2826 52.959 87.346 52.9378 87.4307 52.8955C87.5238 52.8532 87.6211 52.7728 87.7227 52.6543C87.8242 52.5358 87.93 52.3708 88.04 52.1592C88.1501 51.9391 88.2474 51.6514 88.332 51.2959C88.4167 50.9404 88.4801 50.5088 88.5225 50.001C88.5648 49.4932 88.5775 48.8838 88.5605 48.1729C88.5944 48.0798 88.641 48.029 88.7002 48.0205C88.7679 48.012 88.8356 48.0078 88.9033 48.0078C88.9795 48.0078 89.043 48.012 89.0938 48.0205C89.1445 48.0205 89.1995 48.0501 89.2588 48.1094C89.3011 48.1517 89.3477 48.2152 89.3984 48.2998C89.4492 48.3844 89.4746 48.431 89.4746 48.4395L89.6904 54.0635C89.6904 54.1904 89.6566 54.2962 89.5889 54.3809C89.5212 54.4655 89.4238 54.5078 89.2969 54.5078C89.2546 54.5078 89.2038 54.5036 89.1445 54.4951C89.0853 54.4867 89.026 54.4697 88.9668 54.4443C88.9076 54.4189 88.8525 54.3851 88.8018 54.3428C88.7594 54.3089 88.734 54.2666 88.7256 54.2158L88.5098 52.9463L88.459 52.7939ZM91.6074 50.293C91.4889 50.293 91.3831 50.3226 91.29 50.3818C91.1969 50.4411 91.0869 50.4707 90.96 50.4707C90.943 50.4707 90.8965 50.4707 90.8203 50.4707C90.7526 50.4622 90.7103 50.458 90.6934 50.458C90.6595 50.4157 90.6214 50.3818 90.5791 50.3564C90.5368 50.3311 90.4945 50.3057 90.4521 50.2803C90.4098 50.2464 90.3717 50.2083 90.3379 50.166C90.3125 50.1237 90.2998 50.0645 90.2998 49.9883C90.2998 49.8613 90.3506 49.7598 90.4521 49.6836C90.5537 49.599 90.6722 49.527 90.8076 49.4678C90.943 49.4085 91.0785 49.3535 91.2139 49.3027C91.3577 49.252 91.472 49.1927 91.5566 49.125V48.5664C91.5566 47.9401 91.527 47.3138 91.4678 46.6875C91.4085 46.0527 91.3789 45.4264 91.3789 44.8086C91.3789 44.6393 91.4212 44.5293 91.5059 44.4785C91.5905 44.4277 91.7048 44.4023 91.8486 44.4023C92.0179 44.4023 92.1406 44.4531 92.2168 44.5547C92.3014 44.6478 92.3607 44.7663 92.3945 44.9102C92.4284 45.0456 92.4453 45.1937 92.4453 45.3545C92.4453 45.5068 92.4495 45.638 92.458 45.748C92.458 45.8581 92.4665 46.0527 92.4834 46.332C92.5003 46.6113 92.5173 46.9076 92.5342 47.2207C92.5511 47.5339 92.568 47.8301 92.585 48.1094C92.6019 48.3887 92.6146 48.5833 92.623 48.6934C92.6569 48.6849 92.7204 48.6637 92.8135 48.6299C92.915 48.5876 93.0208 48.5495 93.1309 48.5156C93.2409 48.4733 93.3424 48.4352 93.4355 48.4014C93.5371 48.3675 93.609 48.3421 93.6514 48.3252C93.8714 48.2321 94.0999 48.1305 94.3369 48.0205C94.5739 47.902 94.8151 47.8428 95.0605 47.8428C95.2298 47.8428 95.3568 47.902 95.4414 48.0205C95.5345 48.1305 95.5811 48.2617 95.5811 48.4141C95.5811 48.5241 95.5387 48.6045 95.4541 48.6553C95.3695 48.7061 95.2806 48.7526 95.1875 48.7949L92.877 49.6582C92.8516 49.6751 92.8262 49.6921 92.8008 49.709C92.7754 49.7174 92.75 49.7344 92.7246 49.7598V50.166C92.7246 50.4622 92.7288 50.7712 92.7373 51.0928C92.7542 51.4059 92.7839 51.7106 92.8262 52.0068C92.8685 52.2607 92.915 52.5104 92.9658 52.7559C93.0166 53.0013 93.042 53.251 93.042 53.5049C93.042 53.5811 93.0166 53.6826 92.9658 53.8096C92.915 53.9365 92.8346 54 92.7246 54C92.4961 54 92.3099 53.9323 92.166 53.7969C92.0221 53.6615 91.9417 53.4795 91.9248 53.251C91.8825 52.8109 91.8359 52.3285 91.7852 51.8037C91.7428 51.279 91.7005 50.7754 91.6582 50.293H91.6074ZM101.294 50.3945C101.277 50.5469 101.256 50.6654 101.23 50.75C101.214 50.8346 101.18 50.9108 101.129 50.9785C101.078 51.0462 101.006 51.1182 100.913 51.1943C100.82 51.262 100.693 51.3636 100.532 51.499C100.371 51.626 100.173 51.7952 99.9355 52.0068C99.6986 52.2184 99.4108 52.4935 99.0723 52.832C98.9368 52.959 98.7972 53.0902 98.6533 53.2256C98.5094 53.361 98.3571 53.4837 98.1963 53.5938C98.0439 53.6953 97.8831 53.7799 97.7139 53.8477C97.5446 53.9154 97.3669 53.9492 97.1807 53.9492C96.8167 53.9492 96.5501 53.8265 96.3809 53.5811C96.2116 53.3356 96.127 53.0521 96.127 52.7305C96.127 52.5189 96.1312 52.3411 96.1396 52.1973C96.1566 52.0534 96.1904 51.8672 96.2412 51.6387C96.1481 51.554 96.0677 51.4821 96 51.4229C95.9323 51.3551 95.8984 51.2663 95.8984 51.1562C95.8984 51.0547 95.9196 50.987 95.9619 50.9531C96.0127 50.9193 96.0677 50.8981 96.127 50.8896C96.1947 50.8727 96.2581 50.8558 96.3174 50.8389C96.3766 50.8219 96.4189 50.7881 96.4443 50.7373C96.4613 50.6865 96.4909 50.5934 96.5332 50.458C96.584 50.3226 96.6348 50.1829 96.6855 50.0391C96.7363 49.8867 96.7829 49.7471 96.8252 49.6201C96.876 49.4847 96.9098 49.3916 96.9268 49.3408C96.986 49.1969 97.0495 49.0531 97.1172 48.9092C97.1934 48.7568 97.278 48.6214 97.3711 48.5029C97.4727 48.3844 97.5869 48.2871 97.7139 48.2109C97.8493 48.1348 98.0059 48.0967 98.1836 48.0967C98.2852 48.0967 98.4079 48.1432 98.5518 48.2363C98.7041 48.3294 98.848 48.4437 98.9834 48.5791C99.1188 48.7061 99.2331 48.8415 99.3262 48.9854C99.4193 49.1292 99.4658 49.252 99.4658 49.3535C99.4658 49.4805 99.4362 49.599 99.377 49.709C99.3177 49.8105 99.2415 49.9079 99.1484 50.001C99.0638 50.0856 98.9707 50.166 98.8691 50.2422C98.7676 50.3184 98.6745 50.3903 98.5898 50.458C98.5814 50.458 98.5645 50.4665 98.5391 50.4834C98.5137 50.5003 98.4925 50.513 98.4756 50.5215C98.4671 50.5299 98.446 50.5511 98.4121 50.585C98.3867 50.6104 98.3571 50.64 98.3232 50.6738C98.2894 50.7077 98.2555 50.7415 98.2217 50.7754C98.1963 50.8092 98.1794 50.8304 98.1709 50.8389C98.1455 50.8643 98.0947 50.9066 98.0186 50.9658C97.9508 51.0166 97.8747 51.0758 97.79 51.1436C97.7054 51.2028 97.625 51.262 97.5488 51.3213C97.4811 51.3721 97.4346 51.4059 97.4092 51.4229L97.3584 51.5244C97.3415 51.5583 97.3245 51.6344 97.3076 51.7529C97.2992 51.863 97.2865 51.9899 97.2695 52.1338C97.2526 52.2777 97.2357 52.4258 97.2188 52.5781C97.2103 52.722 97.2061 52.8405 97.2061 52.9336C97.2061 52.9421 97.2103 52.9505 97.2188 52.959C97.2357 52.9759 97.2484 52.9844 97.2568 52.9844C97.3245 52.9844 97.388 52.9548 97.4473 52.8955C97.5065 52.8363 97.57 52.7939 97.6377 52.7686L99.6689 50.8896L100.189 50.0898C100.232 50.0306 100.312 49.9671 100.431 49.8994C100.558 49.8232 100.685 49.7852 100.812 49.7852C100.938 49.7767 101.049 49.8148 101.142 49.8994C101.243 49.984 101.294 50.1491 101.294 50.3945ZM98.501 49.4043C98.5433 49.3704 98.5602 49.3197 98.5518 49.252C98.5433 49.1842 98.5179 49.125 98.4756 49.0742C98.4417 49.0234 98.3952 48.9938 98.3359 48.9854C98.2767 48.9684 98.2217 48.998 98.1709 49.0742C98.1455 49.1081 98.099 49.1758 98.0312 49.2773C97.972 49.3789 97.9085 49.4847 97.8408 49.5947C97.7816 49.6963 97.7308 49.7852 97.6885 49.8613C97.6462 49.9375 97.6377 49.9671 97.6631 49.9502L98.501 49.4043ZM103.554 53.5176C103.554 53.4753 103.554 53.4372 103.554 53.4033C103.562 53.3695 103.583 53.3356 103.617 53.3018C103.719 53.1748 103.833 53.0436 103.96 52.9082C104.087 52.7643 104.21 52.6247 104.328 52.4893C104.447 52.3454 104.557 52.1973 104.658 52.0449C104.76 51.8926 104.844 51.7402 104.912 51.5879V51.5117L103.249 51.8545H103.059C102.94 51.8545 102.792 51.846 102.614 51.8291C102.445 51.8122 102.276 51.7783 102.106 51.7275C101.946 51.6683 101.806 51.5879 101.688 51.4863C101.577 51.3848 101.522 51.2493 101.522 51.0801C101.531 50.8854 101.632 50.6696 101.827 50.4326C102.022 50.1956 102.25 49.9629 102.513 49.7344C102.775 49.5059 103.037 49.2943 103.3 49.0996C103.571 48.9049 103.786 48.7526 103.947 48.6426C104.125 48.541 104.337 48.4606 104.582 48.4014C104.827 48.3337 105.052 48.2998 105.255 48.2998C105.424 48.2998 105.572 48.3337 105.699 48.4014C105.826 48.4606 105.89 48.5833 105.89 48.7695C105.89 48.8457 105.881 48.9176 105.864 48.9854C105.856 49.0531 105.805 49.0996 105.712 49.125C105.441 49.0996 105.187 49.1208 104.95 49.1885C104.713 49.2477 104.489 49.3408 104.277 49.4678C104.066 49.5947 103.867 49.7471 103.681 49.9248C103.494 50.0941 103.312 50.2718 103.135 50.458C103.084 50.5173 103.021 50.6019 102.944 50.7119C102.868 50.8135 102.83 50.8727 102.83 50.8896V50.9023C103.05 50.9023 103.266 50.8812 103.478 50.8389C103.698 50.7965 103.913 50.7542 104.125 50.7119C104.345 50.6611 104.561 50.6146 104.772 50.5723C104.993 50.5299 105.217 50.5088 105.445 50.5088C105.53 50.5088 105.623 50.5173 105.725 50.5342C105.826 50.5426 105.919 50.568 106.004 50.6104C106.097 50.6527 106.169 50.7119 106.22 50.7881C106.279 50.8558 106.309 50.9447 106.309 51.0547C106.309 51.2155 106.266 51.3721 106.182 51.5244C106.105 51.6683 105.987 51.846 105.826 52.0576C105.674 52.2607 105.475 52.5104 105.229 52.8066C104.993 53.1029 104.709 53.4837 104.379 53.9492C104.362 53.9746 104.32 53.9915 104.252 54C104.193 54.0085 104.142 54.0127 104.1 54.0127C103.981 54.0127 103.858 53.9619 103.731 53.8604C103.613 53.7588 103.554 53.6445 103.554 53.5176ZM113.57 53.5938C113.57 53.5176 113.596 53.4499 113.646 53.3906C113.706 53.3314 113.735 53.2679 113.735 53.2002C113.735 53.1833 113.718 53.1621 113.685 53.1367C113.651 53.1113 113.63 53.0944 113.621 53.0859C113.536 52.959 113.49 52.8151 113.481 52.6543C113.473 52.4935 113.469 52.3411 113.469 52.1973C113.469 51.4186 113.473 50.6484 113.481 49.8867C113.49 49.125 113.494 48.3548 113.494 47.5762C113.41 47.5762 113.329 47.5973 113.253 47.6396C113.177 47.6735 113.096 47.7158 113.012 47.7666C112.927 47.8089 112.838 47.8512 112.745 47.8936C112.652 47.9274 112.55 47.9443 112.44 47.9443H112.237C112.22 47.9189 112.178 47.8978 112.11 47.8809C112.043 47.8555 112.009 47.8258 112.009 47.792V47.4111C112.051 47.3857 112.085 47.3519 112.11 47.3096C112.144 47.2588 112.17 47.2165 112.187 47.1826L113.469 46.5479L113.52 46.4844C113.503 46.2474 113.515 46.057 113.558 45.9131C113.6 45.7692 113.748 45.6973 114.002 45.6973C114.07 45.6973 114.142 45.71 114.218 45.7354C114.302 45.7607 114.379 45.7946 114.446 45.8369C114.522 45.8792 114.577 45.9342 114.611 46.002C114.654 46.0697 114.666 46.1458 114.649 46.2305C115.073 46.2474 115.492 46.2812 115.906 46.332C116.321 46.3743 116.693 46.4759 117.023 46.6367C117.354 46.7891 117.62 47.0176 117.823 47.3223C118.035 47.627 118.141 48.0459 118.141 48.5791C118.141 49.0615 118.048 49.5439 117.861 50.0264C117.675 50.5088 117.409 50.9235 117.062 51.2705L114.649 53.6699C114.531 53.7884 114.429 53.873 114.345 53.9238C114.269 53.9746 114.154 54 114.002 54C113.875 54 113.769 53.9661 113.685 53.8984C113.608 53.8223 113.57 53.7207 113.57 53.5938ZM114.649 52.4512H114.599L114.7 52.3877C114.709 52.3792 114.738 52.3538 114.789 52.3115C114.848 52.2607 114.912 52.2057 114.979 52.1465C115.047 52.0788 115.115 52.0153 115.183 51.9561C115.25 51.8968 115.305 51.846 115.348 51.8037C115.542 51.6006 115.745 51.3848 115.957 51.1562C116.177 50.9277 116.376 50.6865 116.554 50.4326C116.731 50.1702 116.875 49.8994 116.985 49.6201C117.104 49.3324 117.163 49.0319 117.163 48.7188C117.163 48.4225 117.108 48.1729 116.998 47.9697C116.888 47.7581 116.74 47.5889 116.554 47.4619C116.376 47.3265 116.164 47.2292 115.919 47.1699C115.674 47.1107 115.411 47.0811 115.132 47.0811C115.106 47.0811 115.03 47.0895 114.903 47.1064C114.785 47.1149 114.7 47.1403 114.649 47.1826V52.4512ZM124.019 50.3945C124.002 50.5469 123.98 50.6654 123.955 50.75C123.938 50.8346 123.904 50.9108 123.854 50.9785C123.803 51.0462 123.731 51.1182 123.638 51.1943C123.545 51.262 123.418 51.3636 123.257 51.499C123.096 51.626 122.897 51.7952 122.66 52.0068C122.423 52.2184 122.135 52.4935 121.797 52.832C121.661 52.959 121.522 53.0902 121.378 53.2256C121.234 53.361 121.082 53.4837 120.921 53.5938C120.769 53.6953 120.608 53.7799 120.438 53.8477C120.269 53.9154 120.091 53.9492 119.905 53.9492C119.541 53.9492 119.275 53.8265 119.105 53.5811C118.936 53.3356 118.852 53.0521 118.852 52.7305C118.852 52.5189 118.856 52.3411 118.864 52.1973C118.881 52.0534 118.915 51.8672 118.966 51.6387C118.873 51.554 118.792 51.4821 118.725 51.4229C118.657 51.3551 118.623 51.2663 118.623 51.1562C118.623 51.0547 118.644 50.987 118.687 50.9531C118.737 50.9193 118.792 50.8981 118.852 50.8896C118.919 50.8727 118.983 50.8558 119.042 50.8389C119.101 50.8219 119.144 50.7881 119.169 50.7373C119.186 50.6865 119.215 50.5934 119.258 50.458C119.309 50.3226 119.359 50.1829 119.41 50.0391C119.461 49.8867 119.507 49.7471 119.55 49.6201C119.601 49.4847 119.634 49.3916 119.651 49.3408C119.711 49.1969 119.774 49.0531 119.842 48.9092C119.918 48.7568 120.003 48.6214 120.096 48.5029C120.197 48.3844 120.312 48.2871 120.438 48.2109C120.574 48.1348 120.73 48.0967 120.908 48.0967C121.01 48.0967 121.132 48.1432 121.276 48.2363C121.429 48.3294 121.573 48.4437 121.708 48.5791C121.843 48.7061 121.958 48.8415 122.051 48.9854C122.144 49.1292 122.19 49.252 122.19 49.3535C122.19 49.4805 122.161 49.599 122.102 49.709C122.042 49.8105 121.966 49.9079 121.873 50.001C121.788 50.0856 121.695 50.166 121.594 50.2422C121.492 50.3184 121.399 50.3903 121.314 50.458C121.306 50.458 121.289 50.4665 121.264 50.4834C121.238 50.5003 121.217 50.513 121.2 50.5215C121.192 50.5299 121.171 50.5511 121.137 50.585C121.111 50.6104 121.082 50.64 121.048 50.6738C121.014 50.7077 120.98 50.7415 120.946 50.7754C120.921 50.8092 120.904 50.8304 120.896 50.8389C120.87 50.8643 120.819 50.9066 120.743 50.9658C120.675 51.0166 120.599 51.0758 120.515 51.1436C120.43 51.2028 120.35 51.262 120.273 51.3213C120.206 51.3721 120.159 51.4059 120.134 51.4229L120.083 51.5244C120.066 51.5583 120.049 51.6344 120.032 51.7529C120.024 51.863 120.011 51.9899 119.994 52.1338C119.977 52.2777 119.96 52.4258 119.943 52.5781C119.935 52.722 119.931 52.8405 119.931 52.9336C119.931 52.9421 119.935 52.9505 119.943 52.959C119.96 52.9759 119.973 52.9844 119.981 52.9844C120.049 52.9844 120.113 52.9548 120.172 52.8955C120.231 52.8363 120.295 52.7939 120.362 52.7686L122.394 50.8896L122.914 50.0898C122.956 50.0306 123.037 49.9671 123.155 49.8994C123.282 49.8232 123.409 49.7852 123.536 49.7852C123.663 49.7767 123.773 49.8148 123.866 49.8994C123.968 49.984 124.019 50.1491 124.019 50.3945ZM121.226 49.4043C121.268 49.3704 121.285 49.3197 121.276 49.252C121.268 49.1842 121.243 49.125 121.2 49.0742C121.166 49.0234 121.12 48.9938 121.061 48.9854C121.001 48.9684 120.946 48.998 120.896 49.0742C120.87 49.1081 120.824 49.1758 120.756 49.2773C120.697 49.3789 120.633 49.4847 120.565 49.5947C120.506 49.6963 120.455 49.7852 120.413 49.8613C120.371 49.9375 120.362 49.9671 120.388 49.9502L121.226 49.4043ZM127.319 50.458C127.243 50.5934 127.154 50.7585 127.053 50.9531C126.96 51.1393 126.858 51.3424 126.748 51.5625C126.638 51.7741 126.515 51.9899 126.38 52.21C126.253 52.4215 126.118 52.6162 125.974 52.7939C125.838 52.9717 125.694 53.124 125.542 53.251C125.39 53.3695 125.233 53.4414 125.072 53.4668C125.005 53.4668 124.928 53.4626 124.844 53.4541C124.759 53.4372 124.674 53.416 124.59 53.3906C124.505 53.3568 124.433 53.3145 124.374 53.2637C124.323 53.2044 124.298 53.1283 124.298 53.0352C124.306 52.1719 124.37 51.389 124.488 50.6865C124.607 49.9756 124.793 49.3535 125.047 48.8203C125.301 48.2786 125.627 47.8301 126.024 47.4746C126.422 47.1191 126.905 46.8652 127.472 46.7129C127.489 46.7129 127.518 46.7129 127.561 46.7129C127.611 46.7044 127.645 46.7002 127.662 46.7002C127.916 46.6917 128.098 46.8102 128.208 47.0557C128.326 47.2926 128.411 47.6735 128.462 48.1982C128.521 48.7145 128.559 49.3831 128.576 50.2041C128.602 51.0166 128.648 51.9941 128.716 53.1367C128.741 53.2298 128.754 53.3102 128.754 53.3779C128.762 53.4456 128.767 53.526 128.767 53.6191C128.767 53.7461 128.729 53.8434 128.652 53.9111C128.576 53.9704 128.479 54 128.36 54C128.115 54 127.941 53.9323 127.84 53.7969C127.738 53.6615 127.671 53.4795 127.637 53.251C127.637 53.2425 127.628 53.1748 127.611 53.0479C127.603 52.9209 127.586 52.777 127.561 52.6162C127.544 52.4469 127.527 52.2777 127.51 52.1084C127.493 51.9391 127.48 51.7995 127.472 51.6895V51.6387C127.455 51.554 127.442 51.4482 127.434 51.3213C127.434 51.1943 127.425 51.0716 127.408 50.9531C127.391 50.8092 127.379 50.6654 127.37 50.5215L127.319 50.458ZM127.04 47.9443C126.812 48.1136 126.587 48.3421 126.367 48.6299C126.147 48.9176 125.991 49.1969 125.897 49.4678C125.855 49.5947 125.809 49.7682 125.758 49.9883C125.707 50.2083 125.66 50.4284 125.618 50.6484C125.584 50.86 125.555 51.0589 125.529 51.2451C125.504 51.4229 125.491 51.5371 125.491 51.5879C125.5 51.5879 125.508 51.5794 125.517 51.5625C125.534 51.5456 125.546 51.5329 125.555 51.5244C126.079 51.0166 126.448 50.4707 126.659 49.8867C126.879 49.2943 127.006 48.6468 127.04 47.9443ZM129.528 53.1113C129.528 52.7559 129.537 52.4089 129.554 52.0703C129.571 51.7318 129.579 51.3848 129.579 51.0293C129.554 50.0645 129.545 49.1208 129.554 48.1982C129.562 47.2673 129.52 46.3151 129.427 45.3418C129.427 45.181 129.465 45.0752 129.541 45.0244C129.617 44.9652 129.731 44.9355 129.884 44.9355C130.078 44.9355 130.243 44.9948 130.379 45.1133C130.523 45.2233 130.599 45.3799 130.607 45.583C130.59 46.7848 130.603 47.9782 130.646 49.1631C130.696 50.3395 130.722 51.5329 130.722 52.7432V53.7207C130.671 53.7884 130.599 53.8561 130.506 53.9238C130.413 53.9915 130.32 54.0169 130.227 54C129.981 53.9577 129.803 53.8604 129.693 53.708C129.583 53.5472 129.528 53.3483 129.528 53.1113ZM133.286 53.5176C133.286 53.4753 133.286 53.4372 133.286 53.4033C133.295 53.3695 133.316 53.3356 133.35 53.3018C133.451 53.1748 133.565 53.0436 133.692 52.9082C133.819 52.7643 133.942 52.6247 134.061 52.4893C134.179 52.3454 134.289 52.1973 134.391 52.0449C134.492 51.8926 134.577 51.7402 134.645 51.5879V51.5117L132.981 51.8545H132.791C132.673 51.8545 132.524 51.846 132.347 51.8291C132.177 51.8122 132.008 51.7783 131.839 51.7275C131.678 51.6683 131.538 51.5879 131.42 51.4863C131.31 51.3848 131.255 51.2493 131.255 51.0801C131.263 50.8854 131.365 50.6696 131.56 50.4326C131.754 50.1956 131.983 49.9629 132.245 49.7344C132.507 49.5059 132.77 49.2943 133.032 49.0996C133.303 48.9049 133.519 48.7526 133.68 48.6426C133.857 48.541 134.069 48.4606 134.314 48.4014C134.56 48.3337 134.784 48.2998 134.987 48.2998C135.157 48.2998 135.305 48.3337 135.432 48.4014C135.559 48.4606 135.622 48.5833 135.622 48.7695C135.622 48.8457 135.614 48.9176 135.597 48.9854C135.588 49.0531 135.537 49.0996 135.444 49.125C135.174 49.0996 134.92 49.1208 134.683 49.1885C134.446 49.2477 134.221 49.3408 134.01 49.4678C133.798 49.5947 133.599 49.7471 133.413 49.9248C133.227 50.0941 133.045 50.2718 132.867 50.458C132.816 50.5173 132.753 50.6019 132.677 50.7119C132.601 50.8135 132.562 50.8727 132.562 50.8896V50.9023C132.783 50.9023 132.998 50.8812 133.21 50.8389C133.43 50.7965 133.646 50.7542 133.857 50.7119C134.077 50.6611 134.293 50.6146 134.505 50.5723C134.725 50.5299 134.949 50.5088 135.178 50.5088C135.262 50.5088 135.355 50.5173 135.457 50.5342C135.559 50.5426 135.652 50.568 135.736 50.6104C135.829 50.6527 135.901 50.7119 135.952 50.7881C136.011 50.8558 136.041 50.9447 136.041 51.0547C136.041 51.2155 135.999 51.3721 135.914 51.5244C135.838 51.6683 135.719 51.846 135.559 52.0576C135.406 52.2607 135.207 52.5104 134.962 52.8066C134.725 53.1029 134.441 53.4837 134.111 53.9492C134.094 53.9746 134.052 53.9915 133.984 54C133.925 54.0085 133.874 54.0127 133.832 54.0127C133.714 54.0127 133.591 53.9619 133.464 53.8604C133.345 53.7588 133.286 53.6445 133.286 53.5176Z" fill="white"/>
</g>
<defs>
<clipPath id="clip0_807_12441">
<rect width="145" height="76.8792" fill="white"/>
</clipPath>
</defs>
</svg>
