<svg width="641" height="161" viewBox="0 0 641 161" fill="none" xmlns="http://www.w3.org/2000/svg">
<path d="M0 36.2713H17.8102V46.7667H24.8672V62.7658H31.684V41.503H37.0607V23.904H54.2148V75.565H62.568V35.9193H65.7684V12.4487H79.9301V46.7667H83.7546V26.1439H98.1564V92.668H110.574V84.2365H124.48V37.4712H138.881V46.7667H142.706V12.4487H156.884V35.9193H160.084V75.565H168.437V23.824H185.591V41.423H190.968V62.7658H197.801V46.7667H204.842V36.2713H220.54V72.9732H228.301V55.1502H238.846V18.3523H257.072V86.2844H266.081V46.2867H281.043V51.5664H284.244V63.0217H289.588V55.5662H309.991V69.9653H313.799V42.7669H334.122V57.1661H341.499V91.8841H348.7V28.8957H352.588V18.1603L359.421 11.3288H369.406V42.7349H377.183V63.3737H389.841V57.8381H393.041V78.9728H397.17V92.668H401.33V77.3569H405.235V67.9175H408.883V70.7653H411.251V76.7009H422.037V91.2601H441.751V92.748H454.889V86.3484H470.331V92.748H492.462V84.8765H501.455V62.1898H522.769V74.2051H526.658V68.7814H536.707V43.6469H540.628V38.4312H556.07V43.6469H563.895V73.5171H570.071V64.8456H578.2V41.263H587.194V18.6563H608.492V30.6716H613.901V40.1111H622.446V0.113403H640.048V161H0V36.2073V36.2713ZM634.959 42.223H637.008V38.7672H634.959V42.223ZM634.959 35.5354H637.008V32.0796H634.959V35.5354ZM625.006 14.3526H627.054V10.8968H625.006V14.3526ZM625.006 7.68098H627.054V4.22518H625.006V7.68098ZM605.26 65.5976H607.324V62.1418H605.26V65.5976ZM600.459 52.2384H602.507V48.7826H600.459V52.2384ZM600.459 45.5668H602.507V42.0949H600.459V45.5668ZM595.659 25.5199H597.707V22.0641H595.659V25.5199ZM590.858 38.8792H592.922V35.4234H590.858V38.8792ZM590.858 32.1916H592.922V28.7358H590.858V32.1916ZM590.858 25.5199H592.922V22.0641H590.858V25.5199ZM585.385 63.4857H586.281V44.4468H585.385V63.4857ZM582.889 63.4857H583.785V44.4468H582.889V63.4857ZM580.377 63.4857H581.273V44.4468H580.377V63.4857ZM543.748 42.111H551.605V40.943H543.748V42.111ZM539.299 57.8861H540.628V54.4303H539.299V57.8861ZM539.299 51.2144H540.628V47.7426H539.299V51.2144ZM514.768 92.668H516.833V92.316H514.768V92.668ZM514.768 89.0842H516.833V85.6284H514.768V89.0842ZM509.968 69.0534H512.032V65.5976H509.968V69.0534ZM505.167 82.4126H507.216V78.9568H505.167V82.4126ZM505.167 75.725H507.216V72.2692H505.167V75.725ZM505.167 69.0534H507.216V65.5976H505.167V69.0534ZM499.678 92.668H500.575V87.9803H499.678V92.668ZM497.182 92.668H498.078V87.9803H497.182V92.668ZM494.686 92.668H495.582V87.9803H494.686V92.668ZM458.009 92.668H465.85V92.108H458.009V92.668ZM458.009 89.9002H465.85V88.7482H458.009V89.9002ZM403.603 91.2601H410.867V90.2041H403.603V91.2601ZM403.603 88.4123H410.867V87.3563H403.603V88.4123ZM403.603 85.5804H410.867V84.5245H403.603V85.5804ZM403.603 82.7326H410.867V81.6767H403.603V82.7326ZM368.35 65.9656H370.398V62.5098H368.35V65.9656ZM364.398 24.256H366.446V20.8002H364.398V24.256ZM364.398 17.5844H366.446V14.1126H364.398V17.5844ZM351.596 60.9579H353.66V57.4861H351.596V60.9579ZM351.068 45.6628H358.317V44.6068H351.068V45.6628ZM351.068 42.8149H358.317V41.759H351.068V42.8149ZM351.068 39.9831H358.317V38.9272H351.068V39.9831ZM351.068 37.1353H358.317V36.0793H351.068V37.1353ZM351.068 34.3034H358.317V33.2475H351.068V34.3034ZM336.09 90.9241H338.154V87.4683H336.09V90.9241ZM336.09 84.2365H338.154V80.7807H336.09V84.2365ZM336.09 70.8773H338.154V67.4055H336.09V70.8773ZM330.057 90.9241H332.106V87.4683H330.057V90.9241ZM330.057 84.2365H332.106V80.7807H330.057V84.2365ZM330.057 50.8464H332.106V47.3747H330.057V50.8464ZM325.257 70.8773H327.305V67.4055H325.257V70.8773ZM325.257 57.5181H327.305V54.0623H325.257V57.5181ZM325.257 50.8464H327.305V47.3747H325.257V50.8464ZM311.895 83.7245H313.751V80.2687H311.895V83.7245ZM305.846 63.6777H307.895V60.2059H305.846V63.6777ZM301.046 83.7245H303.11V80.2687H301.046V83.7245ZM301.046 70.3653H303.11V66.8935H301.046V70.3653ZM301.046 63.6777H303.11V60.2059H301.046V63.6777ZM278.643 88.3643H280.691V84.9085H278.643V88.3643ZM278.643 81.6926H280.691V78.2209H278.643V81.6926ZM268.69 60.5099H270.738V57.0541H268.69V60.5099ZM268.69 53.8223H270.738V50.3665H268.69V53.8223ZM244.687 63.4217H246.063V61.1658H244.687V63.4217ZM244.687 58.942H246.063V56.6221H244.687V58.942ZM240.574 26.9438H241.95V24.624H240.574V26.9438ZM240.574 22.4641H241.95V20.1442H240.574V22.4641ZM233.469 69.2934H234.061V56.4941H233.469V69.2934ZM231.869 69.2934H232.477V56.4941H231.869V69.2934ZM230.269 69.2934H230.877V56.4941H230.269V69.2934ZM217.467 67.2775H218.843V64.9576H217.467V67.2775ZM217.467 62.7977H218.843V60.4779H217.467V62.7977ZM217.467 58.318H218.843V55.9822H217.467V58.318ZM217.467 53.8223H218.843V51.5664H217.467V53.8223ZM217.467 49.3425H218.843V47.0227H217.467V49.3425ZM217.467 44.8628H218.843V42.5429H217.467V44.8628ZM217.467 40.3831H218.843V38.0632H217.467V40.3831ZM214.267 67.2775H215.643V64.9576H214.267V67.2775ZM214.267 62.7977H215.643V60.4779H214.267V62.7977ZM214.267 58.318H215.643V55.9822H214.267V58.318ZM214.267 53.8223H215.643V51.5664H214.267V53.8223ZM214.267 49.3425H215.643V47.0227H214.267V49.3425ZM214.267 44.8628H215.643V42.5429H214.267V44.8628ZM214.267 40.3831H215.643V38.0632H214.267V40.3831ZM199.289 67.9494H204.09V67.2455H199.289V67.9494ZM199.289 66.0455H204.09V65.3416H199.289V66.0455ZM199.289 64.1417H204.09V63.4217H199.289V64.1417ZM199.289 62.2378H204.09V61.5178H199.289V62.2378ZM199.289 60.3179H204.09V59.6139H199.289V60.3179ZM199.289 58.414H204.09V57.71H199.289V58.414ZM199.289 56.5101H204.09V55.8062H199.289V56.5101ZM199.289 54.6062H204.09V53.9023H199.289V54.6062ZM199.289 52.7023H204.09V51.9984H199.289V52.7023ZM199.289 50.7984H204.09V50.0945H199.289V50.7984ZM199.289 48.8945H204.09V48.3666H199.289V48.8945ZM187.352 67.8855H188.728V65.5656H187.352V67.8855ZM187.352 63.4057H188.728V61.1658H187.352V63.4057ZM179.622 36.3993H180.999V34.0794H179.622V36.3993ZM179.622 31.9196H180.999V29.5997H179.622V31.9196ZM179.622 27.4238H180.999V25.1039H179.622V27.4238ZM176.422 27.4238H177.798V25.1039H176.422V27.4238ZM173.222 45.3588H174.598V43.0389H173.222V45.3588ZM173.222 40.879H174.598V38.5592H173.222V40.879ZM170.021 69.4374H171.398V67.1175H170.021V69.4374ZM170.021 64.9576H171.398V62.7658H170.021V64.9576ZM170.021 54.3182H171.398V51.9984H170.021V54.3182ZM170.021 31.9196H171.398V29.5997H170.021V31.9196ZM170.021 27.4238H171.398V25.1039H170.021V27.4238ZM157.22 63.0217H158.596V60.7019H157.22V63.0217ZM157.22 58.542H158.596V56.3661H157.22V58.542ZM154.019 29.7437H155.396V27.5678H154.019V29.7437ZM154.019 20.7842H155.396V18.4643H154.019V20.7842ZM154.019 16.3045H155.396V13.9686H154.019V16.3045ZM150.819 43.1829H152.195V40.863H150.819V43.1829ZM150.819 38.7031H152.195V36.3833H150.819V38.7031ZM150.819 16.3045H152.195V13.9686H150.819V16.3045ZM144.418 43.1829H145.794V40.863H144.418V43.1829ZM144.418 38.7031H145.794V36.3833H144.418V38.7031ZM144.418 29.7437H145.794V27.5678H144.418V29.7437ZM144.418 20.7842H145.794V18.4643H144.418V20.7842ZM144.418 16.3045H145.794V13.9686H144.418V16.3045ZM136.193 54.1263H141.458V53.3583H136.193V54.1263ZM136.193 51.8864H141.458V51.1024H136.193V51.8864ZM136.193 49.6305H141.458V48.8465H136.193V49.6305ZM81.6102 54.1263H86.8909V53.3583H81.6102V54.1263ZM81.6102 51.8864H86.8909V51.1024H81.6102V51.8864ZM81.6102 49.6305H86.8909V48.8465H81.6102V49.6305ZM77.2897 43.2309H78.6659V40.911H77.2897V43.2309ZM77.2897 38.7511H78.6659V36.4313H77.2897V38.7511ZM77.2897 29.7917H78.6659V27.5678H77.2897V29.7917ZM77.2897 20.8322H78.6659V18.5123H77.2897V20.8322ZM77.2897 16.3524H78.6659V14.0166H77.2897V16.3524ZM70.8889 43.2309H72.2651V40.911H70.8889V43.2309ZM70.8889 38.7511H72.2651V36.4313H70.8889V38.7511ZM70.8889 16.3524H72.2651V14.0166H70.8889V16.3524ZM67.6885 29.7917H69.0647V27.5678H67.6885V29.7917ZM67.6885 20.8322H69.0647V18.5123H67.6885V20.8322ZM67.6885 16.3524H69.0647V14.0166H67.6885V16.3524ZM64.4881 63.0537H65.8643V60.7339H64.4881V63.0537ZM64.4881 58.574H65.8643V56.3661H64.4881V58.574ZM51.6865 69.4694H53.0627V67.1495H51.6865V69.4694ZM51.6865 64.9896H53.0627V62.7658H51.6865V64.9896ZM51.6865 54.3502H53.0627V52.0304H51.6865V54.3502ZM51.6865 31.9515H53.0627V29.6317H51.6865V31.9515ZM51.6865 27.4558H53.0627V25.136H51.6865V27.4558ZM48.4861 45.3908H49.8783V43.0709H48.4861V45.3908ZM48.4861 40.911H49.8783V38.5912H48.4861V40.911ZM45.2857 27.4558H46.6619V25.136H45.2857V27.4558ZM42.0853 36.4313H43.4615V34.1114H42.0853V36.4313ZM42.0853 31.9515H43.4615V29.6317H42.0853V31.9515ZM42.0853 27.4558H43.4615V25.136H42.0853V27.4558ZM34.3725 67.9175H35.7486V65.5976H34.3725V67.9175ZM34.3725 63.4377H35.7486V61.1658H34.3725V63.4377ZM18.9305 67.9815H23.811V67.2775H18.9305V67.9815ZM18.9305 66.0776H23.811V65.3736H18.9305V66.0776ZM18.9305 64.1737H23.811V63.4537H18.9305V64.1737ZM18.9305 62.2698H23.811V61.5498H18.9305V62.2698ZM18.9305 60.3499H23.811V59.6459H18.9305V60.3499ZM18.9305 58.446H23.811V57.742H18.9305V58.446ZM18.9305 56.5421H23.811V55.8382H18.9305V56.5421ZM18.9305 54.6383H23.811V53.9343H18.9305V54.6383ZM18.9305 52.7344H23.811V52.0304H18.9305V52.7344ZM18.9305 50.8305H23.811V50.1265H18.9305V50.8305ZM18.9305 48.9266H23.811V48.3666H18.9305V48.9266ZM7.45699 67.3095H8.83314V64.9896H7.45699V67.3095ZM7.45699 62.8298H8.83314V60.5099H7.45699V62.8298ZM7.45699 58.35H8.83314V56.0141H7.45699V58.35ZM7.45699 53.8543H8.83314V51.5664H7.45699V53.8543ZM7.45699 49.3745H8.83314V47.0547H7.45699V49.3745ZM7.45699 44.8948H8.83314V42.5749H7.45699V44.8948ZM7.45699 40.4151H8.83314V38.0952H7.45699V40.4151ZM4.25659 67.3095H5.63274V64.9896H4.25659V67.3095ZM4.25659 62.8298H5.63274V60.5099H4.25659V62.8298ZM4.25659 58.35H5.63274V56.0141H4.25659V58.35ZM4.25659 53.8543H5.63274V51.5664H4.25659V53.8543ZM4.25659 49.3745H5.63274V47.0547H4.25659V49.3745ZM4.25659 44.8948H5.63274V42.5749H4.25659V44.8948ZM4.25659 40.4151H5.63274V38.0952H4.25659V40.4151Z" fill="white"/>
</svg>
