<svg xmlns="http://www.w3.org/2000/svg" width="63" height="21" viewBox="0 0 63 21" fill="none">
  <path d="M33.3027 0.71679C33.0931 -0.230528 31.2236 -0.247295 31.0308 0.71679C30.5949 2.85455 30.5781 5.02583 30.402 7.18874C30.2008 9.71213 29.6727 12.2607 30.4943 14.7254C30.8464 15.7817 32.632 15.7565 32.9925 14.7254C33.7386 12.6044 33.5542 10.4163 33.5961 8.22828C33.6464 5.71327 33.8392 3.1815 33.3027 0.71679Z" fill="white"/>
  <path d="M20.4257 12.4787C19.1346 11.1877 18.0196 9.72898 16.737 8.42956C15.7561 7.44032 14.1885 8.69783 14.8424 9.88826C15.5466 11.1709 16.5442 12.3194 17.4328 13.4763C18.1119 14.3566 18.9502 15.1782 19.4532 16.1758C19.8388 16.9219 21.1802 17.0057 21.5323 16.1758C22.1694 14.7087 21.4904 13.5434 20.4257 12.4787Z" fill="white"/>
  <path d="M11.2542 18.7997C9.29249 17.4835 7.15474 16.5697 5.13435 15.3625C3.7511 14.5326 2.20856 13.5266 0.531892 13.8703C-0.0800927 13.996 -0.197462 14.9266 0.355839 15.2116C1.94868 16.0248 3.31516 16.9973 4.74872 18.0703C6.49246 19.3781 8.45416 19.9985 10.5416 20.5015C11.5895 20.753 12.1261 19.3865 11.2542 18.7997Z" fill="white"/>
  <path d="M42.2226 12.7386C43.5136 11.4476 44.6286 9.98887 45.9113 8.68945C46.8921 7.70021 48.4598 8.95771 47.8059 10.1481C47.1017 11.4308 46.1041 12.5793 45.2155 13.7362C44.5364 14.6165 43.6981 15.438 43.1951 16.4357C42.8094 17.1818 41.4681 17.2656 41.116 16.4357C40.4873 14.9602 41.1579 13.8033 42.2226 12.7386Z" fill="white"/>
  <path d="M51.7461 18.7997C53.7078 17.4835 55.8456 16.5697 57.8659 15.3625C59.2492 14.5326 60.7917 13.5266 62.4684 13.8703C63.0804 13.996 63.1978 14.9266 62.6445 15.2116C61.0516 16.0248 59.6851 16.9973 58.2516 18.0703C56.5078 19.3781 54.5461 19.9985 52.4587 20.5015C51.4108 20.753 50.8826 19.3865 51.7461 18.7997Z" fill="white"/>
</svg>