<svg xmlns="http://www.w3.org/2000/svg" version="1.1" xmlns:xlink="http://www.w3.org/1999/xlink" xmlns:svgjs="http://svgjs.dev/svgjs" width="1440" height="560" preserveAspectRatio="none" viewBox="0 0 1440 560">
    <g mask="url(&quot;#SvgjsMask1083&quot;)" fill="none">
        <path d="M128.99 302.5L193.95 340L193.95 415L128.99 452.5L64.04 415L64.04 340zM388.81 77.5L453.76 115L453.76 190L388.81 227.5L323.86 190L323.86 115zM713.58 190L778.53 227.5L778.53 302.5L713.58 340L648.62 302.5L648.62 227.5zM1168.25 302.5L1233.21 340L1233.21 415L1168.25 452.5L1103.3 415L1103.3 340zM1233.21 190L1298.16 227.5L1298.16 302.5L1233.21 340L1168.25 302.5L1168.25 227.5zM1363.12 190L1428.07 227.5L1428.07 302.5L1363.12 340L1298.16 302.5L1298.16 227.5zM1428.07 527.5L1493.02 565L1493.02 640L1428.07 677.5L1363.12 640L1363.12 565zM1557.98 527.5L1622.93 565L1622.93 640L1557.98 677.5L1493.02 640L1493.02 565z" stroke="rgba(45, 35, 48, 1)" stroke-width="2"></path>
        <path d="M121.49 302.5 a7.5 7.5 0 1 0 15 0 a7.5 7.5 0 1 0 -15 0zM186.45 340 a7.5 7.5 0 1 0 15 0 a7.5 7.5 0 1 0 -15 0zM186.45 415 a7.5 7.5 0 1 0 15 0 a7.5 7.5 0 1 0 -15 0zM121.49 452.5 a7.5 7.5 0 1 0 15 0 a7.5 7.5 0 1 0 -15 0zM56.54 415 a7.5 7.5 0 1 0 15 0 a7.5 7.5 0 1 0 -15 0zM56.54 340 a7.5 7.5 0 1 0 15 0 a7.5 7.5 0 1 0 -15 0zM381.31 77.5 a7.5 7.5 0 1 0 15 0 a7.5 7.5 0 1 0 -15 0zM446.26 115 a7.5 7.5 0 1 0 15 0 a7.5 7.5 0 1 0 -15 0zM446.26 190 a7.5 7.5 0 1 0 15 0 a7.5 7.5 0 1 0 -15 0zM381.31 227.5 a7.5 7.5 0 1 0 15 0 a7.5 7.5 0 1 0 -15 0zM316.36 190 a7.5 7.5 0 1 0 15 0 a7.5 7.5 0 1 0 -15 0zM316.36 115 a7.5 7.5 0 1 0 15 0 a7.5 7.5 0 1 0 -15 0zM706.08 190 a7.5 7.5 0 1 0 15 0 a7.5 7.5 0 1 0 -15 0zM771.03 227.5 a7.5 7.5 0 1 0 15 0 a7.5 7.5 0 1 0 -15 0zM771.03 302.5 a7.5 7.5 0 1 0 15 0 a7.5 7.5 0 1 0 -15 0zM706.08 340 a7.5 7.5 0 1 0 15 0 a7.5 7.5 0 1 0 -15 0zM641.12 302.5 a7.5 7.5 0 1 0 15 0 a7.5 7.5 0 1 0 -15 0zM641.12 227.5 a7.5 7.5 0 1 0 15 0 a7.5 7.5 0 1 0 -15 0zM1160.75 302.5 a7.5 7.5 0 1 0 15 0 a7.5 7.5 0 1 0 -15 0zM1225.71 340 a7.5 7.5 0 1 0 15 0 a7.5 7.5 0 1 0 -15 0zM1225.71 415 a7.5 7.5 0 1 0 15 0 a7.5 7.5 0 1 0 -15 0zM1160.75 452.5 a7.5 7.5 0 1 0 15 0 a7.5 7.5 0 1 0 -15 0zM1095.8 415 a7.5 7.5 0 1 0 15 0 a7.5 7.5 0 1 0 -15 0zM1095.8 340 a7.5 7.5 0 1 0 15 0 a7.5 7.5 0 1 0 -15 0zM1225.71 190 a7.5 7.5 0 1 0 15 0 a7.5 7.5 0 1 0 -15 0zM1290.66 227.5 a7.5 7.5 0 1 0 15 0 a7.5 7.5 0 1 0 -15 0zM1290.66 302.5 a7.5 7.5 0 1 0 15 0 a7.5 7.5 0 1 0 -15 0zM1160.75 227.5 a7.5 7.5 0 1 0 15 0 a7.5 7.5 0 1 0 -15 0zM1355.62 190 a7.5 7.5 0 1 0 15 0 a7.5 7.5 0 1 0 -15 0zM1420.57 227.5 a7.5 7.5 0 1 0 15 0 a7.5 7.5 0 1 0 -15 0zM1420.57 302.5 a7.5 7.5 0 1 0 15 0 a7.5 7.5 0 1 0 -15 0zM1355.62 340 a7.5 7.5 0 1 0 15 0 a7.5 7.5 0 1 0 -15 0zM1420.57 527.5 a7.5 7.5 0 1 0 15 0 a7.5 7.5 0 1 0 -15 0zM1485.52 565 a7.5 7.5 0 1 0 15 0 a7.5 7.5 0 1 0 -15 0zM1485.52 640 a7.5 7.5 0 1 0 15 0 a7.5 7.5 0 1 0 -15 0zM1420.57 677.5 a7.5 7.5 0 1 0 15 0 a7.5 7.5 0 1 0 -15 0zM1355.62 640 a7.5 7.5 0 1 0 15 0 a7.5 7.5 0 1 0 -15 0zM1355.62 565 a7.5 7.5 0 1 0 15 0 a7.5 7.5 0 1 0 -15 0zM1550.48 527.5 a7.5 7.5 0 1 0 15 0 a7.5 7.5 0 1 0 -15 0zM1615.43 565 a7.5 7.5 0 1 0 15 0 a7.5 7.5 0 1 0 -15 0zM1615.43 640 a7.5 7.5 0 1 0 15 0 a7.5 7.5 0 1 0 -15 0zM1550.48 677.5 a7.5 7.5 0 1 0 15 0 a7.5 7.5 0 1 0 -15 0z" fill="rgba(45, 35, 48, 1)"></path>
        <path d="M54.77 175.13L94.61 198.13L94.61 244.13L54.77 267.13L14.93 244.13L14.93 198.13zM134.44 37.13L174.28 60.13L174.28 106.13L134.44 129.13L94.61 106.13L94.61 60.13zM134.44 313.13L174.28 336.13L174.28 382.13L134.44 405.13L94.61 382.13L94.61 336.13zM174.28 244.13L214.12 267.13L214.12 313.13L174.28 336.13L134.44 313.13L134.44 267.13zM174.28 520.13L214.12 543.13L214.12 589.13L174.28 612.13L134.44 589.13L134.44 543.13zM253.96 244.13L293.8 267.13L293.8 313.13L253.96 336.13L214.12 313.13L214.12 267.13zM293.8 313.13L333.64 336.13L333.64 382.13L293.8 405.13L253.96 382.13L253.96 336.13zM293.8 451.13L333.64 474.13L333.64 520.13L293.8 543.13L253.96 520.13L253.96 474.13zM333.64 106.13L373.47 129.13L373.47 175.13L333.64 198.13L293.8 175.13L293.8 129.13zM373.47 313.13L413.31 336.13L413.31 382.13L373.47 405.13L333.64 382.13L333.64 336.13zM453.15 37.13L492.99 60.13L492.99 106.13L453.15 129.13L413.31 106.13L413.31 60.13zM492.99 -31.87L532.83 -8.87L532.83 37.13L492.99 60.13L453.15 37.13L453.15 -8.87zM532.83 175.13L572.67 198.13L572.67 244.13L532.83 267.13L492.99 244.13L492.99 198.13zM532.83 313.13L572.67 336.13L572.67 382.13L532.83 405.13L492.99 382.13L492.99 336.13zM532.83 451.13L572.67 474.13L572.67 520.13L532.83 543.13L492.99 520.13L492.99 474.13zM492.99 520.13L532.83 543.13L532.83 589.13L492.99 612.13L453.15 589.13L453.15 543.13zM572.67 520.13L612.5 543.13L612.5 589.13L572.67 612.13L532.83 589.13L532.83 543.13zM732.02 -31.87L771.86 -8.87L771.86 37.13L732.02 60.13L692.18 37.13L692.18 -8.87zM771.86 313.13L811.7 336.13L811.7 382.13L771.86 405.13L732.02 382.13L732.02 336.13zM771.86 451.13L811.7 474.13L811.7 520.13L771.86 543.13L732.02 520.13L732.02 474.13zM891.37 -31.87L931.21 -8.87L931.21 37.13L891.37 60.13L851.53 37.13L851.53 -8.87zM931.21 175.13L971.05 198.13L971.05 244.13L931.21 267.13L891.37 244.13L891.37 198.13zM891.37 382.13L931.21 405.13L931.21 451.13L891.37 474.13L851.53 451.13L851.53 405.13zM1050.73 244.13L1090.56 267.13L1090.56 313.13L1050.73 336.13L1010.89 313.13L1010.89 267.13zM1170.24 313.13L1210.08 336.13L1210.08 382.13L1170.24 405.13L1130.4 382.13L1130.4 336.13zM1170.24 451.13L1210.08 474.13L1210.08 520.13L1170.24 543.13L1130.4 520.13L1130.4 474.13zM1289.76 106.13L1329.59 129.13L1329.59 175.13L1289.76 198.13L1249.92 175.13L1249.92 129.13zM1289.76 382.13L1329.59 405.13L1329.59 451.13L1289.76 474.13L1249.92 451.13L1249.92 405.13zM1369.43 -31.87L1409.27 -8.87L1409.27 37.13L1369.43 60.13L1329.59 37.13L1329.59 -8.87zM1369.43 244.13L1409.27 267.13L1409.27 313.13L1369.43 336.13L1329.59 313.13L1329.59 267.13zM1369.43 520.13L1409.27 543.13L1409.27 589.13L1369.43 612.13L1329.59 589.13L1329.59 543.13zM1449.11 106.13L1488.95 129.13L1488.95 175.13L1449.11 198.13L1409.27 175.13L1409.27 129.13z" stroke="rgba(45, 35, 48, 1)" stroke-width="2"></path>
    </g>
    <defs>
        <mask id="SvgjsMask1083">
            <rect width="1440" height="560" fill="#ffffff"></rect>
        </mask>
    </defs>
</svg>