<svg xmlns="http://www.w3.org/2000/svg" width="50" height="50" viewBox="0 0 50 50" fill="none">
<path d="M49.0234 25.6653H46.5602C46.2592 25.6653 45.975 25.8041 45.79 26.0414L44.3046 27.9461C43.9727 28.3714 44.0486 28.9848 44.474 29.3167C44.6525 29.4559 44.8638 29.5231 45.074 29.5231C45.3647 29.5231 45.6519 29.3941 45.8446 29.1473L47.0371 27.6188H49.0234C49.5628 27.6188 49.9999 27.1816 49.9999 26.6422C49.9999 26.1028 49.5628 25.6653 49.0234 25.6653Z" fill="#CB4845"/>
<path d="M41.0674 33.6837C40.642 33.3522 40.0286 33.4278 39.6968 33.8531L38.3235 35.614H34.048L30.633 23.9135C31.6287 23.5347 32.3378 22.5708 32.3378 21.4439C32.3378 19.9875 31.153 18.8022 29.6962 18.8022H29.1411L28.4335 16.3772C28.282 15.8596 27.7396 15.5624 27.2223 15.7135C26.7047 15.8645 26.4075 16.4066 26.5586 16.9243L27.1067 18.8022H26.586L22.9579 15.3396C23.0349 15.2912 23.1116 15.2412 23.1864 15.1882C24.219 14.4573 24.9049 13.3682 25.1178 12.1212C25.331 10.8745 25.0457 9.61951 24.3148 8.58725C23.5839 7.55462 22.4948 6.86911 21.2478 6.65587C18.674 6.21566 16.2223 7.95211 15.7824 10.5259C15.5169 12.0785 16.0445 13.5864 17.0695 14.6355C16.7975 14.7632 16.5419 14.912 16.3043 15.0799C15.8465 14.1231 14.9611 13.393 13.8575 13.195C12.9802 13.0379 12.0948 13.2347 11.3639 13.7501C10.617 14.2769 10.1214 15.0696 9.96961 15.982C9.87195 16.5676 9.92803 17.1451 10.1081 17.6716C10.0604 17.6945 10.0142 17.72 9.97075 17.7505C9.75789 17.8993 9.61293 18.127 9.5683 18.3834L8.19616 26.2615C7.94935 27.6806 8.86296 29.0352 10.2328 29.2804L11.8773 29.5753C12.0257 29.602 12.173 29.615 12.3187 29.615C12.4282 29.615 12.5358 29.6055 12.6422 29.5913L12.3378 34.2651L9.9677 39.1536C9.74301 39.6179 9.62896 40.1142 9.62896 40.628C9.62896 41.1289 9.7434 41.6153 9.94939 42.0562H8.81566C8.62951 42.0562 8.44716 42.1096 8.29038 42.2096L0.451565 47.2084C-0.00314689 47.4983 -0.136661 48.1021 0.153256 48.5569C0.339413 48.8487 0.655269 49.0085 0.977611 49.0085C1.15728 49.0085 1.33886 48.9589 1.50175 48.8552L9.10024 44.0094H12.8188C12.8825 44.0132 12.9458 44.0151 13.0092 44.0151C13.0618 44.0151 13.1141 44.012 13.1663 44.0094H23.5789C23.8292 44.0094 24.0699 43.9132 24.2514 43.7408L30.749 37.5675H33.3094H33.3152H33.3186H38.8003C39.1009 37.5675 39.3851 37.4286 39.5701 37.1914L41.2367 35.0547C41.5686 34.629 41.4927 34.0156 41.0674 33.6837ZM16.6354 30.0914C16.2574 30.0266 15.8389 29.9987 15.4952 29.8179C14.8875 29.4979 14.5793 28.8196 14.6918 28.1517C14.7231 27.9667 14.7551 27.7813 14.7868 27.5963C17.6196 27.4646 19.596 26.6681 20.9201 25.8182L20.6912 27.1579C20.6179 27.5871 20.8377 28.0132 21.2298 28.2024L24.7062 29.8774L28.7455 34.9765C29.2361 35.5961 29.1316 36.499 28.5121 36.9896C27.8929 37.4801 26.99 37.3752 26.4994 36.7561L23.0082 32.3494C22.9167 32.2334 22.7996 32.1399 22.6668 32.0758L19.7245 30.6579C19.6421 30.6183 19.5548 30.5904 19.4651 30.5751L16.6354 30.0914ZM30.2764 33.7639L26.097 28.4877C26.0283 28.4015 25.9463 28.3283 25.8548 28.2703C25.8227 28.2501 25.7888 28.231 25.7537 28.2142L22.7404 26.762L23.1978 24.0856H28.6486L32.0132 35.614H30.9977C30.95 34.9609 30.7132 34.3147 30.2764 33.7639ZM26.195 20.7554H28.4026C28.4045 20.7554 28.4064 20.7557 28.4083 20.7557C28.4095 20.7557 28.4106 20.7554 28.4117 20.7554H29.6962C30.0761 20.7554 30.3847 21.0644 30.3847 21.4439C30.3847 21.8235 30.0761 22.1325 29.6962 22.1325H29.3994C29.3982 22.1325 29.3971 22.1325 29.3963 22.1325H22.7366L20.7621 20.4307C20.3532 20.079 19.7367 20.1248 19.3847 20.5333C19.0326 20.9419 19.0783 21.5584 19.4869 21.9105L21.0315 23.2414C20.2586 24.044 18.4951 25.3662 15.1248 25.6195L15.4837 23.5195L16.162 19.553C16.1624 19.5503 16.1624 19.5476 16.1628 19.545L16.3638 18.3685C16.5587 17.2291 17.5307 16.0324 19.6704 16.0324C19.7196 16.0324 19.7692 16.0332 19.8199 16.0343C19.8279 16.0347 19.8363 16.0347 19.8443 16.0347C20.5142 16.0347 21.1161 16.2659 21.5384 16.6851C21.551 16.6977 21.564 16.7099 21.577 16.7217L25.5206 20.4853C25.7026 20.6589 25.944 20.7554 26.195 20.7554ZM17.7077 10.8547C17.9393 9.50049 19.1184 8.5411 20.4486 8.5411C20.6038 8.5411 20.761 8.55406 20.9189 8.58115C21.6513 8.70627 22.2911 9.1091 22.7206 9.71564C23.1501 10.3222 23.318 11.0599 23.1925 11.7924C22.9613 13.1466 21.7818 14.1064 20.4516 14.106C20.2964 14.106 20.1392 14.093 19.9813 14.0659C18.4691 13.8077 17.4491 12.3669 17.7077 10.8547ZM11.896 16.3032C11.9616 15.9096 12.1722 15.5697 12.4892 15.3461C12.7227 15.1817 12.9939 15.0959 13.2716 15.0959C13.3517 15.0959 13.4322 15.1031 13.5127 15.1176C14.2856 15.2561 14.8051 16.0225 14.6712 16.8255C14.6056 17.2191 14.3947 17.559 14.0777 17.7826C13.7771 17.9947 13.4139 18.0755 13.0546 18.0115C12.2817 17.8726 11.7618 17.1062 11.896 16.3032ZM12.2222 27.6531L10.5777 27.3578C10.2622 27.3014 10.057 26.9596 10.1203 26.596L11.3238 19.6853L14.0731 20.1786L13.6096 22.8908L12.8711 27.2091C12.7742 27.5089 12.4957 27.7019 12.2222 27.6531ZM12.3896 41.9189C11.8914 41.6774 11.5821 41.1827 11.5821 40.6276C11.5821 40.411 11.6305 40.2011 11.7255 40.0051L14.1784 34.9453C14.2337 34.832 14.2661 34.7088 14.2741 34.5829L14.4759 31.488C15.2121 31.9099 16.0899 31.9793 16.9131 32.1205C17.068 32.1468 17.2229 32.1735 17.3777 32.1998L17.158 35.3668L14.3039 41.2548C14.0738 41.7289 13.6145 42.0181 13.1232 42.0562H12.9016C12.7284 42.0425 12.5552 41.999 12.3896 41.9189ZM23.1887 42.0562H16.0857L18.9978 36.0489C19.0181 36.0073 19.0348 35.9649 19.049 35.9214C19.0726 35.8478 19.0879 35.77 19.0936 35.6895L19.3061 32.6244L21.6166 33.7379L24.9686 37.9688C25.3539 38.4552 25.8471 38.8065 26.3873 39.0171L23.1887 42.0562Z" fill="#CB4845"/>
<path d="M37.925 13.7482H42.9215C44.9891 13.7482 46.6713 12.0659 46.6713 9.998C46.6713 7.93043 44.9891 6.24815 42.9215 6.24815C42.4222 6.24815 41.9308 6.3481 41.4757 6.53807C40.6403 5.45164 39.3361 4.78979 37.925 4.78979C35.455 4.78979 33.4458 6.79899 33.4458 9.26901C33.4458 10.4653 33.9116 11.5903 34.7577 12.4363C35.6038 13.2824 36.7283 13.7482 37.925 13.7482ZM37.925 6.74292C38.9313 6.74292 39.8411 7.33954 40.2428 8.26346C40.3657 8.54612 40.6148 8.75441 40.915 8.82498C41.2148 8.89517 41.5307 8.82002 41.7668 8.62166C42.0941 8.34662 42.4931 8.20128 42.9215 8.20128C43.9122 8.20128 44.7182 9.00732 44.7182 9.998C44.7182 10.9891 43.9122 11.7951 42.9215 11.7951H37.925C37.2502 11.7951 36.6158 11.5323 36.1386 11.055C35.6614 10.5782 35.3989 9.94383 35.3989 9.26901C35.3989 7.87588 36.5323 6.74292 37.925 6.74292Z" fill="#CB4845"/>
<path d="M5.90449 11.2853C7.87097 11.2853 9.47085 9.68542 9.47085 7.71895C9.47085 5.75247 7.87097 4.15259 5.90449 4.15259C4.95196 4.15259 4.05627 4.52338 3.38298 5.19705C2.7093 5.87073 2.33813 6.76642 2.33813 7.71895C2.33813 9.68542 3.9384 11.2853 5.90449 11.2853ZM4.7639 6.57835C5.06869 6.27356 5.47381 6.10571 5.90449 6.10571C6.79408 6.10571 7.51773 6.82936 7.51773 7.71895C7.51773 8.60853 6.79408 9.33218 5.90449 9.33218C5.01529 9.33218 4.29126 8.60853 4.29126 7.71895C4.29126 7.28788 4.4591 6.88276 4.7639 6.57835Z" fill="#CB4845"/>
<path d="M0.488244 5.74144L0.946389 6.0058C1.10012 6.09468 1.26835 6.13702 1.43391 6.13702C1.77151 6.13702 2.09957 5.96193 2.28039 5.64836C2.55009 5.18144 2.39025 4.58406 1.92295 4.31436L1.46481 4.05001C0.997888 3.78031 0.400506 3.94014 0.130808 4.40744C-0.13851 4.87436 0.0213258 5.47174 0.488244 5.74144Z" fill="#CB4845"/>
<path d="M11.3206 9.74015L10.8624 9.47579C10.3955 9.20609 9.79814 9.36592 9.52844 9.83322C9.25874 10.3001 9.41896 10.8975 9.88587 11.1672L10.344 11.4316C10.4978 11.5205 10.6656 11.5628 10.8315 11.5628C11.1688 11.5628 11.4972 11.3877 11.678 11.0741C11.9477 10.6072 11.7875 10.0098 11.3206 9.74015Z" fill="#CB4845"/>
<path d="M0.97767 11.5628C1.14323 11.5628 1.31146 11.5205 1.46519 11.4316L1.92295 11.1672C2.39025 10.8975 2.55009 10.3005 2.28039 9.83322C2.01069 9.36592 1.41369 9.20609 0.946389 9.47579L0.488244 9.74015C0.0213258 10.0098 -0.13851 10.6072 0.130808 11.0741C0.312005 11.3877 0.640069 11.5628 0.97767 11.5628Z" fill="#CB4845"/>
<path d="M10.3753 6.13719C10.5409 6.13719 10.7087 6.09484 10.8624 6.00634L11.3206 5.7416C11.7879 5.4719 11.9477 4.8749 11.678 4.4076C11.4083 3.94068 10.8109 3.78047 10.344 4.05017L9.88587 4.31452C9.41896 4.58422 9.25874 5.1816 9.52844 5.6489C9.70964 5.96209 10.0377 6.13719 10.3753 6.13719Z" fill="#CB4845"/>
<path d="M5.9043 3.58314C6.44369 3.58314 6.88086 3.14598 6.88086 2.60658V2.05078C6.88086 1.51138 6.44369 1.07422 5.9043 1.07422C5.3649 1.07422 4.92773 1.51138 4.92773 2.05078V2.60658C4.92773 3.14598 5.3649 3.58314 5.9043 3.58314Z" fill="#CB4845"/>
<path d="M4.92773 12.9224V13.4782C4.92773 14.0176 5.3649 14.4547 5.9043 14.4547C6.44369 14.4547 6.88086 14.0176 6.88086 13.4782V12.9224C6.88086 12.383 6.44369 11.9458 5.9043 11.9458C5.3649 11.9458 4.92773 12.3833 4.92773 12.9224Z" fill="#CB4845"/>
<path d="M43.579 31.041C43.4215 30.6573 43.0209 30.4108 42.6074 30.441C42.2015 30.4703 41.8509 30.7557 41.7388 31.1463C41.6263 31.5381 41.7773 31.9707 42.1081 32.2083C42.4342 32.4422 42.8851 32.4486 43.2185 32.2266C43.6019 31.9722 43.756 31.4656 43.579 31.041Z" fill="#CB4845"/>
</svg>