<svg xmlns="http://www.w3.org/2000/svg" width="40" height="40" viewBox="0 0 40 40" fill="none">
<path d="M34.1379 18.125C34.5228 17.7923 34.7967 17.3497 34.9225 16.8567C35.0484 16.3638 35.0202 15.8441 34.8419 15.3676C34.6635 14.891 34.3435 14.4806 33.9249 14.1914C33.5063 13.9022 33.0092 13.7482 32.5004 13.75H31.2504V5.625C31.2491 4.46508 30.7877 3.35305 29.9675 2.53287C29.1473 1.71268 28.0353 1.25132 26.8754 1.25H13.1254C11.9655 1.25132 10.8534 1.71268 10.0333 2.53287C9.21307 3.35305 8.75171 4.46508 8.75039 5.625V9.1C8.37294 8.87267 7.94101 8.75172 7.50039 8.75H5.62539C5.45963 8.75 5.30066 8.81585 5.18345 8.93306C5.06624 9.05027 5.00039 9.20924 5.00039 9.375V29.1187L0.806641 33.3063L1.69414 34.1937L6.06914 29.8187C6.18426 29.6996 6.24916 29.5407 6.25039 29.375V10H7.50039C7.83161 10.001 8.14897 10.133 8.38318 10.3672C8.61739 10.6014 8.7494 10.9188 8.75039 11.25V16.25C8.75042 16.3622 8.78065 16.4723 8.83789 16.5688L9.46914 17.6187C10.226 18.8821 10.6256 20.3273 10.6254 21.8V22.7063C10.6276 23.8407 10.3184 24.9541 9.73164 25.925L10.8066 26.575C11.5064 25.4059 11.8757 24.0688 11.8754 22.7063V21.8C11.8754 20.1001 11.4131 18.4322 10.5379 16.975L10.0004 16.075V5.625C10.0004 4.7962 10.3296 4.00134 10.9157 3.41529C11.5017 2.82924 12.2966 2.5 13.1254 2.5H26.8754C27.2858 2.5 27.6921 2.58083 28.0713 2.73788C28.4504 2.89492 28.7949 3.12511 29.0851 3.41529C29.3753 3.70547 29.6055 4.04997 29.7625 4.42911C29.9196 4.80826 30.0004 5.21462 30.0004 5.625V13.75C29.4916 13.7482 28.9945 13.9022 28.5758 14.1914C28.1572 14.4806 27.8372 14.891 27.6589 15.3676C27.4805 15.8441 27.4524 16.3638 27.5783 16.8567C27.7041 17.3497 27.9779 17.7923 28.3629 18.125C28.0924 18.3568 27.8753 18.6444 27.7264 18.9681C27.5775 19.2917 27.5004 19.6438 27.5004 20C27.5004 20.3562 27.5775 20.7083 27.7264 21.0319C27.8753 21.3556 28.0924 21.6432 28.3629 21.875C28.0924 22.1068 27.8753 22.3944 27.7264 22.7181C27.5775 23.0417 27.5004 23.3938 27.5004 23.75C27.5004 24.1062 27.5775 24.4583 27.7264 24.7819C27.8753 25.1056 28.0924 25.3932 28.3629 25.625C27.9779 25.9577 27.7041 26.4003 27.5783 26.8933C27.4524 27.3862 27.4805 27.9059 27.6589 28.3824C27.8372 28.859 28.1572 29.2694 28.5758 29.5586C28.9945 29.8478 29.4916 30.0018 30.0004 30V30.625C30.0004 31.0354 29.9196 31.4417 29.7625 31.8209C29.6055 32.2 29.3753 32.5445 29.0851 32.8347C28.7949 33.1249 28.4504 33.3551 28.0713 33.5121C27.6921 33.6692 27.2858 33.75 26.8754 33.75H13.1254C12.2966 33.75 11.5017 33.4208 10.9157 32.8347C10.3296 32.2487 10.0004 31.4538 10.0004 30.625V27.5H8.75039V30.625C8.75171 31.7849 9.21307 32.8969 10.0333 33.7171C10.8534 34.5373 11.9655 34.9987 13.1254 35H20.9941L17.6816 38.3063L18.5691 39.1937L22.7566 35H26.8754C28.0353 34.9987 29.1473 34.5373 29.9675 33.7171C30.7877 32.8969 31.2491 31.7849 31.2504 30.625V30H32.5004C33.0092 30.0018 33.5063 29.8478 33.9249 29.5586C34.3435 29.2694 34.6635 28.859 34.8419 28.3824C35.0202 27.9059 35.0484 27.3862 34.9225 26.8933C34.7967 26.4003 34.5228 25.9577 34.1379 25.625C34.4084 25.3932 34.6255 25.1056 34.7744 24.7819C34.9233 24.4583 35.0003 24.1062 35.0003 23.75C35.0003 23.3938 34.9233 23.0417 34.7744 22.7181C34.6255 22.3944 34.4084 22.1068 34.1379 21.875C34.4084 21.6432 34.6255 21.3556 34.7744 21.0319C34.9233 20.7083 35.0003 20.3562 35.0003 20C35.0003 19.6438 34.9233 19.2917 34.7744 18.9681C34.6255 18.6444 34.4084 18.3568 34.1379 18.125ZM32.5004 28.75H30.0004C29.6689 28.75 29.3509 28.6183 29.1165 28.3839C28.8821 28.1495 28.7504 27.8315 28.7504 27.5C28.7504 27.1685 28.8821 26.8505 29.1165 26.6161C29.3509 26.3817 29.6689 26.25 30.0004 26.25H32.5004C32.8319 26.25 33.1499 26.3817 33.3843 26.6161C33.6187 26.8505 33.7504 27.1685 33.7504 27.5C33.7504 27.8315 33.6187 28.1495 33.3843 28.3839C33.1499 28.6183 32.8319 28.75 32.5004 28.75ZM32.5004 25H30.0004C29.6689 25 29.3509 24.8683 29.1165 24.6339C28.8821 24.3995 28.7504 24.0815 28.7504 23.75C28.7504 23.4185 28.8821 23.1005 29.1165 22.8661C29.3509 22.6317 29.6689 22.5 30.0004 22.5H32.5004C32.8319 22.5 33.1499 22.6317 33.3843 22.8661C33.6187 23.1005 33.7504 23.4185 33.7504 23.75C33.7504 24.0815 33.6187 24.3995 33.3843 24.6339C33.1499 24.8683 32.8319 25 32.5004 25ZM32.5004 21.25H30.0004C29.6689 21.25 29.3509 21.1183 29.1165 20.8839C28.8821 20.6495 28.7504 20.3315 28.7504 20C28.7504 19.6685 28.8821 19.3505 29.1165 19.1161C29.3509 18.8817 29.6689 18.75 30.0004 18.75H32.5004C32.8319 18.75 33.1499 18.8817 33.3843 19.1161C33.6187 19.3505 33.7504 19.6685 33.7504 20C33.7504 20.3315 33.6187 20.6495 33.3843 20.8839C33.1499 21.1183 32.8319 21.25 32.5004 21.25ZM32.5004 17.5H30.0004C29.6689 17.5 29.3509 17.3683 29.1165 17.1339C28.8821 16.8995 28.7504 16.5815 28.7504 16.25C28.7504 15.9185 28.8821 15.6005 29.1165 15.3661C29.3509 15.1317 29.6689 15 30.0004 15H32.5004C32.8319 15 33.1499 15.1317 33.3843 15.3661C33.6187 15.6005 33.7504 15.9185 33.7504 16.25C33.7504 16.5815 33.6187 16.8995 33.3843 17.1339C33.1499 17.3683 32.8319 17.5 32.5004 17.5Z" fill="#CB4845"/>
<path d="M15.625 3.75H16.875V5H15.625V3.75Z" fill="#CB4845"/>
<path d="M18.125 3.75H21.875V5H18.125V3.75Z" fill="#CB4845"/>
<path d="M18.75 28.75C18.2527 28.75 17.7758 28.9475 17.4242 29.2992C17.0725 29.6508 16.875 30.1277 16.875 30.625C16.875 31.1223 17.0725 31.5992 17.4242 31.9508C17.7758 32.3025 18.2527 32.5 18.75 32.5H21.25C21.7473 32.5 22.2242 32.3025 22.5758 31.9508C22.9275 31.5992 23.125 31.1223 23.125 30.625C23.125 30.1277 22.9275 29.6508 22.5758 29.2992C22.2242 28.9475 21.7473 28.75 21.25 28.75H18.75ZM21.875 30.625C21.875 30.7908 21.8092 30.9497 21.6919 31.0669C21.5747 31.1842 21.4158 31.25 21.25 31.25H18.75C18.5842 31.25 18.4253 31.1842 18.3081 31.0669C18.1908 30.9497 18.125 30.7908 18.125 30.625C18.125 30.4592 18.1908 30.3003 18.3081 30.1831C18.4253 30.0658 18.5842 30 18.75 30H21.25C21.4158 30 21.5747 30.0658 21.6919 30.1831C21.8092 30.3003 21.875 30.4592 21.875 30.625Z" fill="#CB4845"/>
<path d="M25.4437 12.6813L24.1937 11.4313C24.0746 11.3161 23.9157 11.2512 23.75 11.25H21.5875L19.2688 7.78126C19.2121 7.69528 19.1352 7.62462 19.0447 7.57556C18.9542 7.52649 18.8529 7.50054 18.75 7.50001H17.5C17.4007 7.49958 17.3027 7.52324 17.2146 7.56896C17.1264 7.61468 17.0506 7.68109 16.9938 7.76251C16.9357 7.84264 16.8975 7.93542 16.8822 8.03321C16.867 8.13101 16.8753 8.23101 16.9062 8.32501L17.8813 11.25H17.7562L16.6937 10.1813C16.5746 10.0661 16.4157 10.0012 16.25 10H15C14.8342 10 14.6753 10.0659 14.5581 10.1831C14.4408 10.3003 14.375 10.4592 14.375 10.625V14.375C14.375 14.5408 14.4408 14.6997 14.5581 14.8169C14.6753 14.9342 14.8342 15 15 15H17.8813L16.9062 17.925C16.8753 18.019 16.867 18.119 16.8822 18.2168C16.8975 18.3146 16.9357 18.4074 16.9938 18.4875C17.0506 18.5689 17.1264 18.6353 17.2146 18.681C17.3027 18.7268 17.4007 18.7504 17.5 18.75H18.75C18.8529 18.7495 18.9542 18.7235 19.0447 18.6745C19.1352 18.6254 19.2121 18.5547 19.2688 18.4688L21.5875 15H25C25.1658 15 25.3247 14.9342 25.4419 14.8169C25.5592 14.6997 25.625 14.5408 25.625 14.375V13.125C25.6238 12.9593 25.5589 12.8004 25.4437 12.6813ZM18.4125 8.75001L20.0813 11.25H19.2L18.3687 8.75001H18.4125ZM18.4125 17.5H18.3687L19.2 15H20.0813L18.4125 17.5ZM24.375 13.75H15.625V11.25H15.9938L17.0563 12.3188C17.1754 12.4339 17.3343 12.4988 17.5 12.5H23.4937L24.375 13.3813V13.75Z" fill="#CB4845"/>
<path d="M15 20H25V21.25H15V20Z" fill="#CB4845"/>
<path d="M15 22.5H20V23.75H15V22.5Z" fill="#CB4845"/>
<path d="M15 25H23.125V26.25H15V25Z" fill="#CB4845"/>
</svg>