<svg xmlns="http://www.w3.org/2000/svg" width="22" height="22" viewBox="0 0 22 22" fill="none">
<path d="M10.9998 4.72925C8.74776 4.72925 6.91553 6.56148 6.91553 8.81356C6.91553 11.0656 8.74776 12.8979 10.9998 12.8979C13.2519 12.8979 15.0841 11.0656 15.0841 8.81356C15.0841 6.56148 13.252 4.72925 10.9998 4.72925ZM10.9998 11.1782C9.69599 11.1782 8.63522 10.1174 8.63522 8.81356C8.63522 7.50971 9.69599 6.44894 10.9998 6.44894C12.3037 6.44894 13.3644 7.50971 13.3644 8.81356C13.3644 10.1174 12.3037 11.1782 10.9998 11.1782Z" fill="#736D75"/>
<path d="M11.0001 0C6.14025 0 2.18652 3.95377 2.18652 8.81354V9.05717C2.18652 11.515 3.59564 14.3791 6.37486 17.5698C8.38958 19.8829 10.3762 21.4958 10.4597 21.5634L11.0001 22L11.5404 21.5634C11.624 21.4958 13.6106 19.883 15.6253 17.5699C18.4044 14.3791 19.8136 11.515 19.8136 9.05721V8.81358C19.8136 3.95377 15.8599 0 11.0001 0ZM18.0939 9.05721C18.0939 13.2108 12.7421 18.2388 11.0001 19.7651C9.25755 18.2383 3.90622 13.2105 3.90622 9.05721V8.81358C3.90622 4.90205 7.08853 1.71974 11.0001 1.71974C14.9116 1.71974 18.0939 4.90205 18.0939 8.81358V9.05721Z" fill="#736D75"/>
</svg>