<svg xmlns="http://www.w3.org/2000/svg" width="35" height="31" viewBox="0 0 35 31" fill="none">
<g clip-path="url(#clip0_722_12)">
<path d="M14.1337 17.2851L2.07705 10.5525C1.81443 10.4093 1.76669 10.0273 1.98156 9.81241C2.60229 9.19168 3.46177 8.92906 4.32125 9.0723L8.42766 9.76466L9.35877 8.83356C9.74076 8.45157 10.3854 8.45157 10.7674 8.83356C11.1255 9.19168 11.1494 9.76466 10.839 10.1705L13.7278 10.648L14.7544 9.62142C15.1364 9.23943 15.781 9.23943 16.163 9.62142C16.545 10.0034 16.545 10.648 16.163 11.03L16.1391 11.0539L19.768 11.6507L21.9884 9.43042L15.208 2.60232C11.7223 -0.883351 6.08797 -0.883351 2.60229 2.60232C-0.883381 6.088 -0.883381 11.7224 2.60229 15.208L9.40652 22.0123L14.1337 17.2851Z" fill="#FF5956"/>
<path d="M25.5934 12.9877L23.373 15.2081L23.9699 18.837L23.9938 18.8131C24.3758 18.4311 25.0204 18.4311 25.4024 18.8131C25.7844 19.1951 25.7844 19.8397 25.4024 20.2217L24.3758 21.2483L24.6623 22.9434L30.1295 17.4761L25.5934 12.9877Z" fill="#FAF5EE"/>
<path d="M17.7148 20.8663L12.9877 25.5934L17.4999 30.1057L20.9617 26.6678L17.7148 20.8663Z" fill="#FAF5EE"/>
<path d="M8.35609 14.0621L4.89429 17.5L9.40656 22.0123L14.1337 17.2851L8.35609 14.0621Z" fill="#403344"/>
<path d="M32.3977 2.60232C28.912 -0.883351 23.2776 -0.883351 19.792 2.60232L12.0566 10.3615L13.7517 10.648L14.7783 9.62142C15.1603 9.23943 15.8049 9.23943 16.1869 9.62142C16.5689 10.0034 16.5689 10.648 16.1869 11.03L16.1631 11.0539L19.792 11.6508L22.3943 9.04844C23.97 7.47272 25.9516 6.35062 28.1242 5.82538C28.7688 5.68213 29.3418 6.25512 29.1746 6.87586C28.6494 9.04844 27.5273 11.03 25.9516 12.6057L23.3731 15.2081L23.97 18.837L23.9939 18.8131C24.3759 18.4311 25.0205 18.4311 25.4025 18.8131C25.7845 19.1951 25.7845 19.8397 25.4025 20.2217L24.3759 21.2483L24.6624 22.9434L32.3977 15.2081C35.8834 11.7463 35.8834 6.088 32.3977 2.60232Z" fill="#403344"/>
<path d="M17.7149 20.8663L12.9878 25.5934L17.5001 30.1057L20.9619 26.6678L17.7149 20.8663Z" fill="#403344"/>
</g>
<defs>
<clipPath id="clip0_722_12">
<rect width="35" height="30.1057" fill="white"/>
</clipPath>
</defs>
</svg>