<svg xmlns="http://www.w3.org/2000/svg" width="38" height="38" viewBox="0 0 38 38" fill="none">
<path fill-rule="evenodd" clip-rule="evenodd" d="M9.92075 8.46324H24.3645C25.056 8.46324 25.6217 9.02901 25.6217 9.72043C25.6217 10.412 25.0561 10.9778 24.3645 10.9778H9.92075C9.22933 10.9778 8.66356 10.412 8.66356 9.72043C8.66348 9.02901 9.22933 8.46324 9.92075 8.46324ZM24.3645 12.3138H9.92075C9.78767 12.3138 9.65675 12.3036 9.52895 12.2842C3.73521 18.1624 -0.743967 26.085 4.35204 32.7611C6.55033 35.6411 9.66826 37.1836 13.2915 37.1836H20.9937C23.447 37.1836 25.6683 36.4765 27.5297 35.1259L26.2469 33.7516C25.2605 32.6946 26.013 30.9629 27.4588 30.9629H27.7797V20.8561C27.7797 19.7148 28.6775 18.7794 29.8039 18.7189C28.471 16.4282 26.6865 14.2427 24.7563 12.2842C24.6285 12.3036 24.4976 12.3138 24.3645 12.3138ZM17.1428 17.0832C21.0073 17.0832 24.1402 20.2161 24.1402 24.0807C24.1402 27.9454 21.0073 31.0782 17.1428 31.0782C13.278 31.0782 10.1452 27.9454 10.1452 24.0807C10.1451 20.2161 13.278 17.0832 17.1428 17.0832ZM12.2966 3.58877C7.69478 1.88783 7.31285 2.79879 9.19682 5.48796C9.72229 6.23801 10.0406 6.71598 10.2733 7.12737H24.012C24.2447 6.71598 24.563 6.23809 25.0885 5.48796C26.9725 2.79886 26.5907 1.88783 21.9886 3.58877C20.057 4.30276 20.8703 0.816406 17.1428 0.816406C13.415 0.816406 14.2283 4.30276 12.2966 3.58877ZM29.9201 20.0517H33.0892C33.5323 20.0517 33.8936 20.4131 33.8936 20.8561V32.299H35.5504C35.8319 32.299 35.9778 32.6344 35.7857 32.8402L31.8869 37.0174C31.6801 37.239 31.3292 37.239 31.1224 37.0174L27.2237 32.8402C27.0315 32.6344 27.1773 32.299 27.4589 32.299H29.1157V20.8561C29.1157 20.4131 29.4771 20.0517 29.9201 20.0517ZM17.1428 18.9766C19.9616 18.9766 22.2468 21.2618 22.2468 24.0807C22.2468 26.8996 19.9616 29.1849 17.1428 29.1849C14.3238 29.1849 12.0385 26.8996 12.0385 24.0807C12.0385 21.2618 14.3237 18.9766 17.1428 18.9766ZM16.5304 20.866C16.5304 20.4971 16.8295 20.198 17.1984 20.198C17.5674 20.198 17.8664 20.4971 17.8664 20.866V21.0346C17.9987 21.0699 18.1263 21.1194 18.2471 21.1814C18.5148 21.319 18.7456 21.5179 18.9201 21.7593C19.1348 22.0576 19.0669 22.4734 18.7687 22.6882C18.545 22.8491 18.2553 22.8513 18.0338 22.7167C17.9599 22.6717 17.8936 22.6115 17.8399 22.5368C17.7331 22.3891 17.5724 22.3079 17.3905 22.3079H17.0063C16.7037 22.3079 16.4538 22.5578 16.4538 22.8603C16.4538 23.1628 16.7038 23.4128 17.0063 23.4128H17.2792C18.319 23.4128 19.1675 24.2614 19.1675 25.3012C19.1675 26.1755 18.5651 26.916 17.7549 27.1284V27.2955C17.7549 27.6644 17.4559 27.9635 17.0869 27.9635C16.718 27.9635 16.419 27.6644 16.419 27.2955V27.127C15.996 27.0141 15.6222 26.7574 15.3653 26.4021C15.1506 26.1038 15.2184 25.688 15.5166 25.4733C15.8167 25.2573 16.2322 25.3282 16.4455 25.6246C16.5523 25.7723 16.713 25.8535 16.8949 25.8535H17.2792C17.5831 25.8535 17.8316 25.6049 17.8316 25.3011C17.8316 24.9986 17.5818 24.7486 17.2792 24.7486H17.0064C16.9141 24.7486 16.8235 24.7419 16.7348 24.729C15.8108 24.5948 15.1179 23.7962 15.1179 22.8602C15.1179 22.0014 15.703 21.2489 16.5305 21.0328L16.5304 20.866Z" fill="white"/>
</svg>