<svg xmlns="http://www.w3.org/2000/svg" width="33" height="33" viewBox="0 0 33 33" fill="none">
<g clip-path="url(#clip0_277_335)">
<path d="M32.9454 26.4888L29.8572 8.97463C29.6445 7.7684 28.8405 6.7717 27.7066 6.30854L20.3376 3.29841C20.0202 3.16879 19.6895 3.08861 19.3564 3.05555L18.9585 0.799122C18.8658 0.273316 18.3647 -0.0776932 17.8386 0.0149254C17.3127 0.107608 16.9616 0.609051 17.0544 1.13486L17.4523 3.39154C17.1551 3.53456 16.8758 3.71993 16.6249 3.9459L15.7902 4.69761L15.6665 4.58533C15.4126 4.35498 15.1293 4.16652 14.8275 4.0215L15.3365 1.13486C15.4292 0.609051 15.0781 0.107608 14.5523 0.0149254C14.0266 -0.0780799 13.5251 0.273252 13.4324 0.799122L12.9234 3.68596C12.5951 3.7187 12.2693 3.7974 11.9562 3.92398L4.52065 6.92884C3.38003 7.3898 2.57147 8.3883 2.35781 9.59995L0.0542065 22.6647C-0.285202 24.5897 1.00476 26.4319 2.9297 26.7713L12.345 28.4314L12.6339 30.0703C12.9368 31.788 14.4361 33 16.1232 33C16.3268 33 16.5332 32.9823 16.7405 32.9458L30.07 30.5954C31.9949 30.256 33.2848 28.4138 32.9454 26.4888ZM29.7342 28.6912L16.4047 31.0415C15.9808 31.1162 15.5533 31.0215 15.2007 30.7745C14.8481 30.5277 14.6128 30.1583 14.538 29.7344L14.3713 28.7887L16.259 29.1216C16.467 29.1583 16.6753 29.1764 16.8821 29.1764C17.6028 29.1764 18.3052 28.9563 18.9079 28.5344C19.6835 27.9913 20.2012 27.1786 20.3657 26.2462L22.6704 13.1751C22.8831 11.9688 22.4685 10.7573 21.5614 9.93433L17.2293 6.00355L17.9186 5.38274C18.2187 5.11256 18.6076 4.97005 19.0005 4.97005C19.2054 4.97005 19.4114 5.00885 19.6063 5.08845L26.9753 8.09859C27.4908 8.30916 27.8562 8.76213 27.9529 9.31043L31.0412 26.8245C31.1955 27.6995 30.6091 28.5369 29.7342 28.6912ZM1.95833 23.0004L4.26207 9.93569C4.3592 9.38494 4.72671 8.93106 5.24517 8.72152L12.5563 5.76688L12.3468 6.95539C12.2541 7.4812 12.6052 7.98264 13.131 8.07532C13.1877 8.08538 13.2442 8.09015 13.3 8.09015C13.7603 8.09015 14.1682 7.76008 14.2509 7.29106L14.4606 6.1021L20.2622 11.3663C20.6744 11.7404 20.8629 12.291 20.7663 12.8393L18.4615 25.9104C18.3868 26.3342 18.1514 26.7036 17.7989 26.9504C17.4463 27.1974 17.0188 27.2921 16.5948 27.2174L3.26537 24.8671C2.39043 24.7128 1.8041 23.8754 1.95833 23.0004Z" fill="#CB4845"/>
<path d="M9.73904 22.4844L9.58468 23.3598C9.52287 23.7103 9.75696 24.0446 10.1075 24.1064C10.1454 24.1131 10.183 24.1163 10.2202 24.1163C10.527 24.1163 10.799 23.8962 10.8541 23.5836L11.0171 22.6597C11.6795 22.6576 12.3117 22.4735 12.8727 22.1151C13.5405 21.6883 14.0545 21.0413 14.3201 20.293C14.8609 18.7696 14.2797 17.2595 12.8396 16.4458C12.6016 16.3113 12.3828 16.1842 12.1803 16.0628L12.8243 12.4108C13.2769 12.5775 13.5374 12.8522 13.7109 13.0353C13.7602 13.0875 13.8069 13.1368 13.8546 13.1809C14.116 13.4225 14.5238 13.4065 14.7654 13.1452C15.007 12.8838 14.991 12.476 14.7297 12.2344C14.7135 12.2194 14.6797 12.1837 14.647 12.1492C14.4133 11.9023 13.9248 11.3864 13.0502 11.1297L13.1833 10.3747C13.2451 10.0241 13.011 9.68986 12.6604 9.62805C12.3099 9.5663 11.9756 9.80027 11.9138 10.1509L11.7673 10.9816C11.6345 10.9866 11.4972 10.9965 11.3537 11.0135C10.2926 11.1394 9.38739 11.8699 8.99113 12.92C8.63097 13.8746 8.7776 14.8805 9.37385 15.5452C9.70656 15.9161 10.1411 16.2785 10.7604 16.692L9.96288 21.2147C9.33512 21.07 8.95246 20.8673 8.33861 20.2911C8.07912 20.0475 7.6712 20.0603 7.42757 20.3199C7.18394 20.5793 7.19677 20.9873 7.45632 21.2309C8.29182 22.0151 8.89774 22.2969 9.73904 22.4844ZM13.1053 19.8619C12.8538 20.5704 12.1902 21.2556 11.2467 21.3573L11.9414 17.4175C12.027 17.4669 12.115 17.5171 12.2054 17.5682C13.5302 18.3167 13.2292 19.513 13.1053 19.8619ZM10.3334 14.6844C10.0598 14.3793 10.0076 13.8776 10.1972 13.3751C10.374 12.9063 10.8106 12.3761 11.5055 12.2936C11.516 12.2924 11.5261 12.2916 11.5365 12.2904L11.008 15.2878C10.7259 15.074 10.5056 14.8763 10.3334 14.6844Z" fill="#CB4845"/>
</g>
<defs>
<clipPath id="clip0_277_335">
<rect width="33" height="33" fill="white"/>
</clipPath>
</defs>
</svg>