<svg xmlns="http://www.w3.org/2000/svg" width="17" height="17" viewBox="0 0 17 17" fill="none">
<g clip-path="url(#clip0_807_12514)">
<path d="M8.50017 0.708374C6.95912 0.708374 5.45268 1.16535 4.17135 2.02151C2.89002 2.87767 1.89134 4.09456 1.3016 5.5183C0.711872 6.94204 0.557571 8.50868 0.858214 10.0201C1.15886 11.5316 1.90094 12.9199 2.99063 14.0096C4.08031 15.0993 5.46865 15.8413 6.98009 16.142C8.49152 16.4426 10.0582 16.2883 11.4819 15.6986C12.9056 15.1089 14.1225 14.1102 14.9787 12.8289C15.8349 11.5475 16.2918 10.0411 16.2918 8.50004C16.2894 6.43431 15.4677 4.45389 14.007 2.99319C12.5463 1.5325 10.5659 0.710811 8.50017 0.708374ZM8.50017 14.875C7.23931 14.875 6.00677 14.5012 4.95841 13.8007C3.91004 13.1002 3.09294 12.1045 2.61043 10.9396C2.12793 9.77477 2.00168 8.49297 2.24766 7.25634C2.49364 6.01971 3.1008 4.88379 3.99236 3.99223C4.88392 3.10068 6.01984 2.49352 7.25647 2.24753C8.49309 2.00155 9.77489 2.1278 10.9398 2.61031C12.1047 3.09282 13.1003 3.90992 13.8008 4.95828C14.5013 6.00664 14.8752 7.23919 14.8752 8.50004C14.8731 10.1902 14.2008 11.8105 13.0057 13.0056C11.8106 14.2007 10.1903 14.873 8.50017 14.875Z" fill="#736D75"/>
<path d="M12.0417 7.79163H4.95833C4.77047 7.79163 4.5903 7.86625 4.45747 7.99909C4.32463 8.13193 4.25 8.3121 4.25 8.49996C4.25 8.68782 4.32463 8.86799 4.45747 9.00083C4.5903 9.13366 4.77047 9.20829 4.95833 9.20829H12.0417C12.2295 9.20829 12.4097 9.13366 12.5425 9.00083C12.6754 8.86799 12.75 8.68782 12.75 8.49996C12.75 8.3121 12.6754 8.13193 12.5425 7.99909C12.4097 7.86625 12.2295 7.79163 12.0417 7.79163Z" fill="#736D75"/>
</g>
<defs>
<clipPath id="clip0_807_12514">
<rect width="17" height="17" fill="white"/>
</clipPath>
</defs>
</svg>