<svg xmlns="http://www.w3.org/2000/svg" width="83" height="83" viewBox="0 0 83 83" fill="none">
  <g clip-path="url(#clip0_73_154)">
    <path d="M82.6542 80.2331L69.8583 65.1894L70.8958 49.9727C70.8958 49.6269 70.8958 49.281 70.7229 48.9352L65.7083 41.1539L66.7458 32.1623L79.7146 49.4539C80.2333 50.1456 81.4437 50.3185 82.1354 49.7998C82.8271 49.281 83 48.0706 82.4812 47.3789L66.9188 26.6289C66.5729 26.1102 66.2271 25.9373 65.5354 25.9373C65.0167 25.9373 64.325 26.2831 64.1521 26.6289L51.1833 43.4019L34.0646 23.1706C33.8917 22.9977 33.3729 22.6519 32.8542 22.6519C32.3354 22.6519 31.6438 22.8248 31.2979 23.3435L0.172962 64.8435C-0.345788 65.5352 -0.172871 66.7456 0.518795 67.2644C1.21046 67.7831 2.42088 67.6102 2.93963 66.9185L29.05 32.1623L25.9375 44.9581C25.7646 45.4769 25.9375 45.9956 26.2834 46.5144L35.1021 57.4081L24.3813 80.5789C24.0354 81.4435 24.3813 82.481 25.2459 82.8269C26.1104 83.1727 27.1479 82.8269 27.4938 81.9623L38.7334 57.7539C39.0792 57.2352 38.9063 56.3706 38.5604 55.8519L29.5688 44.9581L33.7188 27.8394L79.8875 82.3081C80.5792 82.9998 81.6167 83.1727 82.3083 82.481C83.1729 81.9623 83.1729 80.9248 82.6542 80.2331ZM66.5729 61.3852L53.6042 45.9956L63.1146 33.7185L62.25 41.3269C62.25 41.6727 62.25 42.1914 62.4229 42.5373L67.2646 50.3185L66.5729 61.3852Z" fill="#2D2330"/>
    <path d="M46.6876 19.0208H58.7918C62.5959 19.0208 65.7084 15.9083 65.7084 12.1042C65.7084 9.51042 64.3251 7.2625 62.2501 6.05208C61.7313 2.59375 58.7918 0 55.3334 0C53.2584 0 51.3563 0.864583 50.1459 2.42083C48.9355 1.90208 47.898 1.72917 46.6876 1.72917C41.8459 1.72917 38.0417 5.53333 38.0417 10.375C38.0417 15.2167 41.8459 19.0208 46.6876 19.0208ZM46.6876 5.1875C47.7251 5.1875 48.7626 5.53333 49.6272 6.05208C50.4918 6.57083 51.7022 6.39792 52.2209 5.36042C52.7397 4.15 53.9501 3.45833 55.3334 3.45833C57.2355 3.45833 58.7918 5.01458 58.7918 6.91667C58.6188 7.78125 59.1376 8.64583 60.0022 8.81875C61.3855 9.3375 62.2501 10.7208 62.2501 12.1042C62.2501 14.0062 60.6938 15.5625 58.7918 15.5625H46.6876C43.748 15.5625 41.5001 13.3146 41.5001 10.375C41.5001 7.43542 43.748 5.1875 46.6876 5.1875Z" fill="#2D2330"/>
  </g>
  <defs>
    <clipPath id="clip0_73_154">
      <rect width="83" height="83" fill="#2D2330"/>
    </clipPath>
  </defs>
</svg>