<svg width="1920" height="761" viewBox="0 0 1920 761" fill="none" xmlns="http://www.w3.org/2000/svg">
<g style="mix-blend-mode:luminosity" opacity="0.25">
<path d="M1013.82 483.345C926.336 521.129 883.106 618.961 878.101 690.605" stroke="black" stroke-width="1.1" stroke-miterlimit="10" stroke-dasharray="5.52 5.52"/>
<path d="M1487.94 723.419C1485.87 667.238 1467.51 612.976 1435.21 567.604C1402.72 522.873 1355.53 489.129 1302.83 475.759C1251.94 462.738 1190.5 472.446 1159.71 516.247C1150.6 529.18 1144.58 545.573 1147.97 561.151C1152.75 583.066 1176.87 597.482 1198.3 593.123C1219.73 588.763 1236.39 568.418 1239.16 546.154C1241.93 523.891 1232.06 501.046 1215.83 486.019C1200.28 471.487 1133.5 454.048 1053.85 470.877" stroke="black" stroke-width="1.1" stroke-miterlimit="10" stroke-dasharray="5.52 5.52"/>
<path d="M1601.35 697.29C1625.2 664.055 1640.94 625.422 1647.26 584.635C1650.88 561.151 1651.16 536.243 1641.61 514.531C1632.05 492.82 1611.07 475.265 1587.89 476.079C1574.09 476.573 1559.33 485.583 1557.41 499.65C1555.6 512.846 1565.89 525.314 1578.22 529.761C1590.55 534.208 1603.95 532.377 1616.67 529.761C1661.49 520.128 1703.81 500.842 1740.85 473.173C1777.89 445.504 1808.8 410.081 1831.55 369.237C1845.69 343.486 1856.46 312.096 1845.32 284.95C1839.67 270.824 1828.36 259.634 1816.17 250.944C1759.79 210.922 1624.36 290.443 1587.86 231.122C1562.41 189.676 1603.21 137.127 1634.77 115.503C1720.18 56.9665 1822.53 29.4422 1921.6 1.68547" stroke="black" stroke-width="1.1" stroke-miterlimit="10" stroke-dasharray="5.52 5.52"/>
<path d="M0.989258 603.702C82.9834 671.539 359.389 705.428 592.648 608.469C724.687 553.507 759.068 449.049 687.337 407.574C633.787 376.62 525.865 402.4 573.733 505.899C632.033 631.866 808.689 733.505 911.096 759.285" stroke="black" stroke-width="1.1" stroke-miterlimit="10" stroke-dasharray="5.52 5.52"/>
<path d="M1503.66 541.998C1503.66 541.998 1460.29 498.401 1455.99 493.634C1450.34 487.414 1457.29 479.334 1463.91 484.74C1470.1 489.797 1507.05 528.337 1511.97 534.15C1512.53 534.7 1512.97 535.361 1513.27 536.094C1513.57 536.827 1513.72 537.615 1513.72 538.41C1513.71 539.204 1513.54 539.989 1513.23 540.715C1512.91 541.441 1512.46 542.093 1511.89 542.631C1511.32 543.169 1510.65 543.581 1509.92 543.841C1509.19 544.102 1508.41 544.206 1507.64 544.146C1506.87 544.087 1506.12 543.866 1505.43 543.496C1504.75 543.126 1504.15 542.616 1503.66 541.998Z" stroke="black" stroke-width="0.71" stroke-miterlimit="10"/>
<path d="M1475.02 513.834C1475.02 513.834 1452.68 526.884 1449.09 529.297C1445.5 531.709 1448.19 534.208 1451.01 533.685C1463 531.476 1485.79 524.21 1485.79 524.21" stroke="black" stroke-width="0.71" stroke-miterlimit="10"/>
<path d="M1484.74 505.115C1484.74 505.115 1497.41 482.154 1499.79 478.463C1502.16 474.771 1504.54 477.532 1504.06 480.41C1501.91 492.762 1494.84 516.188 1494.84 516.188" stroke="black" stroke-width="0.71" stroke-miterlimit="10"/>
<path d="M1460.2 498.023L1450.42 500.377C1447.88 501.045 1445.61 498.401 1448.47 496.308C1452.03 493.692 1454.63 491.861 1454.63 491.861" stroke="black" stroke-width="0.71" stroke-miterlimit="10"/>
<path d="M1469 489.449C1469 489.449 1470.83 481.282 1471.29 479.392C1471.94 476.777 1469.36 474.451 1467.33 477.358C1464.78 481.049 1463 483.723 1463 483.723" stroke="black" stroke-width="0.71" stroke-miterlimit="10"/>
<path d="M268.772 593.617C268.772 593.617 198.822 643.027 191.188 647.88C181.377 654.013 172.443 642.067 181.49 634.278C189.972 626.925 251.411 585.13 260.402 579.578C261.299 579.013 262.295 578.636 263.334 578.467C264.373 578.297 265.434 578.34 266.456 578.593C267.479 578.845 268.443 579.302 269.294 579.937C270.145 580.573 270.866 581.374 271.415 582.296C271.965 583.218 272.332 584.242 272.497 585.309C272.661 586.377 272.62 587.468 272.374 588.519C272.129 589.57 271.684 590.562 271.066 591.436C270.448 592.311 269.668 593.052 268.772 593.617Z" stroke="black" stroke-width="0.99" stroke-miterlimit="10"/>
<path d="M223.533 626.431C223.533 626.431 234.843 661.541 237.19 667.267C239.536 672.992 243.495 669.883 243.579 665.755C243.89 648.317 240.328 614.02 240.328 614.02" stroke="black" stroke-width="0.99" stroke-miterlimit="10"/>
<path d="M214.429 610.358C214.429 610.358 187.173 586.234 182.875 581.904C178.577 577.573 182.875 574.899 186.635 576.41C202.582 582.746 231.874 599.081 231.874 599.081" stroke="black" stroke-width="0.99" stroke-miterlimit="10"/>
<path d="M198.285 643.114C198.285 643.114 198.681 654.74 198.822 657.646C198.992 661.424 194.864 663.924 192.828 659.332C190.312 653.519 188.559 649.363 188.559 649.363" stroke="black" stroke-width="0.99" stroke-miterlimit="10"/>
<path d="M189.208 628.349C189.208 628.349 178.775 623.553 176.4 622.536C173.064 620.937 169.247 623.931 172.611 627.593C176.824 632.185 179.934 635.44 179.934 635.44" stroke="black" stroke-width="0.99" stroke-miterlimit="10"/>
<path d="M861.872 544.062L810.187 549.875C810.187 549.875 823.108 520.345 861.872 544.062Z" stroke="black" stroke-width="0.71" stroke-miterlimit="10"/>
<path d="M780.528 646.95C780.528 646.95 786.437 585.304 810.102 549.816C785.023 566.819 770.038 625.384 769.021 642.997L780.528 646.95Z" stroke="black" stroke-width="0.71" stroke-miterlimit="10"/>
<path d="M810.187 549.816C810.187 549.816 826.925 530.023 808.519 510.405C808.14 523.566 808.697 536.739 810.187 549.816Z" stroke="black" stroke-width="0.71" stroke-miterlimit="10"/>
<path d="M778.944 505.783L810.046 549.816C810.046 549.816 808.208 509.504 778.944 505.783Z" stroke="black" stroke-width="0.71" stroke-miterlimit="10"/>
<path d="M810.187 549.816C810.187 549.816 844.625 548.276 849.516 577.05C828.593 563.564 810.187 549.816 810.187 549.816Z" stroke="black" stroke-width="0.71" stroke-miterlimit="10"/>
<path d="M817.68 591.64L810.187 549.816C810.187 549.816 836.284 581.322 817.68 591.64Z" stroke="black" stroke-width="0.71" stroke-miterlimit="10"/>
<path d="M768.483 550.107L810.187 549.816C810.187 549.816 777.842 524.763 768.483 550.107Z" stroke="black" stroke-width="0.71" stroke-miterlimit="10"/>
<path d="M770.067 637.475C761.597 636.391 752.998 637.49 745.044 640.672L802.016 660.233C797.204 651.835 790.054 645.113 781.489 640.934" stroke="black" stroke-width="0.71" stroke-miterlimit="10"/>
<path d="M1723.95 397.204C1729.26 417.361 1717.67 438.128 1698.06 443.59C1678.45 449.051 1658.25 437.138 1652.94 416.981C1647.63 396.824 1659.22 376.057 1678.82 370.595C1698.43 365.134 1718.64 377.047 1723.95 397.204Z" stroke="black" stroke-width="0.71" stroke-linecap="round" stroke-linejoin="round"/>
<path d="M1711.31 392.29C1719.15 405.127 1715.37 422.06 1702.88 430.113C1690.4 438.165 1673.92 434.287 1666.09 421.45C1658.26 408.614 1662.03 391.68 1674.52 383.628C1687.01 375.575 1703.48 379.454 1711.31 392.29Z" stroke="black" stroke-width="0.71" stroke-linecap="round" stroke-linejoin="round"/>
<path d="M1691.99 409.143C1692.38 408.434 1692.56 407.623 1692.51 406.81C1692.45 405.998 1692.17 405.219 1691.68 404.572C1691.2 403.925 1690.55 403.438 1689.8 403.17C1689.05 402.903 1688.24 402.868 1687.47 403.069C1686.71 403.271 1686.01 403.699 1685.48 404.303C1684.95 404.906 1684.6 405.656 1684.48 406.461C1684.36 407.267 1684.47 408.09 1684.8 408.831C1685.13 409.571 1685.66 410.195 1686.34 410.626C1686.8 410.922 1687.32 411.118 1687.86 411.204C1688.39 411.29 1688.94 411.263 1689.47 411.124C1690 410.986 1690.5 410.739 1690.93 410.398C1691.36 410.058 1691.72 409.631 1691.99 409.143Z" stroke="black" stroke-width="0.71" stroke-linecap="round" stroke-linejoin="round"/>
<path d="M1689.39 411.469L1677.15 427.222L1684.64 408.272" stroke="black" stroke-width="0.71" stroke-linecap="round" stroke-linejoin="round"/>
<path d="M1692.56 405.83L1699.85 387.432L1687.72 403.011" stroke="black" stroke-width="0.71" stroke-linecap="round" stroke-linejoin="round"/>
<path d="M829.534 385.952C833.983 406.329 821.52 426.555 801.698 431.128C781.876 435.702 762.2 422.891 757.751 402.514C753.302 382.137 765.764 361.911 785.587 357.338C805.409 352.764 825.085 365.575 829.534 385.952Z" stroke="black" stroke-width="0.71" stroke-linecap="round" stroke-linejoin="round"/>
<path d="M783.355 419.635C788.23 421.723 793.597 422.277 798.778 421.228C803.96 420.178 808.721 417.572 812.462 413.74C816.202 409.908 818.752 405.021 819.789 399.698C820.827 394.376 820.305 388.856 818.29 383.839C816.275 378.821 812.857 374.53 808.469 371.51C804.081 368.49 798.92 366.875 793.64 366.871C788.359 366.867 783.196 368.473 778.803 371.486C774.411 374.499 770.987 378.784 768.964 383.799C766.255 390.513 766.249 398.058 768.948 404.777C771.646 411.496 776.828 416.84 783.355 419.635Z" stroke="black" stroke-width="0.71" stroke-linecap="round" stroke-linejoin="round"/>
<path d="M791.979 398.157C792.717 398.473 793.53 398.557 794.314 398.398C795.099 398.24 795.82 397.845 796.387 397.265C796.953 396.685 797.34 395.946 797.498 395.14C797.655 394.334 797.577 393.498 797.272 392.738C796.968 391.978 796.451 391.327 795.787 390.869C795.123 390.411 794.342 390.166 793.542 390.164C792.743 390.162 791.96 390.404 791.295 390.86C790.629 391.315 790.109 391.963 789.802 392.722C789.389 393.739 789.387 394.884 789.795 395.903C790.204 396.922 790.989 397.733 791.979 398.157Z" stroke="black" stroke-width="0.71" stroke-linecap="round" stroke-linejoin="round"/>
<path d="M789.406 395.832L772.555 385.485L791.837 390.542" stroke="black" stroke-width="0.71" stroke-linecap="round" stroke-linejoin="round"/>
<path d="M795.259 398.273L814.004 403.185L797.351 392.983" stroke="black" stroke-width="0.71" stroke-linecap="round" stroke-linejoin="round"/>
<path d="M1057.87 535.051C1057.87 521.246 1033.55 488.112 1033.55 488.112C1033.55 488.112 1009.26 521.246 1009.26 535.051C1009.48 541.529 1012.13 547.668 1016.67 552.173C1021.2 556.677 1027.26 559.195 1033.56 559.195C1039.87 559.195 1045.93 556.677 1050.46 552.173C1055 547.668 1057.65 541.529 1057.87 535.051Z" stroke="black" stroke-width="1.5" stroke-linecap="round" stroke-linejoin="round"/>
<path d="M1044.38 536.127C1044.38 533.925 1043.74 531.773 1042.55 529.942C1041.36 528.111 1039.67 526.685 1037.69 525.842C1035.72 525 1033.54 524.779 1031.44 525.209C1029.34 525.638 1027.41 526.698 1025.89 528.255C1024.38 529.812 1023.35 531.795 1022.93 533.955C1022.51 536.114 1022.73 538.352 1023.55 540.386C1024.37 542.421 1025.75 544.159 1027.53 545.382C1029.32 546.605 1031.41 547.258 1033.55 547.258C1036.42 547.258 1039.18 546.085 1041.21 543.998C1043.24 541.91 1044.38 539.079 1044.38 536.127Z" stroke="black" stroke-width="1.5" stroke-linecap="round" stroke-linejoin="round"/>
<path d="M1040.14 475.469C1040.14 474.129 1039.75 472.82 1039.03 471.706C1038.3 470.593 1037.28 469.725 1036.07 469.212C1034.87 468.699 1033.54 468.565 1032.27 468.827C1030.99 469.088 1029.81 469.733 1028.89 470.68C1027.97 471.627 1027.34 472.834 1027.09 474.147C1026.84 475.461 1026.97 476.823 1027.46 478.06C1027.96 479.298 1028.81 480.355 1029.89 481.099C1030.97 481.844 1032.25 482.241 1033.55 482.241C1035.3 482.241 1036.97 481.527 1038.21 480.257C1039.44 478.987 1040.14 477.265 1040.14 475.469Z" fill="black"/>
<path d="M1280.81 489.943C1280.81 489.943 1352.99 498.662 1414.63 572.98" stroke="black" stroke-width="1.1" stroke-miterlimit="10" stroke-dasharray="5.52 5.52"/>
<path d="M1145.83 508.603C1121.85 533.249 1121.31 585.304 1163.95 606.144" stroke="black" stroke-width="1.1" stroke-miterlimit="10" stroke-dasharray="5.52 5.52"/>
<path d="M1647.91 657.617C1647.91 657.617 1668.36 603.034 1664.48 560.977" stroke="black" stroke-width="1.1" stroke-miterlimit="10" stroke-dasharray="5.52 5.52"/>
<path d="M1561.68 211.329C1556.33 177.265 1578.25 126.693 1618.68 99.6336" stroke="black" stroke-width="1.1" stroke-miterlimit="10" stroke-dasharray="5.52 5.52"/>
<path d="M566.099 538.074C545.544 509.01 525.017 456.519 545.544 424.49" stroke="black" stroke-width="1.1" stroke-miterlimit="10" stroke-dasharray="5.52 5.52"/>
<path d="M1304.41 535.574C1304.41 534.791 1304.19 534.026 1303.76 533.375C1303.34 532.725 1302.74 532.218 1302.03 531.92C1301.33 531.622 1300.55 531.545 1299.81 531.7C1299.06 531.855 1298.38 532.234 1297.84 532.79C1297.3 533.346 1296.94 534.053 1296.79 534.821C1296.65 535.59 1296.73 536.386 1297.02 537.107C1297.32 537.829 1297.82 538.444 1298.45 538.875C1299.09 539.306 1299.84 539.533 1300.6 539.527C1301.1 539.527 1301.6 539.425 1302.06 539.226C1302.53 539.027 1302.95 538.735 1303.31 538.368C1303.66 538 1303.94 537.564 1304.13 537.085C1304.32 536.606 1304.42 536.092 1304.41 535.574Z" stroke="black" stroke-width="0.71" stroke-miterlimit="10"/>
<path d="M1343.35 563.796C1343.35 561.33 1342.64 558.92 1341.3 556.869C1339.97 554.819 1338.08 553.221 1335.86 552.277C1333.64 551.333 1331.2 551.086 1328.85 551.567C1326.5 552.048 1324.34 553.236 1322.64 554.98C1320.94 556.723 1319.79 558.945 1319.32 561.364C1318.85 563.783 1319.09 566.29 1320.01 568.568C1320.93 570.846 1322.48 572.794 1324.48 574.164C1326.47 575.534 1328.82 576.265 1331.22 576.265C1332.81 576.265 1334.39 575.943 1335.86 575.316C1337.33 574.689 1338.67 573.771 1339.79 572.613C1340.92 571.455 1341.81 570.081 1342.42 568.568C1343.03 567.055 1343.35 565.434 1343.35 563.796Z" stroke="black" stroke-width="0.71" stroke-miterlimit="10"/>
<path d="M907.76 490.35C907.76 489.028 907.379 487.735 906.665 486.636C905.95 485.537 904.934 484.68 903.746 484.174C902.558 483.668 901.25 483.535 899.989 483.793C898.727 484.051 897.568 484.688 896.659 485.623C895.749 486.558 895.13 487.749 894.879 489.046C894.628 490.342 894.757 491.686 895.249 492.908C895.742 494.129 896.575 495.174 897.645 495.908C898.714 496.643 899.971 497.035 901.257 497.035C902.982 497.035 904.636 496.33 905.856 495.077C907.075 493.823 907.76 492.123 907.76 490.35Z" stroke="black" stroke-width="0.71" stroke-miterlimit="10"/>
<path d="M878.129 432.046C882.736 432.046 886.47 435.885 886.47 440.62C886.47 445.356 882.736 449.194 878.129 449.194C873.523 449.194 869.789 445.356 869.789 440.62C869.789 435.885 873.523 432.046 878.129 432.046Z" stroke="black" stroke-width="0.71" stroke-miterlimit="10"/>
<path d="M1614.18 449.194C1614.18 448.045 1613.85 446.921 1613.23 445.965C1612.61 445.009 1611.73 444.264 1610.69 443.824C1609.66 443.384 1608.52 443.269 1607.42 443.493C1606.33 443.717 1605.32 444.271 1604.53 445.084C1603.74 445.897 1603.2 446.933 1602.98 448.06C1602.76 449.188 1602.88 450.357 1603.3 451.419C1603.73 452.481 1604.46 453.389 1605.39 454.028C1606.32 454.666 1607.41 455.007 1608.53 455.007C1610.03 455.007 1611.47 454.395 1612.53 453.305C1613.59 452.215 1614.18 450.736 1614.18 449.194Z" stroke="black" stroke-width="0.71" stroke-miterlimit="10"/>
<path d="M1610.48 574.201C1610.48 571.747 1609.77 569.347 1608.44 567.306C1607.12 565.265 1605.23 563.675 1603.03 562.735C1600.82 561.796 1598.39 561.55 1596.05 562.029C1593.71 562.508 1591.56 563.69 1589.87 565.426C1588.18 567.161 1587.03 569.373 1586.56 571.78C1586.1 574.187 1586.34 576.683 1587.25 578.951C1588.17 581.218 1589.71 583.157 1591.7 584.52C1593.68 585.884 1596.02 586.612 1598.41 586.612C1601.61 586.612 1604.68 585.304 1606.94 582.977C1609.21 580.649 1610.48 577.493 1610.48 574.201Z" stroke="black" stroke-width="0.71" stroke-miterlimit="10"/>
<path d="M1654.08 195.402C1656.64 195.402 1658.71 197.536 1658.71 200.168C1658.71 202.801 1656.64 204.935 1654.08 204.935C1651.52 204.935 1649.44 202.801 1649.44 200.168C1649.44 197.536 1651.52 195.402 1654.08 195.402Z" stroke="black" stroke-width="0.71" stroke-miterlimit="10"/>
<path d="M1531.59 157.705C1531.59 155.342 1530.91 153.033 1529.64 151.068C1528.36 149.104 1526.54 147.573 1524.42 146.669C1522.3 145.764 1519.96 145.528 1517.71 145.989C1515.45 146.45 1513.38 147.587 1511.76 149.258C1510.13 150.929 1509.03 153.057 1508.58 155.374C1508.13 157.692 1508.36 160.093 1509.24 162.276C1510.12 164.459 1511.61 166.325 1513.52 167.637C1515.43 168.95 1517.68 169.65 1519.97 169.65C1523.06 169.65 1526.01 168.392 1528.19 166.152C1530.37 163.911 1531.59 160.873 1531.59 157.705Z" stroke="black" stroke-width="0.71" stroke-miterlimit="10"/>
<path d="M1527.86 105.708C1527.86 104.558 1527.53 103.434 1526.91 102.479C1526.29 101.523 1525.4 100.778 1524.37 100.338C1523.34 99.8977 1522.2 99.7825 1521.1 100.007C1520.01 100.231 1519 100.785 1518.21 101.598C1517.42 102.411 1516.88 103.446 1516.66 104.574C1516.44 105.702 1516.56 106.87 1516.98 107.933C1517.41 108.995 1518.14 109.903 1519.07 110.541C1520 111.18 1521.09 111.521 1522.21 111.521C1523.71 111.521 1525.15 110.909 1526.21 109.818C1527.27 108.728 1527.86 107.25 1527.86 105.708Z" stroke="black" stroke-width="0.71" stroke-miterlimit="10"/>
<path d="M508.731 574.201C508.737 572.687 508.305 571.205 507.49 569.944C506.675 568.682 505.514 567.698 504.154 567.116C502.794 566.534 501.297 566.38 499.852 566.674C498.407 566.968 497.079 567.696 496.038 568.767C494.996 569.838 494.287 571.203 494.001 572.688C493.715 574.174 493.865 575.713 494.431 577.111C494.997 578.509 495.955 579.703 497.182 580.54C498.409 581.378 499.851 581.822 501.324 581.816C503.288 581.816 505.173 581.014 506.562 579.586C507.951 578.158 508.731 576.221 508.731 574.201Z" stroke="black" stroke-width="0.71" stroke-miterlimit="10"/>
<path d="M417.774 600.912C436.231 600.912 451.194 616.293 451.194 635.266C451.194 654.24 436.231 669.621 417.774 669.621C399.317 669.621 384.354 654.24 384.354 635.266C384.354 616.293 399.317 600.912 417.774 600.912Z" stroke="black" stroke-width="0.71" stroke-miterlimit="10"/>
<path d="M460.921 537.958C464.247 537.958 466.943 540.73 466.943 544.149C466.943 547.568 464.247 550.339 460.921 550.339C457.595 550.339 454.898 547.568 454.898 544.149C454.898 540.73 457.595 537.958 460.921 537.958Z" stroke="black" stroke-width="0.71" stroke-miterlimit="10"/>
<path d="M149.541 349.968C159.8 349.968 168.117 358.517 168.117 369.063C168.117 379.609 159.8 388.159 149.541 388.159C139.282 388.159 130.965 379.609 130.965 369.063C130.965 358.517 139.282 349.968 149.541 349.968Z" stroke="black" stroke-width="0.71" stroke-miterlimit="10"/>
<path d="M164.384 439.661C164.384 438.718 164.112 437.797 163.603 437.013C163.093 436.229 162.369 435.618 161.522 435.257C160.675 434.896 159.742 434.802 158.843 434.986C157.943 435.17 157.117 435.624 156.468 436.291C155.82 436.957 155.378 437.806 155.199 438.731C155.02 439.656 155.112 440.614 155.463 441.485C155.814 442.356 156.409 443.101 157.171 443.624C157.934 444.148 158.83 444.428 159.747 444.428C160.357 444.432 160.962 444.311 161.526 444.073C162.09 443.834 162.603 443.484 163.034 443.04C163.466 442.597 163.807 442.07 164.039 441.49C164.271 440.91 164.388 440.288 164.384 439.661Z" stroke="black" stroke-width="0.71" stroke-miterlimit="10"/>
<path d="M201.508 384.322C201.508 383.379 201.236 382.458 200.727 381.674C200.217 380.89 199.493 380.279 198.646 379.918C197.798 379.558 196.866 379.463 195.967 379.647C195.067 379.831 194.241 380.285 193.593 380.952C192.944 381.618 192.502 382.468 192.323 383.392C192.145 384.317 192.236 385.275 192.587 386.146C192.938 387.017 193.533 387.762 194.295 388.285C195.058 388.809 195.954 389.089 196.871 389.089C197.481 389.093 198.086 388.972 198.65 388.734C199.215 388.496 199.727 388.145 200.158 387.701C200.59 387.258 200.931 386.731 201.163 386.151C201.395 385.571 201.512 384.949 201.508 384.322Z" stroke="black" stroke-width="0.71" stroke-miterlimit="10"/>
<path d="M499.458 444.428C499.463 442.534 498.922 440.681 497.902 439.104C496.882 437.527 495.429 436.297 493.728 435.57C492.027 434.842 490.155 434.651 488.348 435.019C486.541 435.387 484.881 436.298 483.578 437.637C482.275 438.976 481.389 440.683 481.031 442.54C480.673 444.398 480.859 446.323 481.567 448.071C482.274 449.82 483.471 451.313 485.005 452.361C486.539 453.41 488.342 453.967 490.184 453.961C492.644 453.961 495.002 452.957 496.741 451.169C498.481 449.381 499.458 446.956 499.458 444.428Z" stroke="black" stroke-width="0.71" stroke-miterlimit="10"/>
<path d="M1229.01 435.854C1229.01 434.341 1228.58 432.86 1227.77 431.599C1226.95 430.338 1225.8 429.354 1224.44 428.771C1223.08 428.188 1221.58 428.032 1220.14 428.324C1218.69 428.616 1217.37 429.341 1216.32 430.409C1215.28 431.477 1214.57 432.839 1214.28 434.323C1213.99 435.806 1214.14 437.345 1214.7 438.743C1215.26 440.142 1216.21 441.337 1217.44 442.178C1218.66 443.02 1220.1 443.469 1221.57 443.469C1223.54 443.469 1225.43 442.667 1226.82 441.24C1228.21 439.813 1229 437.876 1229.01 435.854Z" stroke="black" stroke-width="0.71" stroke-miterlimit="10"/>
</g>
</svg>
