<svg width="1920" height="502" viewBox="0 0 1920 502" fill="none" xmlns="http://www.w3.org/2000/svg">
<g style="mix-blend-mode:luminosity" opacity="0.25" clip-path="url(#clip0_807_6887)">
<path d="M1013.82 294.345C926.336 332.129 883.106 429.961 878.101 501.605" stroke="#9C9C9C" stroke-width="1.1" stroke-miterlimit="10" stroke-dasharray="5.52 5.52"/>
<path d="M1487.94 534.42C1485.87 478.238 1467.51 423.976 1435.21 378.604C1402.72 333.874 1355.53 300.13 1302.83 286.76C1251.94 273.739 1190.5 283.447 1159.71 327.247C1150.6 340.181 1144.58 356.573 1147.97 372.152C1152.75 394.067 1176.87 408.483 1198.3 404.123C1219.73 399.763 1236.39 379.418 1239.16 357.155C1241.93 334.891 1232.06 312.046 1215.83 297.02C1200.28 282.487 1133.5 265.049 1053.85 281.877" stroke="#9C9C9C" stroke-width="1.1" stroke-miterlimit="10" stroke-dasharray="5.52 5.52"/>
<path d="M1601.35 508.29C1625.2 475.055 1640.94 436.422 1647.26 395.635C1650.88 372.151 1651.16 347.243 1641.61 325.531C1632.05 303.82 1611.07 286.265 1587.89 287.079C1574.09 287.573 1559.33 296.583 1557.41 310.65C1555.6 323.846 1565.89 336.314 1578.22 340.761C1590.55 345.208 1603.95 343.377 1616.67 340.761C1661.49 331.128 1703.81 311.842 1740.85 284.173C1777.89 256.504 1808.8 221.081 1831.55 180.237C1845.69 154.486 1856.46 123.096 1845.32 95.9497C1839.67 81.8243 1828.36 70.6344 1816.17 61.944C1759.79 21.922 1624.36 101.443 1587.86 42.1219C1562.41 0.67571 1603.21 -51.8732 1634.77 -73.4973C1720.18 -132.034 1822.53 -159.558 1921.6 -187.315" stroke="#9C9C9C" stroke-width="1.1" stroke-miterlimit="10" stroke-dasharray="5.52 5.52"/>
<path d="M0.989746 414.702C82.9839 482.539 359.389 516.428 592.649 419.469C724.687 364.507 759.068 260.049 687.338 218.574C633.787 187.62 525.866 213.4 573.733 316.899C632.034 442.866 808.689 544.505 911.097 570.285" stroke="#9C9C9C" stroke-width="1.1" stroke-miterlimit="10" stroke-dasharray="5.52 5.52"/>
<path d="M1503.66 352.997C1503.66 352.997 1460.29 309.4 1455.99 304.634C1450.34 298.414 1457.29 290.334 1463.91 295.74C1470.1 300.797 1507.05 339.337 1511.97 345.15C1512.53 345.699 1512.97 346.361 1513.27 347.093C1513.57 347.826 1513.72 348.614 1513.72 349.409C1513.71 350.204 1513.54 350.989 1513.23 351.715C1512.91 352.441 1512.46 353.093 1511.89 353.631C1511.32 354.168 1510.65 354.58 1509.92 354.841C1509.19 355.101 1508.41 355.205 1507.64 355.146C1506.87 355.086 1506.12 354.865 1505.43 354.496C1504.75 354.126 1504.15 353.616 1503.66 352.997Z" stroke="#9C9C9C" stroke-width="0.71" stroke-miterlimit="10"/>
<path d="M1475.02 324.835C1475.02 324.835 1452.68 337.885 1449.09 340.297C1445.5 342.709 1448.19 345.209 1451.01 344.686C1463 342.477 1485.79 335.211 1485.79 335.211" stroke="#9C9C9C" stroke-width="0.71" stroke-miterlimit="10"/>
<path d="M1484.74 316.115C1484.74 316.115 1497.41 293.154 1499.79 289.463C1502.16 285.771 1504.54 288.532 1504.06 291.41C1501.91 303.762 1494.84 327.188 1494.84 327.188" stroke="#9C9C9C" stroke-width="0.71" stroke-miterlimit="10"/>
<path d="M1460.2 309.023L1450.42 311.377C1447.88 312.045 1445.61 309.401 1448.47 307.308C1452.03 304.692 1454.63 302.861 1454.63 302.861" stroke="#9C9C9C" stroke-width="0.71" stroke-miterlimit="10"/>
<path d="M1469 300.449C1469 300.449 1470.83 292.282 1471.29 290.393C1471.94 287.777 1469.36 285.452 1467.33 288.358C1464.78 292.05 1463 294.723 1463 294.723" stroke="#9C9C9C" stroke-width="0.71" stroke-miterlimit="10"/>
<path d="M268.772 404.616C268.772 404.616 198.822 454.026 191.188 458.88C181.377 465.012 172.443 453.067 181.49 445.278C189.972 437.924 251.411 396.129 260.402 390.578C261.299 390.013 262.295 389.635 263.334 389.466C264.373 389.297 265.434 389.34 266.456 389.592C267.479 389.844 268.443 390.301 269.294 390.937C270.145 391.572 270.866 392.374 271.415 393.295C271.965 394.217 272.332 395.241 272.497 396.309C272.661 397.377 272.62 398.467 272.374 399.519C272.129 400.57 271.684 401.561 271.066 402.436C270.448 403.31 269.668 404.051 268.772 404.616Z" stroke="#9C9C9C" stroke-width="0.99" stroke-miterlimit="10"/>
<path d="M223.533 437.431C223.533 437.431 234.843 472.541 237.19 478.267C239.536 483.993 243.495 480.883 243.579 476.756C243.89 459.317 240.328 425.021 240.328 425.021" stroke="#9C9C9C" stroke-width="0.99" stroke-miterlimit="10"/>
<path d="M214.429 421.357C214.429 421.357 187.173 397.234 182.875 392.903C178.578 388.572 182.875 385.899 186.636 387.41C202.582 393.746 231.874 410.08 231.874 410.08" stroke="#9C9C9C" stroke-width="0.99" stroke-miterlimit="10"/>
<path d="M198.284 454.114C198.284 454.114 198.68 465.74 198.822 468.646C198.991 472.425 194.863 474.924 192.827 470.332C190.311 464.519 188.558 460.363 188.558 460.363" stroke="#9C9C9C" stroke-width="0.99" stroke-miterlimit="10"/>
<path d="M189.209 439.349C189.209 439.349 178.776 434.553 176.401 433.536C173.064 431.937 169.247 434.931 172.612 438.593C176.825 443.185 179.935 446.44 179.935 446.44" stroke="#9C9C9C" stroke-width="0.99" stroke-miterlimit="10"/>
<path d="M861.872 355.062L810.187 360.875C810.187 360.875 823.108 331.345 861.872 355.062Z" stroke="#9C9C9C" stroke-width="0.71" stroke-miterlimit="10"/>
<path d="M780.528 457.95C780.528 457.95 786.437 396.304 810.102 360.816C785.023 377.819 770.038 436.384 769.021 453.997L780.528 457.95Z" stroke="#9C9C9C" stroke-width="0.71" stroke-miterlimit="10"/>
<path d="M810.187 360.816C810.187 360.816 826.925 341.023 808.519 321.405C808.14 334.566 808.697 347.739 810.187 360.816Z" stroke="#9C9C9C" stroke-width="0.71" stroke-miterlimit="10"/>
<path d="M778.944 316.783L810.046 360.816C810.046 360.816 808.208 320.504 778.944 316.783Z" stroke="#9C9C9C" stroke-width="0.71" stroke-miterlimit="10"/>
<path d="M810.187 360.816C810.187 360.816 844.625 359.276 849.516 388.05C828.593 374.564 810.187 360.816 810.187 360.816Z" stroke="#9C9C9C" stroke-width="0.71" stroke-miterlimit="10"/>
<path d="M817.68 402.641L810.187 360.817C810.187 360.817 836.284 392.323 817.68 402.641Z" stroke="#9C9C9C" stroke-width="0.71" stroke-miterlimit="10"/>
<path d="M768.483 361.107L810.187 360.817C810.187 360.817 777.842 335.763 768.483 361.107Z" stroke="#9C9C9C" stroke-width="0.71" stroke-miterlimit="10"/>
<path d="M770.067 448.475C761.597 447.391 752.998 448.49 745.044 451.672L802.016 471.232C797.204 462.834 790.054 456.112 781.489 451.933" stroke="#9C9C9C" stroke-width="0.71" stroke-miterlimit="10"/>
<path d="M1723.95 208.204C1729.26 228.361 1717.67 249.129 1698.06 254.59C1678.45 260.051 1658.25 248.138 1652.94 227.982C1647.63 207.825 1659.22 187.057 1678.82 181.596C1698.43 176.134 1718.63 188.047 1723.95 208.204Z" stroke="#9C9C9C" stroke-width="0.71" stroke-linecap="round" stroke-linejoin="round"/>
<path d="M1711.31 203.29C1719.15 216.126 1715.37 233.06 1702.88 241.112C1690.4 249.164 1673.92 245.286 1666.09 232.45C1658.26 219.613 1662.03 202.679 1674.52 194.627C1687.01 186.575 1703.48 190.453 1711.31 203.29Z" stroke="#9C9C9C" stroke-width="0.71" stroke-linecap="round" stroke-linejoin="round"/>
<path d="M1691.99 220.143C1692.38 219.434 1692.56 218.623 1692.51 217.81C1692.45 216.998 1692.17 216.219 1691.68 215.572C1691.2 214.925 1690.55 214.438 1689.8 214.17C1689.05 213.903 1688.24 213.868 1687.47 214.069C1686.71 214.271 1686.01 214.699 1685.48 215.303C1684.95 215.906 1684.6 216.656 1684.48 217.461C1684.36 218.267 1684.47 219.09 1684.8 219.831C1685.13 220.571 1685.66 221.195 1686.34 221.626C1686.8 221.922 1687.32 222.118 1687.86 222.204C1688.39 222.29 1688.94 222.263 1689.47 222.124C1690 221.986 1690.5 221.739 1690.93 221.398C1691.36 221.058 1691.72 220.631 1691.99 220.143Z" stroke="#9C9C9C" stroke-width="0.71" stroke-linecap="round" stroke-linejoin="round"/>
<path d="M1689.39 222.469L1677.15 238.222L1684.64 219.272" stroke="#9C9C9C" stroke-width="0.71" stroke-linecap="round" stroke-linejoin="round"/>
<path d="M1692.56 216.83L1699.85 198.432L1687.72 214.011" stroke="#9C9C9C" stroke-width="0.71" stroke-linecap="round" stroke-linejoin="round"/>
<path d="M829.534 196.953C833.983 217.329 821.52 237.555 801.698 242.129C781.876 246.702 762.2 233.891 757.751 213.514C753.302 193.138 765.764 172.912 785.587 168.338C805.409 163.765 825.085 176.576 829.534 196.953Z" stroke="#9C9C9C" stroke-width="0.71" stroke-linecap="round" stroke-linejoin="round"/>
<path d="M783.355 230.635C788.23 232.723 793.597 233.277 798.778 232.228C803.96 231.178 808.721 228.572 812.462 224.74C816.202 220.908 818.752 216.021 819.789 210.698C820.827 205.376 820.305 199.856 818.29 194.839C816.275 189.821 812.857 185.53 808.469 182.51C804.081 179.49 798.92 177.875 793.64 177.871C788.359 177.867 783.196 179.473 778.803 182.486C774.411 185.499 770.987 189.784 768.964 194.799C766.255 201.513 766.249 209.058 768.948 215.777C771.646 222.496 776.828 227.84 783.355 230.635Z" stroke="#9C9C9C" stroke-width="0.71" stroke-linecap="round" stroke-linejoin="round"/>
<path d="M791.979 209.157C792.717 209.473 793.53 209.557 794.314 209.398C795.099 209.24 795.82 208.845 796.387 208.265C796.953 207.685 797.34 206.946 797.498 206.14C797.655 205.334 797.577 204.498 797.272 203.738C796.968 202.978 796.451 202.327 795.787 201.869C795.123 201.411 794.342 201.166 793.542 201.164C792.743 201.162 791.96 201.404 791.295 201.86C790.629 202.315 790.109 202.963 789.802 203.722C789.389 204.739 789.387 205.884 789.795 206.903C790.204 207.922 790.989 208.733 791.979 209.157Z" stroke="#9C9C9C" stroke-width="0.71" stroke-linecap="round" stroke-linejoin="round"/>
<path d="M789.406 206.832L772.555 196.485L791.837 201.542" stroke="#9C9C9C" stroke-width="0.71" stroke-linecap="round" stroke-linejoin="round"/>
<path d="M795.259 209.274L814.004 214.186L797.351 203.984" stroke="#9C9C9C" stroke-width="0.71" stroke-linecap="round" stroke-linejoin="round"/>
<path d="M1057.87 346.052C1057.87 332.246 1033.55 299.112 1033.55 299.112C1033.55 299.112 1009.26 332.246 1009.26 346.052C1009.48 352.53 1012.13 358.669 1016.67 363.173C1021.2 367.678 1027.26 370.195 1033.56 370.195C1039.87 370.195 1045.93 367.678 1050.46 363.173C1055 358.669 1057.65 352.53 1057.87 346.052Z" stroke="#9C9C9C" stroke-width="1.5" stroke-linecap="round" stroke-linejoin="round"/>
<path d="M1044.38 347.126C1044.38 344.924 1043.74 342.772 1042.55 340.942C1041.36 339.111 1039.67 337.684 1037.69 336.842C1035.72 335.999 1033.54 335.779 1031.44 336.208C1029.34 336.638 1027.41 337.698 1025.89 339.255C1024.38 340.811 1023.35 342.795 1022.93 344.954C1022.51 347.114 1022.73 349.352 1023.55 351.386C1024.37 353.42 1025.75 355.159 1027.53 356.382C1029.32 357.605 1031.41 358.258 1033.55 358.258C1036.42 358.258 1039.18 357.085 1041.21 354.997C1043.24 352.91 1044.38 350.078 1044.38 347.126Z" stroke="#9C9C9C" stroke-width="1.5" stroke-linecap="round" stroke-linejoin="round"/>
<path d="M1040.14 286.468C1040.14 285.129 1039.75 283.819 1039.03 282.706C1038.3 281.592 1037.28 280.724 1036.07 280.212C1034.87 279.699 1033.54 279.565 1032.27 279.826C1030.99 280.088 1029.81 280.732 1028.89 281.68C1027.97 282.627 1027.34 283.833 1027.09 285.147C1026.84 286.461 1026.97 287.822 1027.46 289.06C1027.96 290.297 1028.81 291.355 1029.89 292.099C1030.97 292.843 1032.25 293.24 1033.55 293.24C1035.3 293.24 1036.97 292.527 1038.21 291.257C1039.44 289.987 1040.14 288.264 1040.14 286.468Z" fill="#9C9C9C"/>
<path d="M1280.81 300.943C1280.81 300.943 1352.99 309.662 1414.63 383.98" stroke="#9C9C9C" stroke-width="1.1" stroke-miterlimit="10" stroke-dasharray="5.52 5.52"/>
<path d="M1145.83 319.603C1121.85 344.249 1121.31 396.304 1163.95 417.144" stroke="#9C9C9C" stroke-width="1.1" stroke-miterlimit="10" stroke-dasharray="5.52 5.52"/>
<path d="M1647.91 468.617C1647.91 468.617 1668.36 414.034 1664.48 371.977" stroke="#9C9C9C" stroke-width="1.1" stroke-miterlimit="10" stroke-dasharray="5.52 5.52"/>
<path d="M1561.68 22.3291C1556.33 -11.7347 1578.25 -62.3072 1618.68 -89.3664" stroke="#9C9C9C" stroke-width="1.1" stroke-miterlimit="10" stroke-dasharray="5.52 5.52"/>
<path d="M566.099 349.074C545.544 320.01 525.017 267.519 545.544 235.49" stroke="#9C9C9C" stroke-width="1.1" stroke-miterlimit="10" stroke-dasharray="5.52 5.52"/>
<path d="M1304.41 346.574C1304.41 345.791 1304.19 345.026 1303.76 344.375C1303.34 343.725 1302.74 343.218 1302.03 342.92C1301.33 342.622 1300.55 342.545 1299.81 342.7C1299.06 342.855 1298.38 343.234 1297.84 343.79C1297.3 344.346 1296.94 345.053 1296.79 345.821C1296.65 346.59 1296.73 347.386 1297.02 348.107C1297.32 348.829 1297.82 349.444 1298.45 349.875C1299.09 350.306 1299.84 350.533 1300.6 350.527C1301.1 350.527 1301.6 350.425 1302.06 350.226C1302.53 350.027 1302.95 349.735 1303.31 349.368C1303.66 349 1303.94 348.564 1304.13 348.085C1304.32 347.606 1304.42 347.092 1304.41 346.574Z" stroke="#9C9C9C" stroke-width="0.71" stroke-miterlimit="10"/>
<path d="M1343.35 374.797C1343.35 372.331 1342.64 369.92 1341.3 367.87C1339.97 365.819 1338.08 364.221 1335.86 363.277C1333.64 362.334 1331.2 362.087 1328.85 362.568C1326.5 363.049 1324.34 364.236 1322.64 365.98C1320.94 367.724 1319.79 369.946 1319.32 372.364C1318.85 374.783 1319.09 377.29 1320.01 379.568C1320.93 381.847 1322.48 383.794 1324.48 385.164C1326.47 386.534 1328.82 387.266 1331.22 387.266C1332.81 387.266 1334.39 386.943 1335.86 386.317C1337.33 385.69 1338.67 384.771 1339.79 383.614C1340.92 382.456 1341.81 381.081 1342.42 379.568C1343.03 378.056 1343.35 376.434 1343.35 374.797Z" stroke="#9C9C9C" stroke-width="0.71" stroke-miterlimit="10"/>
<path d="M907.76 301.35C907.76 300.028 907.379 298.736 906.665 297.636C905.95 296.537 904.934 295.68 903.746 295.174C902.558 294.668 901.25 294.536 899.989 294.794C898.727 295.052 897.568 295.688 896.659 296.623C895.749 297.558 895.13 298.749 894.879 300.046C894.628 301.343 894.757 302.687 895.249 303.908C895.742 305.13 896.575 306.174 897.645 306.909C898.714 307.643 899.971 308.035 901.257 308.035C902.982 308.035 904.636 307.331 905.856 306.077C907.075 304.824 907.76 303.123 907.76 301.35Z" stroke="#9C9C9C" stroke-width="0.71" stroke-miterlimit="10"/>
<path d="M878.129 243.046C882.736 243.046 886.47 246.885 886.47 251.62C886.47 256.356 882.736 260.194 878.129 260.194C873.523 260.194 869.789 256.356 869.789 251.62C869.789 246.885 873.523 243.046 878.129 243.046Z" stroke="#9C9C9C" stroke-width="0.71" stroke-miterlimit="10"/>
<path d="M1614.18 260.195C1614.18 259.045 1613.85 257.921 1613.23 256.965C1612.61 256.009 1611.73 255.264 1610.69 254.824C1609.66 254.384 1608.52 254.269 1607.42 254.494C1606.33 254.718 1605.32 255.272 1604.53 256.085C1603.74 256.897 1603.2 257.933 1602.98 259.061C1602.76 260.188 1602.88 261.357 1603.3 262.419C1603.73 263.482 1604.46 264.389 1605.39 265.028C1606.32 265.667 1607.41 266.008 1608.53 266.008C1610.03 266.008 1611.47 265.395 1612.53 264.305C1613.59 263.215 1614.18 261.737 1614.18 260.195Z" stroke="#9C9C9C" stroke-width="0.71" stroke-miterlimit="10"/>
<path d="M1610.48 385.201C1610.48 382.746 1609.77 380.347 1608.44 378.306C1607.12 376.265 1605.23 374.674 1603.03 373.735C1600.82 372.795 1598.39 372.55 1596.05 373.029C1593.71 373.507 1591.56 374.689 1589.87 376.425C1588.18 378.161 1587.03 380.372 1586.56 382.78C1586.1 385.187 1586.34 387.682 1587.25 389.95C1588.17 392.218 1589.71 394.156 1591.7 395.52C1593.68 396.883 1596.02 397.611 1598.41 397.611C1601.61 397.611 1604.68 396.304 1606.94 393.976C1609.21 391.649 1610.48 388.492 1610.48 385.201Z" stroke="#9C9C9C" stroke-width="0.71" stroke-miterlimit="10"/>
<path d="M1654.08 6.40234C1656.64 6.40234 1658.71 8.53642 1658.71 11.1689C1658.71 13.8015 1656.64 15.9355 1654.08 15.9355C1651.52 15.9355 1649.44 13.8015 1649.44 11.1689C1649.44 8.53642 1651.52 6.40234 1654.08 6.40234Z" stroke="#9C9C9C" stroke-width="0.71" stroke-miterlimit="10"/>
<path d="M508.731 385.201C508.737 383.687 508.305 382.205 507.49 380.944C506.675 379.682 505.514 378.698 504.154 378.116C502.794 377.534 501.297 377.38 499.852 377.674C498.407 377.968 497.079 378.696 496.038 379.767C494.996 380.838 494.287 382.203 494.001 383.688C493.715 385.174 493.865 386.713 494.431 388.111C494.997 389.509 495.955 390.703 497.182 391.54C498.409 392.378 499.851 392.822 501.324 392.816C503.288 392.816 505.173 392.014 506.562 390.586C507.951 389.158 508.731 387.221 508.731 385.201Z" stroke="#9C9C9C" stroke-width="0.71" stroke-miterlimit="10"/>
<path d="M417.774 411.912C436.231 411.912 451.194 427.293 451.194 446.267C451.194 465.24 436.231 480.621 417.774 480.621C399.317 480.621 384.354 465.24 384.354 446.267C384.354 427.293 399.317 411.912 417.774 411.912Z" stroke="#9C9C9C" stroke-width="0.71" stroke-miterlimit="10"/>
<path d="M460.92 348.958C464.246 348.958 466.943 351.73 466.943 355.149C466.943 358.568 464.246 361.34 460.92 361.34C457.594 361.34 454.898 358.568 454.898 355.149C454.898 351.73 457.594 348.958 460.92 348.958Z" stroke="#9C9C9C" stroke-width="0.71" stroke-miterlimit="10"/>
<path d="M149.54 160.967C159.799 160.967 168.116 169.517 168.116 180.063C168.116 190.609 159.799 199.158 149.54 199.158C139.281 199.158 130.964 190.609 130.964 180.063C130.964 169.517 139.281 160.967 149.54 160.967Z" stroke="#9C9C9C" stroke-width="0.71" stroke-miterlimit="10"/>
<path d="M164.384 250.661C164.384 249.718 164.112 248.797 163.603 248.013C163.093 247.229 162.369 246.618 161.522 246.257C160.675 245.896 159.742 245.802 158.843 245.986C157.943 246.17 157.117 246.624 156.468 247.291C155.82 247.957 155.378 248.806 155.199 249.731C155.02 250.656 155.112 251.614 155.463 252.485C155.814 253.356 156.409 254.101 157.171 254.624C157.934 255.148 158.83 255.428 159.747 255.428C160.357 255.432 160.962 255.311 161.526 255.073C162.09 254.834 162.603 254.484 163.034 254.04C163.466 253.597 163.807 253.07 164.039 252.49C164.271 251.91 164.388 251.288 164.384 250.661Z" stroke="#9C9C9C" stroke-width="0.71" stroke-miterlimit="10"/>
<path d="M201.508 195.322C201.508 194.379 201.236 193.458 200.726 192.674C200.217 191.89 199.493 191.279 198.645 190.918C197.798 190.558 196.866 190.463 195.966 190.647C195.067 190.831 194.241 191.285 193.592 191.952C192.944 192.618 192.502 193.468 192.323 194.392C192.144 195.317 192.236 196.275 192.587 197.146C192.938 198.017 193.532 198.762 194.295 199.285C195.057 199.809 195.954 200.089 196.871 200.089C197.481 200.093 198.085 199.972 198.65 199.734C199.214 199.496 199.727 199.145 200.158 198.701C200.589 198.258 200.931 197.731 201.163 197.151C201.394 196.571 201.512 195.949 201.508 195.322Z" stroke="#9C9C9C" stroke-width="0.71" stroke-miterlimit="10"/>
<path d="M499.458 255.428C499.463 253.534 498.922 251.681 497.902 250.104C496.882 248.527 495.429 247.297 493.728 246.57C492.027 245.842 490.155 245.651 488.348 246.019C486.541 246.387 484.881 247.298 483.578 248.637C482.275 249.976 481.389 251.683 481.031 253.54C480.673 255.398 480.859 257.323 481.567 259.071C482.274 260.82 483.471 262.313 485.005 263.361C486.539 264.41 488.342 264.967 490.184 264.961C492.644 264.961 495.002 263.957 496.741 262.169C498.481 260.381 499.458 257.956 499.458 255.428Z" stroke="#9C9C9C" stroke-width="0.71" stroke-miterlimit="10"/>
<path d="M1229.01 246.854C1229.01 245.341 1228.58 243.86 1227.77 242.599C1226.95 241.338 1225.8 240.354 1224.44 239.771C1223.08 239.188 1221.58 239.032 1220.14 239.324C1218.69 239.616 1217.37 240.341 1216.32 241.409C1215.28 242.477 1214.57 243.839 1214.28 245.323C1213.99 246.806 1214.14 248.345 1214.7 249.743C1215.26 251.142 1216.21 252.337 1217.44 253.178C1218.66 254.02 1220.1 254.469 1221.57 254.469C1223.54 254.469 1225.43 253.667 1226.82 252.24C1228.21 250.813 1229 248.876 1229.01 246.854Z" stroke="#9C9C9C" stroke-width="0.71" stroke-miterlimit="10"/>
</g>
<defs>
<clipPath id="clip0_807_6887">
<rect width="1922" height="502" fill="white" transform="matrix(1 0 0 -1 0 502)"/>
</clipPath>
</defs>
</svg>
