<svg xmlns="http://www.w3.org/2000/svg" width="17" height="17" viewBox="0 0 17 17" fill="none">
<g clip-path="url(#clip0_807_12508)">
<mask id="mask0_807_12508" style="mask-type:luminance" maskUnits="userSpaceOnUse" x="0" y="0" width="17" height="17">
<path d="M0 0H17V17H0V0Z" fill="white"/>
</mask>
<g mask="url(#mask0_807_12508)">
<path fill-rule="evenodd" clip-rule="evenodd" d="M0 8.5C0 3.80558 3.80558 0 8.5 0C13.1944 0 17 3.80558 17 8.5C17 13.1944 13.1944 17 8.5 17C3.80558 17 0 13.1944 0 8.5ZM8.5 1.41667C4.58798 1.41667 1.41667 4.58798 1.41667 8.5C1.41667 12.412 4.58798 15.5833 8.5 15.5833C12.412 15.5833 15.5833 12.412 15.5833 8.5C15.5833 4.58798 12.412 1.41667 8.5 1.41667ZM8.5 4.95833C8.89121 4.95833 9.20833 5.27547 9.20833 5.66667V7.79167H11.3333C11.7245 7.79167 12.0417 8.10879 12.0417 8.5C12.0417 8.89121 11.7245 9.20833 11.3333 9.20833H9.20833V11.3333C9.20833 11.7245 8.89121 12.0417 8.5 12.0417C8.10879 12.0417 7.79167 11.7245 7.79167 11.3333V9.20833H5.66667C5.27547 9.20833 4.95833 8.89121 4.95833 8.5C4.95833 8.10879 5.27547 7.79167 5.66667 7.79167H7.79167V5.66667C7.79167 5.27547 8.10879 4.95833 8.5 4.95833Z" fill="#736D75"/>
</g>
</g>
<defs>
<clipPath id="clip0_807_12508">
<rect width="17" height="17" fill="white"/>
</clipPath>
</defs>
</svg>