<svg xmlns="http://www.w3.org/2000/svg" width="35" height="35" viewBox="0 0 35 35" fill="none">
<g clip-path="url(#clip0_277_231)">8
<path d="M32.4707 15.3042C31.076 15.3042 29.9414 16.4388 29.9414 17.8335V22.1548C29.9414 23.2598 29.6343 24.3236 29.0765 25.2401C28.9569 24.9386 28.7766 24.6601 28.5403 24.4224C27.8626 23.7402 26.8441 23.5217 25.9461 23.8662L22.0494 25.36C19.7649 26.2358 18.0487 28.2228 17.5 30.5953C16.9513 28.2231 15.2351 26.2358 12.9504 25.36L9.05388 23.8659C8.15559 23.522 7.13741 23.7402 6.45943 24.4224C6.22311 24.6601 6.04286 24.9386 5.92323 25.2401C5.36568 24.3236 5.05859 23.2598 5.05859 22.1548V17.8335C5.05859 16.4388 3.92399 15.3042 2.5293 15.3042C1.13461 15.3042 0 16.4388 0 17.8335V23.7685C0 26.2308 0.743408 28.6006 2.14985 30.6218C3.55602 32.6432 5.52002 34.1636 7.82875 35.0195C7.90726 35.0486 7.98737 35.0622 8.06641 35.0622C8.34412 35.0622 8.60527 34.8916 8.70754 34.616C8.83865 34.2619 8.65788 33.8686 8.30406 33.7375C4.15497 32.1996 1.36719 28.1934 1.36719 23.7685V17.8335C1.36719 17.1926 1.88843 16.6714 2.5293 16.6714C3.17017 16.6714 3.69141 17.1926 3.69141 17.8335V22.1548C3.69141 24.4967 4.81239 26.689 6.70029 28.0607C6.75209 28.1005 6.8832 28.1897 6.88934 28.1934L10.7559 30.6258C11.0756 30.8266 11.4975 30.7305 11.6985 30.4111C11.8993 30.0915 11.8035 29.6695 11.4838 29.4685L7.63222 27.0455C7.59216 27.018 7.55291 26.9902 7.51392 26.9619C7.29816 26.7872 7.15878 26.5365 7.127 26.2564C7.09015 25.9338 7.20016 25.6166 7.42928 25.3861C7.72594 25.0876 8.17162 24.9923 8.56441 25.1426L12.4609 26.6366C14.411 27.3843 15.8538 29.1253 16.226 31.1804L16.8274 34.5004C16.8282 34.5046 16.829 34.5081 16.83 34.5118C16.8832 34.7791 17.0938 34.9997 17.3782 35.0512C17.4194 35.0587 17.4602 35.0622 17.5008 35.0622C17.825 35.0622 18.1128 34.8307 18.1726 34.5004L18.774 31.1804C19.146 29.1253 20.5887 27.3843 22.5388 26.6366L26.4353 25.1426C26.8281 24.992 27.2741 25.0876 27.5705 25.3861C27.7996 25.6166 27.9096 25.9338 27.873 26.2564C27.841 26.5365 27.7018 26.7875 27.4858 26.9619C27.4471 26.9902 27.4078 27.018 27.3683 27.0452L23.5162 29.4685C23.1965 29.6695 23.1004 30.0915 23.3015 30.4111C23.5025 30.7305 23.9244 30.8266 24.2441 30.6258L28.1104 28.1934C28.1163 28.1899 28.2476 28.1008 28.2989 28.0615C30.1871 26.6895 31.3086 24.4969 31.3086 22.1548V17.8335C31.3086 17.1926 31.8298 16.6714 32.4707 16.6714C33.1116 16.6714 33.6328 17.1926 33.6328 17.8335V23.7685C33.6328 25.3907 33.2542 27.0163 32.5375 28.4693C32.3706 28.8078 32.5094 29.2177 32.848 29.3846C32.9455 29.4327 33.0486 29.4554 33.15 29.4554C33.4021 29.4554 33.6446 29.3152 33.7637 29.0741C34.5725 27.4342 35 25.5995 35 23.7685V17.8335C35 16.4388 33.8654 15.3042 32.4707 15.3042Z" fill="#CB4845"/>
<path d="M32.0779 30.5642C31.7909 30.319 31.3594 30.3529 31.114 30.64L31.0953 30.6622C30.8518 30.9508 30.8883 31.3821 31.1767 31.6256C31.3049 31.7337 31.4616 31.7866 31.6173 31.7866C31.8117 31.7866 32.0048 31.7041 32.1399 31.5439L32.1535 31.5279C32.3989 31.2408 32.365 30.8093 32.0779 30.5642Z" fill="#CB4845"/>
<path d="M29.2075 32.4017C28.4358 32.9563 27.5909 33.4057 26.6961 33.7373C26.3423 33.8687 26.1615 34.262 26.2929 34.6159C26.3949 34.8917 26.656 35.0621 26.934 35.0621C27.0128 35.0621 27.0932 35.0484 27.1714 35.0193C28.1808 34.6452 29.1343 34.1379 30.0056 33.5114C30.3122 33.2911 30.3819 32.8639 30.1616 32.5576C29.941 32.2511 29.514 32.1811 29.2075 32.4017Z" fill="#CB4845"/>
<path d="M31.1733 7.2124H32.2933C32.6708 7.2124 32.9769 6.90639 32.9769 6.52881C32.9769 6.1515 32.6708 5.84521 32.2933 5.84521H31.1733C30.7958 5.84521 30.4897 6.1515 30.4897 6.52881C30.4897 6.90639 30.7958 7.2124 31.1733 7.2124Z" fill="#CB4845"/>
<path d="M29.5586 5.43842C29.9362 5.43842 30.2422 5.13241 30.2422 4.75483V3.76709C30.2422 3.38951 29.9362 3.0835 29.5586 3.0835C29.1813 3.0835 28.875 3.38951 28.875 3.76709V4.75483C28.875 5.13241 29.1813 5.43842 29.5586 5.43842Z" fill="#CB4845"/>
<path d="M26.771 7.2124H27.8137C28.1913 7.2124 28.4973 6.90639 28.4973 6.52881C28.4973 6.1515 28.1913 5.84521 27.8137 5.84521H26.771C26.3937 5.84521 26.0874 6.1515 26.0874 6.52881C26.0874 6.90639 26.3937 7.2124 26.771 7.2124Z" fill="#CB4845"/>
<path d="M29.5586 9.85212C29.9362 9.85212 30.2422 9.5461 30.2422 9.16853V8.37305C30.2422 7.99547 29.9362 7.68945 29.5586 7.68945C29.1813 7.68945 28.875 7.99547 28.875 8.37305V9.16853C28.875 9.5461 29.1813 9.85212 29.5586 9.85212Z" fill="#CB4845"/>
<path d="M8.77686 4.23047H9.89704C10.2744 4.23047 10.5806 3.92445 10.5806 3.54688C10.5806 3.16956 10.2744 2.86328 9.89704 2.86328H8.77686C8.39954 2.86328 8.09326 3.16956 8.09326 3.54688C8.09326 3.92445 8.39954 4.23047 8.77686 4.23047Z" fill="#CB4845"/>
<path d="M7.1626 2.45724C7.54018 2.45724 7.84619 2.15123 7.84619 1.77365V0.785645C7.84619 0.408333 7.54018 0.102051 7.1626 0.102051C6.78502 0.102051 6.479 0.408333 6.479 0.785645V1.77365C6.479 2.15123 6.78502 2.45724 7.1626 2.45724Z" fill="#CB4845"/>
<path d="M4.375 4.23047H5.41775C5.79533 4.23047 6.10134 3.92445 6.10134 3.54688C6.10134 3.16956 5.79533 2.86328 5.41775 2.86328H4.375C3.99742 2.86328 3.69141 3.16956 3.69141 3.54688C3.69141 3.92445 3.99742 4.23047 4.375 4.23047Z" fill="#CB4845"/>
<path d="M7.1626 6.87045C7.54018 6.87045 7.84619 6.56417 7.84619 6.18686V5.39111C7.84619 5.0138 7.54018 4.70752 7.1626 4.70752C6.78502 4.70752 6.479 5.0138 6.479 5.39111V6.18686C6.479 6.56417 6.78502 6.87045 7.1626 6.87045Z" fill="#CB4845"/>
<path d="M8.62014 11.3672C8.46313 11.4969 8.37207 11.6903 8.37207 11.8943V13.9838C8.37207 14.2014 8.47568 14.4059 8.65112 14.5349C8.76968 14.622 8.91174 14.6674 9.05566 14.6674C9.12429 14.6674 9.19345 14.6569 9.26074 14.6359L15.0312 12.8214V15.2348L13.4958 16.1964C13.2961 16.3213 13.1751 16.5403 13.1751 16.7758V19.0517C13.1751 19.2725 13.2819 19.48 13.4616 19.6082C13.6413 19.7366 13.8723 19.77 14.0811 19.6982L17.4938 18.5227L20.9195 19.6985C20.9919 19.723 21.0666 19.7353 21.1411 19.7353C21.2818 19.7353 21.421 19.692 21.5385 19.6079C21.7182 19.4798 21.825 19.2725 21.825 19.0517V16.7758C21.825 16.54 21.7032 16.3208 21.5032 16.1958L19.9686 15.238V12.8211L25.7394 14.6359C25.8064 14.6569 25.8755 14.6674 25.9442 14.6674C26.0881 14.6674 26.2302 14.622 26.3487 14.5349C26.5242 14.4059 26.628 14.2014 26.628 13.9835V11.894C26.628 11.6903 26.537 11.4969 26.3797 11.3669L19.9686 6.0725V4.21959C19.9686 2.62596 19.1942 1.12179 17.8973 0.195732C17.6596 0.0259018 17.3402 0.0259018 17.1028 0.195732C15.8056 1.12179 15.0312 2.62596 15.0312 4.21959V6.0725L8.62014 11.3672ZM9.73926 13.0521V12.2163L15.0312 7.84584V11.3882L9.73926 13.0521ZM25.2606 12.2163V13.0521L19.9686 11.388V7.84558L25.2606 12.2163ZM17.4999 1.63796C18.1969 2.30713 18.6014 3.24013 18.6014 4.21959V11.8847V11.8916V15.6172C18.6014 15.853 18.7229 16.0722 18.9229 16.1972L20.4575 17.155V18.0944L17.7151 17.1534C17.6433 17.1288 17.5683 17.1163 17.4932 17.1163C17.4179 17.1163 17.3429 17.1288 17.2708 17.1537L14.542 18.0933V17.1542L16.0777 16.1926C16.2772 16.0677 16.3984 15.8487 16.3984 15.6132V11.8916C16.3984 11.8892 16.3984 11.8868 16.3984 11.8847V4.21959C16.3984 3.24013 16.803 2.30713 17.4999 1.63796Z" fill="#CB4845"/>
<path d="M17.5 24.3813C17.3203 24.3813 17.1438 24.4545 17.0167 24.5816C16.8896 24.7087 16.8164 24.8852 16.8164 25.0649C16.8164 25.2447 16.8896 25.4212 17.0167 25.5483C17.1438 25.6754 17.3203 25.7485 17.5 25.7485C17.6797 25.7485 17.8562 25.6754 17.9833 25.5483C18.1104 25.4212 18.1836 25.2447 18.1836 25.0649C18.1836 24.8852 18.1104 24.7087 17.9833 24.5816C17.8562 24.4545 17.6797 24.3813 17.5 24.3813Z" fill="#CB4845"/>
<path d="M8.65381 17.1807V20.5989C8.65381 20.9762 8.95982 21.2825 9.3374 21.2825C9.71471 21.2825 10.021 20.9762 10.021 20.5989V17.1807C10.021 16.8034 9.71471 16.4971 9.3374 16.4971C8.95982 16.4971 8.65381 16.8031 8.65381 17.1807Z" fill="#CB4845"/>
<path d="M25.2607 17.1807V20.5989C25.2607 20.9762 25.567 21.2825 25.9443 21.2825C26.3219 21.2825 26.6279 20.9762 26.6279 20.5989V17.1807C26.6279 16.8034 26.3219 16.4971 25.9443 16.4971C25.567 16.4971 25.2607 16.8031 25.2607 17.1807Z" fill="#CB4845"/>
<path d="M18.1836 20.4907C18.1836 20.1131 17.8776 19.8071 17.5 19.8071C17.1224 19.8071 16.8164 20.1131 16.8164 20.4907V22.3308C16.8164 22.7081 17.1224 23.0144 17.5 23.0144C17.8776 23.0144 18.1836 22.7081 18.1836 22.3308V20.4907Z" fill="#CB4845"/>
</g>
<defs>
<clipPath id="clip0_277_231">
<rect width="35" height="35" fill="white"/>
</clipPath>
</defs>
</svg>