<svg xmlns="http://www.w3.org/2000/svg" width="43" height="41" viewBox="0 0 43 41" fill="none">
<g clip-path="url(#clip0_807_11153)">
<path d="M18.3916 23.3027L19.5963 22.81L20.117 23.9489L18.9123 24.4416L18.3916 23.3027Z" fill="#FF5956"/>
<path d="M19.4512 25.5752L20.656 25.0811L21.1283 26.1114L19.9234 26.6055L19.4512 25.5752Z" fill="#FF5956"/>
<path d="M17.3477 21.0244L18.5523 20.5316L19.073 21.6705L17.8684 22.1633L17.3477 21.0244Z" fill="#FF5956"/>
<path d="M27.0303 11.459V12.6998H30.1537L32.3353 17.3028L33.5316 16.7953L31.0031 11.459H27.0303Z" fill="#FF5956"/>
<path d="M5.3853 10.2182C7.91645 10.2182 9.97666 8.26945 9.97666 5.87522C9.97666 3.48099 7.91645 1.53223 5.3853 1.53223H4.7294V2.6217L4.89403 2.79728C5.21083 3.13665 5.3853 3.56847 5.3853 4.01394C5.3853 5.04012 4.50245 5.87522 3.41758 5.87522C2.94664 5.87522 2.49012 5.71019 2.13134 5.41052L1.94572 5.25479H0.793945V5.87522C0.793945 8.26945 2.85415 10.2182 5.3853 10.2182ZM3.41758 7.11608C5.22592 7.11608 6.69712 5.72446 6.69712 4.01394C6.69712 3.65037 6.62891 3.293 6.49707 2.95673C7.75969 3.38855 8.66485 4.53386 8.66485 5.87522C8.66485 7.58574 7.19364 8.97736 5.3853 8.97736C3.96723 8.97736 2.75642 8.12117 2.29991 6.92685C2.65541 7.05155 3.03322 7.11608 3.41758 7.11608Z" fill="#FF5956"/>
<path d="M39.4932 14.0072L39.4945 13.9408C39.4945 13.4463 39.3686 12.9717 39.1429 12.5479C40.4797 12.1564 41.4603 10.9894 41.4603 9.59779C41.4603 8.82784 41.1546 8.09511 40.6089 7.52804C40.7388 7.19301 40.8044 6.84681 40.8044 6.49565C40.8044 4.78513 39.3332 3.39351 37.5248 3.39351C37.1516 3.39351 36.7876 3.4599 36.4406 3.57467C35.7899 2.36484 34.4643 1.53223 32.9335 1.53223C32.0591 1.53223 31.2124 1.81514 30.525 2.32451C29.9294 1.8201 29.1528 1.53223 28.3421 1.53223C26.9562 1.53223 25.7683 2.35119 25.2921 3.52318C25.0088 3.44687 24.7156 3.39351 24.4066 3.39351C22.5983 3.39351 21.1271 4.78513 21.1271 6.49565C21.1271 6.85053 21.196 7.20169 21.3206 7.53362C20.9375 7.93628 20.6562 8.42704 20.5374 8.97736H9.55229L0.793945 27.4574V28.831H23.5559C23.2831 29.3857 23.0948 30.0037 23.0948 30.7227C23.0948 31.6813 23.4274 32.5561 24.0046 33.2975L18.0397 38.9397L18.9672 39.817L24.9078 34.1977C25.2364 34.4527 25.6037 34.6792 26.0038 34.8734L23.1978 39.0451L24.305 39.7115L27.2474 35.3375C27.7879 35.4876 28.3631 35.5912 28.9705 35.6328L28.998 40.0025L30.3098 39.995L30.2816 35.6371C31.0149 35.5999 31.6885 35.5 32.2985 35.3412L35.6824 39.7431L36.743 39.0135L33.5684 34.8839C33.916 34.717 34.2315 34.5235 34.5142 34.3057L40.3406 39.817L41.2681 38.9397L35.401 33.3899C35.9283 32.6554 36.213 31.7613 36.213 30.7227C36.213 30.0787 36.0602 29.4477 35.826 28.831H41.4603V27.4574L36.5075 17.0063C38.1643 16.8258 39.4735 15.5489 39.4932 14.0072ZM23.7507 7.7365V6.49565C23.2969 6.49565 22.8646 6.58375 22.4711 6.74196C22.4593 6.66006 22.4389 6.58003 22.4389 6.49565C22.4389 5.46946 23.3218 4.63436 24.4066 4.63436C25.4915 4.63436 26.3744 5.46946 26.3744 6.49565H27.6862C27.6862 5.52344 27.2015 4.66539 26.459 4.09583C26.7036 3.32278 27.4592 2.77308 28.3421 2.77308C28.9783 2.77308 29.5791 3.07027 29.9491 3.56661L30.4272 4.20751L30.9762 3.61997C31.4872 3.07399 32.1818 2.77308 32.9335 2.77308C34.3804 2.77308 35.5571 3.88613 35.5571 5.25479C35.5571 6.62346 34.3804 7.7365 32.9335 7.7365V8.97736C35.1039 8.97736 36.8689 7.30779 36.8689 5.25479C36.8689 5.08604 36.8532 4.92162 36.8296 4.75907C37.0506 4.67966 37.2841 4.63436 37.5248 4.63436C38.6097 4.63436 39.4925 5.46946 39.4925 6.49565C39.4925 6.79469 39.4086 7.09188 39.2439 7.3779L38.9822 7.83205L39.4079 8.15715C39.8789 8.517 40.1484 9.04188 40.1484 9.59779C40.1484 10.624 39.2656 11.4591 38.1807 11.4591V11.4609C37.923 11.2773 37.635 11.1265 37.3208 11.0198L36.8787 12.1881C37.658 12.4524 38.182 13.1572 38.1814 13.9687C38.1683 14.98 37.2408 15.8021 36.114 15.8021H35.9369L32.7026 8.97736H21.9037C22.1752 8.25704 22.8967 7.7365 23.7507 7.7365ZM15.5197 26.0875C12.3681 22.5101 10.6326 17.976 10.6326 13.3204V12.5907L17.5039 27.5902H16.8427L15.5197 26.0875ZM15.1354 27.5902H4.81794L5.44171 26.8823C7.62851 24.4 9.16793 21.4827 9.97666 18.3799C10.7854 21.4821 12.3248 24.3993 14.5116 26.8817L15.1354 27.5902ZM9.32076 12.4983V13.3204C9.32076 17.976 7.58522 22.5101 4.43358 26.0881L3.11061 27.5902H2.16873L9.32076 12.4983ZM24.4066 30.7227C24.4066 29.596 25.0508 28.7634 25.7322 27.8818C26.1822 27.3017 26.642 26.7073 26.8742 26.0342C27.2822 26.2606 27.6862 26.5882 27.6862 26.9698V27.5902H28.998V26.9698C28.998 26.5224 28.8321 26.1434 28.5874 25.8276C29.1095 24.6419 30.3525 23.8838 31.1409 23.5047C31.4236 24.2715 32.0158 25.1048 32.6724 26.0286C33.7166 27.4984 34.9012 29.1636 34.9012 30.7227C34.9012 32.4922 33.8963 33.4297 32.6652 33.9179C32.8351 33.5562 32.9335 33.1591 32.9335 32.7391C32.9335 32.0796 32.6934 31.4319 32.2579 30.9163L29.6539 27.8377L27.0506 30.9163C26.6144 31.4313 26.3744 32.079 26.3744 32.7391C26.3744 33.0983 26.4524 33.4383 26.579 33.7566C25.2475 33.1008 24.4066 32.0095 24.4066 30.7227ZM29.6218 34.4149C29.5365 34.4149 29.4539 34.4093 29.3699 34.4062C28.4346 34.3622 27.6862 33.6344 27.6862 32.7391C27.6862 32.36 27.8239 31.9878 28.0751 31.6918L29.6539 29.8244L31.2333 31.6925C31.4839 31.9878 31.6216 32.36 31.6216 32.7391C31.6216 33.648 30.8509 34.387 29.8959 34.4105C29.8028 34.4124 29.7097 34.4149 29.6218 34.4149ZM35.2383 27.5902C34.7969 26.8041 34.2669 26.0484 33.7606 25.3362C33.0312 24.3106 32.2775 23.2503 32.2775 22.6268V21.7594L31.4098 22.0398C31.2871 22.0789 28.7022 22.9357 27.5609 24.9807C27.0618 24.6978 26.6151 24.56 26.5725 24.5476L25.7185 24.2914V25.1389C25.7185 25.7996 25.2351 26.425 24.6743 27.1491C24.5634 27.2924 24.4506 27.44 24.3384 27.5902H18.9344L10.9763 10.2182H31.8532L40.0861 27.5902H35.2383Z" fill="#FF5956"/>
<path d="M24.4062 11.459H25.7181V12.6998H24.4062V11.459Z" fill="#FF5956"/>
<path d="M21.7832 11.459H23.095V12.6998H21.7832V11.459Z" fill="#FF5956"/>
</g>
<defs>
<clipPath id="clip0_807_11153">
<rect width="41.9781" height="39.7074" fill="white" transform="translate(0.137695 0.912109)"/>
</clipPath>
</defs>
</svg>