<svg xmlns="http://www.w3.org/2000/svg" width="59" height="66" viewBox="0 0 59 66" fill="none">
<g clip-path="url(#clip0_40_1208)">
<path d="M34.7241 8.70648C36.0557 8.50162 37.3873 9.42349 37.5921 10.7551" stroke="#CB4845" stroke-width="2" stroke-miterlimit="10" stroke-linecap="round" stroke-linejoin="round"/>
<path d="M37.5921 10.755C37.3872 9.42342 38.3091 8.09182 39.6407 7.88696" stroke="#CB4845" stroke-width="2" stroke-miterlimit="10" stroke-linecap="round" stroke-linejoin="round"/>
<path d="M21.3057 6.45306C22.6373 6.2482 23.9689 7.17007 24.1737 8.50167" stroke="#CB4845" stroke-width="2" stroke-miterlimit="10" stroke-linecap="round" stroke-linejoin="round"/>
<path d="M24.1737 8.5016C23.9689 7.17 24.8907 5.83841 26.2223 5.63354" stroke="#CB4845" stroke-width="2" stroke-miterlimit="10" stroke-linecap="round" stroke-linejoin="round"/>
<path d="M49.8838 44.0452V53.5712" stroke="#CB4845" stroke-width="2" stroke-miterlimit="10" stroke-linecap="round" stroke-linejoin="round"/>
<path d="M47.1182 42.6111V38.1042C47.1182 36.6701 46.9133 35.2361 46.4011 33.9045C46.1963 33.3924 45.9914 32.8802 45.7866 32.3681C45.3768 31.5486 44.9671 30.8316 44.455 30.217C43.4307 28.783 42.0991 27.6563 40.5626 26.7344L44.6598 21.9201H39.5383L46.2987 12.9062L53.0591 21.9201H47.9376L56.3369 31.8559H48.9619L57.9758 43.6354H47.0157C47.1182 43.3281 47.1182 43.0208 47.1182 42.6111Z" stroke="#CB4845" stroke-width="2" stroke-miterlimit="10" stroke-linecap="round" stroke-linejoin="round"/>
<path d="M15.4671 9.11624C15.4671 11.9843 13.1112 14.2378 10.3456 14.2378C7.47753 14.2378 5.22406 11.8819 5.22406 9.11624C5.22406 6.9652 6.55566 5.12145 8.39941 4.302C8.09212 4.91659 7.88725 5.6336 7.88725 6.35061C7.88725 8.60409 9.731 10.4478 11.9845 10.4478C13.5209 10.4478 14.8525 9.62839 15.5695 8.39922C15.3647 8.70652 15.4671 8.91138 15.4671 9.11624Z" stroke="#CB4845" stroke-width="2" stroke-miterlimit="10" stroke-linecap="round" stroke-linejoin="round"/>
<path d="M20.3838 35.0311V37.1821C20.3838 38.5137 19.257 39.6405 17.9255 39.6405H8.60427C7.27267 39.6405 6.14594 38.5137 6.14594 37.1821V35.0311C6.14594 33.6995 7.27267 32.5728 8.60427 32.5728H17.9255C19.257 32.5728 20.3838 33.6995 20.3838 35.0311Z" stroke="#CB4845" stroke-width="2" stroke-miterlimit="10" stroke-linecap="round" stroke-linejoin="round"/>
<path d="M37.6945 34.3142V44.4548C37.6945 45.4791 36.8751 46.2986 35.8508 46.2986H30.8317C29.8074 46.2986 28.9879 45.4791 28.9879 44.4548V34.3142C28.9879 33.2899 29.8074 32.4704 30.8317 32.4704H35.8508C36.7727 32.368 37.6945 33.2899 37.6945 34.3142Z" stroke="#CB4845" stroke-width="2" stroke-miterlimit="10" stroke-linecap="round" stroke-linejoin="round"/>
<path d="M46.4011 33.9045C46.1963 33.3924 45.9914 32.8802 45.7865 32.3681C45.3768 31.5486 44.9671 30.8316 44.455 30.217C43.4306 28.783 42.0991 27.6563 40.5626 26.7344C38.6164 25.5052 36.2605 24.8906 33.8022 24.8906H5.63378C3.38031 24.8906 1.53656 26.7344 1.53656 28.9878V46.7083C1.53656 48.9618 3.38031 50.8056 5.63378 50.8056H8.29698V50.6007C8.39941 47.8351 10.7553 45.5816 13.5209 45.684C16.2866 45.7865 18.4376 48.0399 18.4376 50.8056H38.8213C43.0209 50.8056 46.5036 47.6302 47.0157 43.533C47.0157 43.2257 47.1181 42.9184 47.1181 42.6111V38.1042C47.1181 36.6701 46.9133 35.2361 46.4011 33.9045ZM20.3838 37.1823C20.3838 38.5139 19.257 39.6406 17.9254 39.6406H8.60427C7.27267 39.6406 6.14593 38.5139 6.14593 37.1823V35.0313C6.14593 33.6997 7.27267 32.5729 8.60427 32.5729H17.9254C19.257 32.5729 20.3838 33.6997 20.3838 35.0313V37.1823ZM37.6945 44.3524C37.6945 45.3767 36.8751 46.1962 35.8508 46.1962H30.8317C29.8074 46.1962 28.9879 45.3767 28.9879 44.3524V34.2118C28.9879 33.1875 29.8074 32.3681 30.8317 32.3681H35.8508C36.8751 32.3681 37.6945 33.1875 37.6945 34.2118V44.3524Z" stroke="#CB4845" stroke-width="2" stroke-miterlimit="10" stroke-linecap="round" stroke-linejoin="round"/>
<path d="M35.2362 37.0798V41.5868" stroke="#CB4845" stroke-width="2" stroke-miterlimit="10" stroke-linecap="round" stroke-linejoin="round"/>
<path d="M20.3838 35.0311V37.1821C20.3838 38.5137 19.257 39.6405 17.9255 39.6405H8.60427C7.27267 39.6405 6.14594 38.5137 6.14594 37.1821V35.0311C6.14594 33.6995 7.27267 32.5728 8.60427 32.5728H17.9255C19.257 32.5728 20.3838 33.6995 20.3838 35.0311Z" stroke="#CB4845" stroke-width="2" stroke-miterlimit="10" stroke-linecap="round" stroke-linejoin="round"/>
<path d="M13.2137 32.5728V39.6405" stroke="#CB4845" stroke-width="2" stroke-miterlimit="10" stroke-linecap="round" stroke-linejoin="round"/>
<path d="M18.54 50.9078V51.1127C18.4376 53.8783 16.0817 56.1318 13.3161 56.0294C10.5505 55.9269 8.39941 53.6735 8.39941 50.9078V50.703C8.50184 47.9374 10.8577 45.6839 13.6234 45.7863C16.389 45.8887 18.54 48.1422 18.54 50.9078Z" stroke="#CB4845" stroke-width="2" stroke-miterlimit="10" stroke-linecap="round" stroke-linejoin="round"/>
<path d="M15.4671 50.908C15.4671 52.1371 14.4428 53.059 13.3161 52.9566C12.1893 52.9566 11.3699 52.0347 11.2675 50.908V50.8055C11.2675 49.6788 12.2918 48.7569 13.4185 48.8594C14.6477 48.8594 15.5695 49.7812 15.4671 50.908Z" stroke="#CB4845" stroke-width="2" stroke-miterlimit="10" stroke-linecap="round" stroke-linejoin="round"/>
</g>
<defs>
<clipPath id="clip0_40_1208">
<rect width="59" height="65.5556" fill="white"/>
</clipPath>
</defs>
</svg>