<svg xmlns="http://www.w3.org/2000/svg" width="37" height="37" viewBox="0 0 37 37" fill="none">
<g clip-path="url(#clip0_277_536)">
<path d="M26.2084 13.875C25.9075 13.8689 25.6076 13.8398 25.3112 13.7879C24.468 13.673 23.6649 13.3571 22.9693 12.867C22.2737 12.3768 21.7062 11.7266 21.3144 10.9713C20.2021 12.3125 17.9011 13.7185 13.1382 13.8588C12.8799 13.875 12.6063 13.875 12.3334 13.875C12.129 13.875 11.9329 13.7938 11.7883 13.6492C11.6438 13.5047 11.5626 13.3086 11.5626 13.1042V10.7917C11.5571 9.4821 11.8884 8.19313 12.5248 7.04856C13.1611 5.90399 14.0811 4.94226 15.1963 4.25577C16.4232 3.50327 17.8343 3.10498 19.2736 3.10498C20.7129 3.10498 22.124 3.50327 23.3509 4.25577C24.4651 4.94297 25.3839 5.90499 26.0193 7.04951C26.6547 8.19403 26.9852 9.48263 26.9792 10.7917V13.1042C26.9792 13.3086 26.898 13.5047 26.7535 13.6492C26.6089 13.7938 26.4128 13.875 26.2084 13.875ZM19.2709 4.625C17.6365 4.62866 16.0701 5.27954 14.9145 6.43522C13.7588 7.5909 13.1079 9.15729 13.1042 10.7917V12.3179C20.5883 12.0928 20.8064 8.63795 20.8126 8.46914C20.8126 8.2647 20.8938 8.06864 21.0383 7.92408C21.1829 7.77952 21.379 7.69831 21.5834 7.69831C21.7878 7.69831 21.9839 7.77952 22.1285 7.92408C22.273 8.06864 22.3542 8.2647 22.3542 8.46914C22.2843 9.37293 22.5659 10.2689 23.1403 10.9701C23.7147 11.6714 24.5377 12.1238 25.4376 12.2331V10.7917C25.4337 9.15735 24.7828 7.59108 23.6271 6.43544C22.4715 5.27981 20.9052 4.62886 19.2709 4.625Z" fill="#CB4845"/>
<path d="M14.6836 32.3752C14.5009 32.3752 14.3241 32.3104 14.1848 32.1922C14.0454 32.0741 13.9526 31.9102 13.9228 31.73C13.8273 31.051 13.8682 30.3597 14.0432 29.6967C14.2182 29.0337 14.5237 28.4123 14.9418 27.8689C15.8792 26.7673 17.333 26.2085 19.2708 26.2085C19.373 26.2085 19.4742 26.2288 19.5685 26.2683C19.6628 26.3077 19.7483 26.3655 19.82 26.4383C19.8918 26.5111 19.9483 26.5975 19.9863 26.6924C20.0244 26.7872 20.0432 26.8887 20.0417 26.9909C20.0147 28.8532 18.86 32.3752 14.6836 32.3752ZM18.3929 27.8003C17.5263 27.8531 16.7126 28.2343 16.1174 28.8663C15.6865 29.4129 15.4432 30.0838 15.4236 30.7795C16.1721 30.6659 16.8644 30.3152 17.3989 29.7789C17.9333 29.2427 18.2817 28.5492 18.3929 27.8003Z" fill="#CB4845"/>
<path d="M23.8582 32.3752C19.6818 32.3752 18.5271 28.8532 18.5001 26.9909C18.4986 26.8887 18.5174 26.7872 18.5554 26.6924C18.5935 26.5975 18.65 26.5111 18.7217 26.4383C18.7935 26.3655 18.879 26.3077 18.9732 26.2683C19.0675 26.2288 19.1687 26.2085 19.2709 26.2085C21.2088 26.2085 22.6626 26.7673 23.5999 27.8689C24.0182 28.4122 24.3237 29.0337 24.4986 29.6967C24.6734 30.3597 24.7141 31.051 24.6182 31.73C24.5884 31.9101 24.4957 32.0738 24.3565 32.192C24.2173 32.3101 24.0407 32.375 23.8582 32.3752ZM20.1443 27.8003C20.2514 28.5516 20.599 29.248 21.1349 29.7853C21.6709 30.3226 22.3664 30.672 23.1174 30.7811C23.0988 30.0798 22.8529 29.4035 22.4167 28.854C21.8199 28.2277 21.0078 27.8511 20.1443 27.8003Z" fill="#CB4845"/>
<path d="M26.2083 17.7295H25.4375V16.1878H26.2083C26.4128 16.1878 26.6088 16.1066 26.7534 15.9621C26.898 15.8175 26.9792 15.6214 26.9792 15.417C26.9792 15.2126 26.898 15.0165 26.7534 14.8719C26.6088 14.7274 26.4128 14.6462 26.2083 14.6462H25.4375V13.1045H26.2083C26.8216 13.1045 27.4098 13.3481 27.8435 13.7818C28.2772 14.2155 28.5208 14.8037 28.5208 15.417C28.5208 16.0303 28.2772 16.6185 27.8435 17.0522C27.4098 17.4859 26.8216 17.7295 26.2083 17.7295Z" fill="#CB4845"/>
<path d="M13.1043 17.7295H12.3335C11.7202 17.7295 11.132 17.4859 10.6983 17.0522C10.2646 16.6185 10.021 16.0303 10.021 15.417C10.021 14.8037 10.2646 14.2155 10.6983 13.7818C11.132 13.3481 11.7202 13.1045 12.3335 13.1045H13.1043V14.6462H12.3335C12.1291 14.6462 11.933 14.7274 11.7884 14.8719C11.6439 15.0165 11.5627 15.2126 11.5627 15.417C11.5627 15.6214 11.6439 15.8175 11.7884 15.9621C11.933 16.1066 12.1291 16.1878 12.3335 16.1878H13.1043V17.7295Z" fill="#CB4845"/>
<path d="M19.271 23.1253C17.4317 23.1233 15.6683 22.3917 14.3677 21.0911C13.0671 19.7905 12.3355 18.0271 12.3335 16.1878V13.1045H13.8752V16.1878C13.8752 17.6189 14.4437 18.9913 15.4556 20.0033C16.4675 21.0152 17.8399 21.5837 19.271 21.5837C20.7021 21.5837 22.0745 21.0152 23.0864 20.0033C24.0983 18.9913 24.6668 17.6189 24.6668 16.1878V13.1045H26.2085V16.1878C26.2065 18.0271 25.4749 19.7905 24.1743 21.0911C22.8737 22.3917 21.1103 23.1233 19.271 23.1253Z" fill="#CB4845"/>
<path d="M14.6458 33.146H11.5625V34.6877H14.6458V33.146Z" fill="#CB4845"/>
<path d="M19.2708 27.75C18.5764 27.7449 17.8935 27.572 17.2804 27.246C16.6673 26.92 16.1421 26.4505 15.7496 25.8777C15.5466 25.6 15.4223 25.2727 15.3899 24.9302C15.3574 24.5878 15.4181 24.2429 15.5654 23.9321C15.698 23.68 15.899 23.4705 16.1455 23.3277C16.3919 23.1849 16.6737 23.1147 16.9583 23.125V24.6667C16.912 24.6829 16.9082 24.8432 17.0146 24.9974C17.2631 25.3682 17.5987 25.6725 17.992 25.8836C18.3853 26.0947 18.8244 26.2062 19.2708 26.2084V27.75Z" fill="#CB4845"/>
<path d="M18.5094 27.7502C17.9953 27.7502 13.4574 27.6731 12.4522 24.9328C12.342 24.6236 12.3101 24.292 12.3595 23.9675C12.4089 23.643 12.5379 23.3359 12.7351 23.0735C13.0577 22.6458 13.4677 22.2916 13.9378 22.0347C14.4079 21.7778 14.9274 21.624 15.4616 21.5835H16.9585V23.1252H15.4616C14.886 23.2074 14.3628 23.5043 13.997 23.9561C13.8251 24.2028 13.876 24.3415 13.8975 24.4009C14.3862 25.7275 16.9231 26.2085 18.5094 26.2085V27.7502Z" fill="#CB4845"/>
<path d="M19.2534 27.75V26.2084C19.6993 26.2058 20.1378 26.0941 20.5305 25.883C20.9233 25.6719 21.2584 25.3678 21.5066 24.9974C21.5446 24.9481 21.5716 24.8912 21.5859 24.8306C21.6001 24.77 21.6012 24.707 21.589 24.6459L21.5659 23.125C21.8504 23.1146 22.132 23.1847 22.3783 23.3274C22.6246 23.47 22.8256 23.6794 22.958 23.9313C23.1057 24.242 23.1667 24.5868 23.1346 24.9293C23.1024 25.2718 22.9783 25.5992 22.7754 25.8769C22.3825 26.4497 21.8572 26.9191 21.244 27.2452C20.6308 27.5714 19.9479 27.7445 19.2534 27.75Z" fill="#CB4845"/>
<path d="M20.0146 27.7502V26.2085C21.601 26.2085 24.1378 25.7275 24.625 24.4009C24.6474 24.3415 24.6975 24.2028 24.5256 23.9561C24.1601 23.5046 23.6375 23.2078 23.0625 23.1252H21.5833V21.5835H23.0625C23.5969 21.624 24.1165 21.7779 24.5868 22.035C25.057 22.292 25.4671 22.6463 25.7897 23.0743C25.9867 23.3366 26.1155 23.6437 26.1647 23.968C26.214 24.2923 26.1821 24.6238 26.0719 24.9328C25.0675 27.6731 20.5288 27.7502 20.0146 27.7502Z" fill="#CB4845"/>
<path d="M29.2918 7.70843C29.0874 7.70843 28.8913 7.62722 28.7468 7.48266C28.6022 7.3381 28.521 7.14204 28.521 6.9376V0.770932C28.521 0.642504 28.5531 0.516107 28.6143 0.403225C28.6755 0.290342 28.764 0.194551 28.8717 0.124554C28.9794 0.0545573 29.1028 0.0125728 29.2309 0.00241506C29.3589 -0.00774274 29.4874 0.0142481 29.6048 0.0663897L36.5423 3.14972C36.6786 3.21024 36.7945 3.30902 36.8758 3.43408C36.9571 3.55914 37.0004 3.7051 37.0004 3.85427C37.0004 4.00343 36.9571 4.1494 36.8758 4.27445C36.7945 4.39951 36.6786 4.49829 36.5423 4.55881L29.6048 7.64214C29.5063 7.68601 29.3997 7.7086 29.2918 7.70843ZM30.0627 1.95724V5.75129L34.3315 3.85427L30.0627 1.95724Z" fill="#CB4845"/>
<path d="M30.0627 6.9375H28.521V17.7292H30.0627V6.9375Z" fill="#CB4845"/>
<path d="M32.3753 23.896H29.292C28.6787 23.896 28.0905 23.6524 27.6568 23.2187C27.2231 22.785 26.9795 22.1968 26.9795 21.5835V19.271C26.9795 18.6577 27.2231 18.0695 27.6568 17.6358C28.0905 17.2021 28.6787 16.9585 29.292 16.9585H30.8337C31.447 16.9585 32.0352 17.2021 32.4688 17.6358C32.9025 18.0695 33.1462 18.6577 33.1462 19.271V23.1252C33.1462 23.3296 33.0649 23.5257 32.9204 23.6702C32.7758 23.8148 32.5798 23.896 32.3753 23.896ZM29.292 18.5002C29.0876 18.5002 28.8915 18.5814 28.7469 18.7259C28.6024 18.8705 28.5212 19.0666 28.5212 19.271V21.5835C28.5212 21.7879 28.6024 21.984 28.7469 22.1286C28.8915 22.2731 29.0876 22.3543 29.292 22.3543H31.6045V19.271C31.6045 19.0666 31.5233 18.8705 31.3787 18.7259C31.2342 18.5814 31.0381 18.5002 30.8337 18.5002H29.292Z" fill="#CB4845"/>
<path d="M16.5731 25.9002L15.8022 24.5635C15.9191 24.4955 16.0162 24.3981 16.0838 24.281C16.1514 24.1639 16.1872 24.0312 16.1877 23.896V21.5835H17.7293V23.896C17.7283 24.3019 17.621 24.7005 17.4181 25.0521C17.2153 25.4037 16.924 25.6961 16.5731 25.9002Z" fill="#CB4845"/>
<path d="M34.6875 33.1462H30.0625V31.6045H34.6875C34.8919 31.6045 35.088 31.5233 35.2326 31.3787C35.3771 31.2342 35.4583 31.0381 35.4583 30.8337V29.4739L32.6695 23.8962H32.375V22.3545H33.1458C33.2897 22.3537 33.431 22.3932 33.5536 22.4686C33.6762 22.5439 33.7753 22.652 33.8396 22.7808L36.9229 28.9474C36.9749 29.0548 37.0013 29.1727 37 29.292V30.8337C37 31.447 36.7564 32.0352 36.3227 32.4689C35.889 32.9025 35.3008 33.1462 34.6875 33.1462Z" fill="#CB4845"/>
<path d="M29.9814 22.7803L28.6025 23.4697L31.6858 29.6362L33.0647 28.9468L29.9814 22.7803Z" fill="#CB4845"/>
<path d="M21.9618 25.8932C21.613 25.6891 21.3236 25.3975 21.122 25.0472C20.9204 24.6969 20.8138 24.3001 20.8125 23.896V21.5835H22.3542V23.896C22.3544 24.031 22.3902 24.1636 22.4578 24.2805C22.5255 24.3974 22.6226 24.4945 22.7396 24.562L21.9618 25.8932Z" fill="#CB4845"/>
<path d="M30.3249 26.7303C30.0443 26.5807 28.2899 26.2578 24.6577 26.2131L24.6778 24.6714C31.6045 24.7569 31.6045 25.5956 31.6045 26.2084H30.0628C30.06 26.3103 30.0824 26.4113 30.1282 26.5023C30.1739 26.5934 30.2415 26.6717 30.3249 26.7303Z" fill="#CB4845"/>
<path d="M27.7502 36.9999H8.47933C8.27489 36.9999 8.07883 36.9187 7.93427 36.7741C7.78971 36.6295 7.7085 36.4335 7.7085 36.229V31.604C7.70971 29.9144 8.32691 28.2831 9.44449 27.0158C10.5621 25.7486 12.1033 24.9322 13.7796 24.7197L13.9707 26.2498C12.6672 26.4153 11.4687 27.0502 10.5998 28.0358C9.73079 29.0215 9.25096 30.2901 9.25016 31.604V35.4582H26.9793V33.9165C26.9793 33.7121 27.0605 33.516 27.2051 33.3715C27.3497 33.2269 27.5457 33.1457 27.7502 33.1457H29.2918V25.4374H30.8335V33.9165C30.8335 34.121 30.7523 34.317 30.6077 34.4616C30.4632 34.6062 30.2671 34.6874 30.0627 34.6874H28.521V36.229C28.521 36.4335 28.4398 36.6295 28.2952 36.7741C28.1507 36.9187 27.9546 36.9999 27.7502 36.9999Z" fill="#CB4845"/>
<path d="M23.1253 4.625H21.5837V3.85417C21.5837 3.24085 21.34 2.65266 20.9063 2.21898C20.4727 1.7853 19.8845 1.54167 19.2712 1.54167C18.6578 1.54167 18.0697 1.7853 17.636 2.21898C17.2023 2.65266 16.9587 3.24085 16.9587 3.85417V4.625H15.417V3.85417C15.417 2.83198 15.8231 1.85166 16.5459 1.12886C17.2686 0.406063 18.249 0 19.2712 0C20.2934 0 21.2737 0.406063 21.9965 1.12886C22.7193 1.85166 23.1253 2.83198 23.1253 3.85417V4.625Z" fill="#CB4845"/>
<path d="M28.5212 25.4375H26.9795V31.6042H28.5212V25.4375Z" fill="#CB4845"/>
</g>
<defs>
<clipPath id="clip0_277_536">
<rect width="37" height="37" fill="white"/>
</clipPath>
</defs>
</svg>